<?xml version="1.0" standalone="no"?>
<!-- Generator: Adobe Fireworks 10, Export SVG Extension by Aaron Beall (http://fireworks.abeall.com) . Version: 0.6.1  -->
<!DOCTYPE svg PUBLIC "-//W3C//DTD SVG 1.1//EN" "http://www.w3.org/Graphics/SVG/1.1/DTD/svg11.dtd">
<svg id="Untitled-Page%201" viewBox="0 0 240 150" style="background-color:#ffffff00" version="1.1"
	xmlns="http://www.w3.org/2000/svg" xmlns:xlink="http://www.w3.org/1999/xlink" xml:space="preserve"
	x="0px" y="0px" width="240px" height="150px"
>
	<defs>
		<linearGradient id="gradient1" x1="50.0022%" y1="54.0231%" x2="50.0022%" y2="46.0592%">
			<stop stop-color="#4d4d4d" stop-opacity="1" offset="0%"/>
			<stop stop-color="#919190" stop-opacity="1" offset="100%"/>
		</linearGradient>
		<linearGradient id="gradient2" x1="50.0022%" y1="96.8269%" x2="50.0022%" y2="3.2577%">
			<stop stop-color="#919190" stop-opacity="1" offset="0%"/>
			<stop stop-color="#3c3a3a" stop-opacity="1" offset="100%"/>
		</linearGradient>
		<linearGradient id="gradient3" x1="49.9356%" y1="58.8126%" x2="49.9356%" y2="40.7627%">
			<stop stop-color="#bdbec0" stop-opacity="1" offset="0%"/>
			<stop stop-color="#4d4d4d" stop-opacity="1" offset="100%"/>
		</linearGradient>
		<linearGradient id="gradient4" x1="49.9356%" y1="68.8348%" x2="49.9356%" y2="30.7365%">
			<stop stop-color="#4d4d4d" stop-opacity="1" offset="0%"/>
			<stop stop-color="#9da1a2" stop-opacity="1" offset="100%"/>
		</linearGradient>
		<linearGradient id="gradient5" x1="49.9356%" y1="55.8043%" x2="49.9356%" y2="43.7711%">
			<stop stop-color="#9da1a2" stop-opacity="1" offset="0%"/>
			<stop stop-color="#d1d2d3" stop-opacity="1" offset="100%"/>
		</linearGradient>
		<linearGradient id="gradient6" x1="49.9356%" y1="65.8306%" x2="49.9356%" y2="33.7448%">
			<stop stop-color="#d1d2d3" stop-opacity="1" offset="0%"/>
			<stop stop-color="#4d4d4d" stop-opacity="1" offset="100%"/>
		</linearGradient>
		<linearGradient id="gradient7" x1="50.112%" y1="100.1124%" x2="50.112%" y2="0.3043%">
			<stop stop-color="#4d4d4d" stop-opacity="1" offset="0%"/>
			<stop stop-color="#3c3a3a" stop-opacity="1" offset="100%"/>
		</linearGradient>
		<radialGradient id="gradient8" cx="50.1419%" cy="49.955%" r="49.8638%">
			<stop stop-color="#4d4d4d" stop-opacity="1" offset="0%"/>
			<stop stop-color="#4d4d4d" stop-opacity="1" offset="60%"/>
			<stop stop-color="#989b9e" stop-opacity="1" offset="70.98%"/>
			<stop stop-color="#989b9e" stop-opacity="1" offset="100%"/>
		</radialGradient>
		<radialGradient id="gradient9" cx="50.1419%" cy="49.955%" r="29.9185%">
			<stop stop-color="#363435" stop-opacity="1" offset="0%"/>
			<stop stop-color="#4d4d4d" stop-opacity="1" offset="100%"/>
		</radialGradient>
		<radialGradient id="gradient10" cx="50.0977%" cy="49.83%" r="49.9509%">
			<stop stop-color="#9da1a2" stop-opacity="1" offset="0%"/>
			<stop stop-color="#9da1a2" stop-opacity="1" offset="38.82%"/>
			<stop stop-color="#676565" stop-opacity="1" offset="70.98%"/>
			<stop stop-color="#676565" stop-opacity="1" offset="100%"/>
		</radialGradient>
		<radialGradient id="gradient11" cx="50.0977%" cy="49.83%" r="19.9804%">
			<stop stop-color="#696766" stop-opacity="1" offset="0%"/>
			<stop stop-color="#9da1a2" stop-opacity="1" offset="100%"/>
		</radialGradient>
		<linearGradient id="gradient12" x1="50.0885%" y1="63.0278%" x2="50.0885%" y2="37.0285%">
			<stop stop-color="#c7c8c9" stop-opacity="1" offset="0%"/>
			<stop stop-color="#9fa0a3" stop-opacity="1" offset="100%"/>
		</linearGradient>
		<linearGradient id="gradient13" x1="50.0885%" y1="88.0267%" x2="50.0885%" y2="12.0262%">
			<stop stop-color="#9fa0a3" stop-opacity="1" offset="0%"/>
			<stop stop-color="#d1d2d3" stop-opacity="1" offset="100%"/>
		</linearGradient>
		<linearGradient id="gradient14" x1="49.7417%" y1="0.0435%" x2="49.7417%" y2="107.3154%">
			<stop stop-color="#f2f3f4" stop-opacity="1" offset="0%"/>
			<stop stop-color="#aaadb0" stop-opacity="1" offset="100%"/>
		</linearGradient>
		<linearGradient id="gradient15" x1="50.2058%" y1="100.2482%" x2="50.2058%" y2="-0.2178%">
			<stop stop-color="#4d4d4d" stop-opacity="1" offset="0%"/>
			<stop stop-color="#3c3a3a" stop-opacity="1" offset="100%"/>
		</linearGradient>
		<linearGradient id="gradient16" x1="50.0711%" y1="-0.1968%" x2="50.0711%" y2="105.8313%">
			<stop stop-color="#ffffff" stop-opacity="1" offset="0%"/>
			<stop stop-color="#4d4d4d" stop-opacity="1" offset="100%"/>
		</linearGradient>
		<radialGradient id="gradient17" cx="50.2731%" cy="51.6338%" r="49.1531%">
			<stop stop-color="#4d4d4d" stop-opacity="1" offset="0%"/>
			<stop stop-color="#4d4d4d" stop-opacity="1" offset="58.82%"/>
			<stop stop-color="#989b9e" stop-opacity="1" offset="70.98%"/>
			<stop stop-color="#989b9e" stop-opacity="1" offset="100%"/>
		</radialGradient>
		<radialGradient id="gradient18" cx="50.2731%" cy="51.6338%" r="29.4945%">
			<stop stop-color="#3c3a3a" stop-opacity="1" offset="0%"/>
			<stop stop-color="#4d4d4d" stop-opacity="1" offset="100%"/>
		</radialGradient>
		<radialGradient id="gradient19" cx="50.2731%" cy="48.9315%" r="49.1249%">
			<stop stop-color="#4d4d4d" stop-opacity="1" offset="0%"/>
			<stop stop-color="#4d4d4d" stop-opacity="1" offset="58.82%"/>
			<stop stop-color="#989b9e" stop-opacity="1" offset="70.98%"/>
			<stop stop-color="#989b9e" stop-opacity="1" offset="100%"/>
		</radialGradient>
		<radialGradient id="gradient20" cx="50.2731%" cy="48.9315%" r="29.4807%">
			<stop stop-color="#3c3a3a" stop-opacity="1" offset="0%"/>
			<stop stop-color="#4d4d4d" stop-opacity="1" offset="100%"/>
		</radialGradient>
		<radialGradient id="gradient21" cx="50.0221%" cy="49.0746%" r="53.9299%">
			<stop stop-color="#4d4d4d" stop-opacity="1" offset="0%"/>
			<stop stop-color="#4d4d4d" stop-opacity="1" offset="54.12%"/>
			<stop stop-color="#989b9e" stop-opacity="1" offset="65.1%"/>
			<stop stop-color="#989b9e" stop-opacity="1" offset="100%"/>
		</radialGradient>
		<radialGradient id="gradient22" cx="50.0221%" cy="49.0746%" r="29.1267%">
			<stop stop-color="#3c3a3a" stop-opacity="1" offset="0%"/>
			<stop stop-color="#4d4d4d" stop-opacity="1" offset="100%"/>
		</radialGradient>
		<radialGradient id="gradient23" cx="50.6298%" cy="48.68%" r="53.9295%">
			<stop stop-color="#4d4d4d" stop-opacity="1" offset="0%"/>
			<stop stop-color="#4d4d4d" stop-opacity="1" offset="54.12%"/>
			<stop stop-color="#989b9e" stop-opacity="1" offset="65.1%"/>
			<stop stop-color="#989b9e" stop-opacity="1" offset="100%"/>
		</radialGradient>
		<radialGradient id="gradient24" cx="50.6298%" cy="48.68%" r="29.1262%">
			<stop stop-color="#3c3a3a" stop-opacity="1" offset="0%"/>
			<stop stop-color="#4d4d4d" stop-opacity="1" offset="100%"/>
		</radialGradient>
		<radialGradient id="gradient25" cx="51.6235%" cy="50.3185%" r="49.1531%">
			<stop stop-color="#4d4d4d" stop-opacity="1" offset="0%"/>
			<stop stop-color="#4d4d4d" stop-opacity="1" offset="58.82%"/>
			<stop stop-color="#989b9e" stop-opacity="1" offset="70.98%"/>
			<stop stop-color="#989b9e" stop-opacity="1" offset="100%"/>
		</radialGradient>
		<radialGradient id="gradient26" cx="51.6235%" cy="50.3185%" r="29.4945%">
			<stop stop-color="#3c3a3a" stop-opacity="1" offset="0%"/>
			<stop stop-color="#4d4d4d" stop-opacity="1" offset="100%"/>
		</radialGradient>
		<radialGradient id="gradient27" cx="48.8838%" cy="50.3185%" r="49.2104%">
			<stop stop-color="#4d4d4d" stop-opacity="1" offset="0%"/>
			<stop stop-color="#4d4d4d" stop-opacity="1" offset="58.82%"/>
			<stop stop-color="#989b9e" stop-opacity="1" offset="70.98%"/>
			<stop stop-color="#989b9e" stop-opacity="1" offset="100%"/>
		</radialGradient>
		<radialGradient id="gradient28" cx="48.8838%" cy="50.3185%" r="29.5235%">
			<stop stop-color="#3c3a3a" stop-opacity="1" offset="0%"/>
			<stop stop-color="#4d4d4d" stop-opacity="1" offset="100%"/>
		</radialGradient>
		<radialGradient id="gradient29" cx="50.0221%" cy="51.6836%" r="53.9297%">
			<stop stop-color="#4d4d4d" stop-opacity="1" offset="0%"/>
			<stop stop-color="#4d4d4d" stop-opacity="1" offset="52.94%"/>
			<stop stop-color="#989b9e" stop-opacity="1" offset="63.92%"/>
			<stop stop-color="#989b9e" stop-opacity="1" offset="100%"/>
		</radialGradient>
		<radialGradient id="gradient30" cx="50.0221%" cy="51.6836%" r="29.1266%">
			<stop stop-color="#3c3a3a" stop-opacity="1" offset="0%"/>
			<stop stop-color="#4d4d4d" stop-opacity="1" offset="100%"/>
		</radialGradient>
		<radialGradient id="gradient31" cx="51.6735%" cy="51.0769%" r="53.9299%">
			<stop stop-color="#4d4d4d" stop-opacity="1" offset="0%"/>
			<stop stop-color="#4d4d4d" stop-opacity="1" offset="52.94%"/>
			<stop stop-color="#989b9e" stop-opacity="1" offset="63.92%"/>
			<stop stop-color="#989b9e" stop-opacity="1" offset="100%"/>
		</radialGradient>
		<radialGradient id="gradient32" cx="51.6735%" cy="51.0769%" r="29.1267%">
			<stop stop-color="#3c3a3a" stop-opacity="1" offset="0%"/>
			<stop stop-color="#4d4d4d" stop-opacity="1" offset="100%"/>
		</radialGradient>
		<linearGradient id="gradient33" x1="50.1521%" y1="100.1124%" x2="50.1521%" y2="0.3043%">
			<stop stop-color="#4d4d4d" stop-opacity="1" offset="0%"/>
			<stop stop-color="#3c3a3a" stop-opacity="1" offset="100%"/>
		</linearGradient>
		<radialGradient id="gradient34" cx="50.1927%" cy="49.955%" r="49.8638%">
			<stop stop-color="#4d4d4d" stop-opacity="1" offset="0%"/>
			<stop stop-color="#4d4d4d" stop-opacity="1" offset="60%"/>
			<stop stop-color="#989b9e" stop-opacity="1" offset="70.98%"/>
			<stop stop-color="#989b9e" stop-opacity="1" offset="100%"/>
		</radialGradient>
		<radialGradient id="gradient35" cx="50.1927%" cy="49.955%" r="29.9098%">
			<stop stop-color="#363435" stop-opacity="1" offset="0%"/>
			<stop stop-color="#4d4d4d" stop-opacity="1" offset="100%"/>
		</radialGradient>
		<radialGradient id="gradient36" cx="50.1515%" cy="49.83%" r="49.9248%">
			<stop stop-color="#9da1a2" stop-opacity="1" offset="0%"/>
			<stop stop-color="#9da1a2" stop-opacity="1" offset="38.82%"/>
			<stop stop-color="#676565" stop-opacity="1" offset="70.98%"/>
			<stop stop-color="#676565" stop-opacity="1" offset="100%"/>
		</radialGradient>
		<radialGradient id="gradient37" cx="50.1515%" cy="49.83%" r="19.9699%">
			<stop stop-color="#696766" stop-opacity="1" offset="0%"/>
			<stop stop-color="#9da1a2" stop-opacity="1" offset="100%"/>
		</radialGradient>
		<linearGradient id="gradient38" x1="50.1704%" y1="63.0278%" x2="50.1704%" y2="37.0285%">
			<stop stop-color="#c7c8c9" stop-opacity="1" offset="0%"/>
			<stop stop-color="#9fa0a3" stop-opacity="1" offset="100%"/>
		</linearGradient>
		<linearGradient id="gradient39" x1="50.1704%" y1="88.0267%" x2="50.1704%" y2="12.0262%">
			<stop stop-color="#9fa0a3" stop-opacity="1" offset="0%"/>
			<stop stop-color="#d1d2d3" stop-opacity="1" offset="100%"/>
		</linearGradient>
		<linearGradient id="gradient40" x1="49.8293%" y1="0.0435%" x2="49.8293%" y2="107.3154%">
			<stop stop-color="#f2f3f4" stop-opacity="1" offset="0%"/>
			<stop stop-color="#aaadb0" stop-opacity="1" offset="100%"/>
		</linearGradient>
		<linearGradient id="gradient41" x1="49.2334%" y1="100.2482%" x2="49.2334%" y2="-0.2178%">
			<stop stop-color="#4d4d4d" stop-opacity="1" offset="0%"/>
			<stop stop-color="#3c3a3a" stop-opacity="1" offset="100%"/>
		</linearGradient>
		<linearGradient id="gradient42" x1="50.2532%" y1="-0.1968%" x2="50.2532%" y2="105.8313%">
			<stop stop-color="#ffffff" stop-opacity="1" offset="0%"/>
			<stop stop-color="#4d4d4d" stop-opacity="1" offset="100%"/>
		</linearGradient>
		<radialGradient id="gradient43" cx="50.5157%" cy="51.6338%" r="49.1524%">
			<stop stop-color="#4d4d4d" stop-opacity="1" offset="0%"/>
			<stop stop-color="#4d4d4d" stop-opacity="1" offset="58.82%"/>
			<stop stop-color="#989b9e" stop-opacity="1" offset="70.98%"/>
			<stop stop-color="#989b9e" stop-opacity="1" offset="100%"/>
		</radialGradient>
		<radialGradient id="gradient44" cx="50.5157%" cy="51.6338%" r="29.4945%">
			<stop stop-color="#3c3a3a" stop-opacity="1" offset="0%"/>
			<stop stop-color="#4d4d4d" stop-opacity="1" offset="100%"/>
		</radialGradient>
		<radialGradient id="gradient45" cx="50.5157%" cy="48.9315%" r="49.1249%">
			<stop stop-color="#4d4d4d" stop-opacity="1" offset="0%"/>
			<stop stop-color="#4d4d4d" stop-opacity="1" offset="58.82%"/>
			<stop stop-color="#989b9e" stop-opacity="1" offset="70.98%"/>
			<stop stop-color="#989b9e" stop-opacity="1" offset="100%"/>
		</radialGradient>
		<radialGradient id="gradient46" cx="50.5157%" cy="48.9315%" r="29.48%">
			<stop stop-color="#3c3a3a" stop-opacity="1" offset="0%"/>
			<stop stop-color="#4d4d4d" stop-opacity="1" offset="100%"/>
		</radialGradient>
		<radialGradient id="gradient47" cx="50.2659%" cy="49.0746%" r="53.9303%">
			<stop stop-color="#4d4d4d" stop-opacity="1" offset="0%"/>
			<stop stop-color="#4d4d4d" stop-opacity="1" offset="54.12%"/>
			<stop stop-color="#989b9e" stop-opacity="1" offset="65.1%"/>
			<stop stop-color="#989b9e" stop-opacity="1" offset="100%"/>
		</radialGradient>
		<radialGradient id="gradient48" cx="50.2659%" cy="49.0746%" r="29.127%">
			<stop stop-color="#3c3a3a" stop-opacity="1" offset="0%"/>
			<stop stop-color="#4d4d4d" stop-opacity="1" offset="100%"/>
		</radialGradient>
		<radialGradient id="gradient49" cx="50.946%" cy="48.68%" r="53.9291%">
			<stop stop-color="#4d4d4d" stop-opacity="1" offset="0%"/>
			<stop stop-color="#4d4d4d" stop-opacity="1" offset="54.12%"/>
			<stop stop-color="#989b9e" stop-opacity="1" offset="65.1%"/>
			<stop stop-color="#989b9e" stop-opacity="1" offset="100%"/>
		</radialGradient>
		<radialGradient id="gradient50" cx="50.946%" cy="48.68%" r="29.126%">
			<stop stop-color="#3c3a3a" stop-opacity="1" offset="0%"/>
			<stop stop-color="#4d4d4d" stop-opacity="1" offset="100%"/>
		</radialGradient>
		<radialGradient id="gradient51" cx="46.9025%" cy="50.3185%" r="49.1394%">
			<stop stop-color="#4d4d4d" stop-opacity="1" offset="0%"/>
			<stop stop-color="#4d4d4d" stop-opacity="1" offset="58.82%"/>
			<stop stop-color="#989b9e" stop-opacity="1" offset="70.98%"/>
			<stop stop-color="#989b9e" stop-opacity="1" offset="100%"/>
		</radialGradient>
		<radialGradient id="gradient52" cx="46.9025%" cy="50.3185%" r="29.4807%">
			<stop stop-color="#3c3a3a" stop-opacity="1" offset="0%"/>
			<stop stop-color="#4d4d4d" stop-opacity="1" offset="100%"/>
		</radialGradient>
		<radialGradient id="gradient53" cx="49.2004%" cy="50.3185%" r="49.2096%">
			<stop stop-color="#4d4d4d" stop-opacity="1" offset="0%"/>
			<stop stop-color="#4d4d4d" stop-opacity="1" offset="58.82%"/>
			<stop stop-color="#989b9e" stop-opacity="1" offset="70.98%"/>
			<stop stop-color="#989b9e" stop-opacity="1" offset="100%"/>
		</radialGradient>
		<radialGradient id="gradient54" cx="49.2004%" cy="50.3185%" r="29.5227%">
			<stop stop-color="#3c3a3a" stop-opacity="1" offset="0%"/>
			<stop stop-color="#4d4d4d" stop-opacity="1" offset="100%"/>
		</radialGradient>
		<radialGradient id="gradient55" cx="48.3287%" cy="51.6836%" r="53.9015%">
			<stop stop-color="#4d4d4d" stop-opacity="1" offset="0%"/>
			<stop stop-color="#4d4d4d" stop-opacity="1" offset="52.94%"/>
			<stop stop-color="#989b9e" stop-opacity="1" offset="63.92%"/>
			<stop stop-color="#989b9e" stop-opacity="1" offset="100%"/>
		</radialGradient>
		<radialGradient id="gradient56" cx="48.3287%" cy="51.6836%" r="29.1121%">
			<stop stop-color="#3c3a3a" stop-opacity="1" offset="0%"/>
			<stop stop-color="#4d4d4d" stop-opacity="1" offset="100%"/>
		</radialGradient>
		<radialGradient id="gradient57" cx="49.0349%" cy="51.0769%" r="53.9291%">
			<stop stop-color="#4d4d4d" stop-opacity="1" offset="0%"/>
			<stop stop-color="#4d4d4d" stop-opacity="1" offset="52.94%"/>
			<stop stop-color="#989b9e" stop-opacity="1" offset="63.92%"/>
			<stop stop-color="#989b9e" stop-opacity="1" offset="100%"/>
		</radialGradient>
		<radialGradient id="gradient58" cx="49.0349%" cy="51.0769%" r="29.126%">
			<stop stop-color="#3c3a3a" stop-opacity="1" offset="0%"/>
			<stop stop-color="#4d4d4d" stop-opacity="1" offset="100%"/>
		</radialGradient>
		<radialGradient id="gradient59" cx="42.2464%" cy="50.0044%" r="50.7269%">
			<stop stop-color="#faa931" stop-opacity="1" offset="0%"/>
			<stop stop-color="#faa931" stop-opacity="1" offset="58.04%"/>
			<stop stop-color="#faa333" stop-opacity="1" offset="65.88%"/>
			<stop stop-color="#faa333" stop-opacity="1" offset="100%"/>
		</radialGradient>
		<radialGradient id="gradient60" cx="42.2464%" cy="50.0044%" r="29.4216%">
			<stop stop-color="#fdbf2d" stop-opacity="1" offset="0%"/>
			<stop stop-color="#faa931" stop-opacity="1" offset="100%"/>
		</radialGradient>
		<linearGradient id="gradient61" x1="109.2476%" y1="9.4665%" x2="-3.8326%" y2="91.2019%">
			<stop stop-color="#fbd726" stop-opacity="1" offset="0%"/>
			<stop stop-color="#faa333" stop-opacity="1" offset="100%"/>
		</linearGradient>
		<linearGradient id="gradient62" x1="24.4746%" y1="49.3916%" x2="75.6395%" y2="53.1183%">
			<stop stop-color="#faa931" stop-opacity="1" offset="0%"/>
			<stop stop-color="#fcd526" stop-opacity="1" offset="100%"/>
		</linearGradient>
		<linearGradient id="gradient63" x1="24.4746%" y1="49.3916%" x2="75.6395%" y2="53.1183%">
			<stop stop-color="#fcd526" stop-opacity="1" offset="0%"/>
			<stop stop-color="#faa333" stop-opacity="1" offset="100%"/>
		</linearGradient>
		<linearGradient id="gradient64" x1="50.179%" y1="99.9898%" x2="50.179%" y2="0.1557%">
			<stop stop-color="#4d4d4d" stop-opacity="1" offset="0%"/>
			<stop stop-color="#3c3a3a" stop-opacity="1" offset="100%"/>
		</linearGradient>
		<radialGradient id="gradient65" cx="50.2268%" cy="49.955%" r="49.8638%">
			<stop stop-color="#4d4d4d" stop-opacity="1" offset="0%"/>
			<stop stop-color="#4d4d4d" stop-opacity="1" offset="60%"/>
			<stop stop-color="#989b9e" stop-opacity="1" offset="70.98%"/>
			<stop stop-color="#989b9e" stop-opacity="1" offset="100%"/>
		</radialGradient>
		<radialGradient id="gradient66" cx="50.2268%" cy="49.955%" r="29.9011%">
			<stop stop-color="#363435" stop-opacity="1" offset="0%"/>
			<stop stop-color="#4d4d4d" stop-opacity="1" offset="100%"/>
		</radialGradient>
		<radialGradient id="gradient67" cx="49.8586%" cy="49.8255%" r="49.9042%">
			<stop stop-color="#9da1a2" stop-opacity="1" offset="0%"/>
			<stop stop-color="#9da1a2" stop-opacity="1" offset="38.82%"/>
			<stop stop-color="#676565" stop-opacity="1" offset="70.98%"/>
			<stop stop-color="#676565" stop-opacity="1" offset="100%"/>
		</radialGradient>
		<radialGradient id="gradient68" cx="49.8586%" cy="49.8255%" r="19.9617%">
			<stop stop-color="#696766" stop-opacity="1" offset="0%"/>
			<stop stop-color="#9da1a2" stop-opacity="1" offset="100%"/>
		</radialGradient>
		<linearGradient id="gradient69" x1="49.7251%" y1="63.0243%" x2="49.7251%" y2="37.0285%">
			<stop stop-color="#c7c8c9" stop-opacity="1" offset="0%"/>
			<stop stop-color="#9fa0a3" stop-opacity="1" offset="100%"/>
		</linearGradient>
		<linearGradient id="gradient70" x1="49.7251%" y1="88.0194%" x2="49.7251%" y2="12.0299%">
			<stop stop-color="#9fa0a3" stop-opacity="1" offset="0%"/>
			<stop stop-color="#d1d2d3" stop-opacity="1" offset="100%"/>
		</linearGradient>
		<linearGradient id="gradient71" x1="49.8878%" y1="0.0494%" x2="49.8878%" y2="107.3384%">
			<stop stop-color="#f2f3f4" stop-opacity="1" offset="0%"/>
			<stop stop-color="#aaadb0" stop-opacity="1" offset="100%"/>
		</linearGradient>
		<linearGradient id="gradient72" x1="49.3606%" y1="100.2736%" x2="49.3606%" y2="-0.1924%">
			<stop stop-color="#4d4d4d" stop-opacity="1" offset="0%"/>
			<stop stop-color="#3c3a3a" stop-opacity="1" offset="100%"/>
		</linearGradient>
		<linearGradient id="gradient73" x1="50.39%" y1="-0.2104%" x2="50.39%" y2="105.805%">
			<stop stop-color="#ffffff" stop-opacity="1" offset="0%"/>
			<stop stop-color="#4d4d4d" stop-opacity="1" offset="100%"/>
		</linearGradient>
		<radialGradient id="gradient74" cx="50.8461%" cy="51.6689%" r="49.21%">
			<stop stop-color="#4d4d4d" stop-opacity="1" offset="0%"/>
			<stop stop-color="#4d4d4d" stop-opacity="1" offset="58.82%"/>
			<stop stop-color="#989b9e" stop-opacity="1" offset="70.98%"/>
			<stop stop-color="#989b9e" stop-opacity="1" offset="100%"/>
		</radialGradient>
		<radialGradient id="gradient75" cx="50.8461%" cy="51.6689%" r="29.5231%">
			<stop stop-color="#3c3a3a" stop-opacity="1" offset="0%"/>
			<stop stop-color="#4d4d4d" stop-opacity="1" offset="100%"/>
		</radialGradient>
		<radialGradient id="gradient76" cx="50.8461%" cy="48.9315%" r="49.1249%">
			<stop stop-color="#4d4d4d" stop-opacity="1" offset="0%"/>
			<stop stop-color="#4d4d4d" stop-opacity="1" offset="58.82%"/>
			<stop stop-color="#989b9e" stop-opacity="1" offset="70.98%"/>
			<stop stop-color="#989b9e" stop-opacity="1" offset="100%"/>
		</radialGradient>
		<radialGradient id="gradient77" cx="50.8461%" cy="48.9315%" r="29.4807%">
			<stop stop-color="#3c3a3a" stop-opacity="1" offset="0%"/>
			<stop stop-color="#4d4d4d" stop-opacity="1" offset="100%"/>
		</radialGradient>
		<radialGradient id="gradient78" cx="50.4528%" cy="49.148%" r="53.9082%">
			<stop stop-color="#4d4d4d" stop-opacity="1" offset="0%"/>
			<stop stop-color="#4d4d4d" stop-opacity="1" offset="54.12%"/>
			<stop stop-color="#989b9e" stop-opacity="1" offset="65.1%"/>
			<stop stop-color="#989b9e" stop-opacity="1" offset="100%"/>
		</radialGradient>
		<radialGradient id="gradient79" cx="50.4528%" cy="49.148%" r="29.1092%">
			<stop stop-color="#3c3a3a" stop-opacity="1" offset="0%"/>
			<stop stop-color="#4d4d4d" stop-opacity="1" offset="100%"/>
		</radialGradient>
		<radialGradient id="gradient80" cx="51.0962%" cy="48.68%" r="53.9581%">
			<stop stop-color="#4d4d4d" stop-opacity="1" offset="0%"/>
			<stop stop-color="#4d4d4d" stop-opacity="1" offset="54.12%"/>
			<stop stop-color="#989b9e" stop-opacity="1" offset="65.1%"/>
			<stop stop-color="#989b9e" stop-opacity="1" offset="100%"/>
		</radialGradient>
		<radialGradient id="gradient81" cx="51.0962%" cy="48.68%" r="29.1405%">
			<stop stop-color="#3c3a3a" stop-opacity="1" offset="0%"/>
			<stop stop-color="#4d4d4d" stop-opacity="1" offset="100%"/>
		</radialGradient>
		<radialGradient id="gradient82" cx="47.1626%" cy="50.3185%" r="49.1531%">
			<stop stop-color="#4d4d4d" stop-opacity="1" offset="0%"/>
			<stop stop-color="#4d4d4d" stop-opacity="1" offset="58.82%"/>
			<stop stop-color="#989b9e" stop-opacity="1" offset="70.98%"/>
			<stop stop-color="#989b9e" stop-opacity="1" offset="100%"/>
		</radialGradient>
		<radialGradient id="gradient83" cx="47.1626%" cy="50.3185%" r="29.4945%">
			<stop stop-color="#3c3a3a" stop-opacity="1" offset="0%"/>
			<stop stop-color="#4d4d4d" stop-opacity="1" offset="100%"/>
		</radialGradient>
		<radialGradient id="gradient84" cx="49.3868%" cy="50.3906%" r="49.1814%">
			<stop stop-color="#4d4d4d" stop-opacity="1" offset="0%"/>
			<stop stop-color="#4d4d4d" stop-opacity="1" offset="58.82%"/>
			<stop stop-color="#989b9e" stop-opacity="1" offset="70.98%"/>
			<stop stop-color="#989b9e" stop-opacity="1" offset="100%"/>
		</radialGradient>
		<radialGradient id="gradient85" cx="49.3868%" cy="50.3906%" r="29.5086%">
			<stop stop-color="#3c3a3a" stop-opacity="1" offset="0%"/>
			<stop stop-color="#4d4d4d" stop-opacity="1" offset="100%"/>
		</radialGradient>
		<radialGradient id="gradient86" cx="48.5225%" cy="51.6836%" r="53.9495%">
			<stop stop-color="#4d4d4d" stop-opacity="1" offset="0%"/>
			<stop stop-color="#4d4d4d" stop-opacity="1" offset="52.94%"/>
			<stop stop-color="#989b9e" stop-opacity="1" offset="63.92%"/>
			<stop stop-color="#989b9e" stop-opacity="1" offset="100%"/>
		</radialGradient>
		<radialGradient id="gradient87" cx="48.5225%" cy="51.6836%" r="29.1373%">
			<stop stop-color="#3c3a3a" stop-opacity="1" offset="0%"/>
			<stop stop-color="#4d4d4d" stop-opacity="1" offset="100%"/>
		</radialGradient>
		<radialGradient id="gradient88" cx="50.313%" cy="51.0769%" r="53.9158%">
			<stop stop-color="#4d4d4d" stop-opacity="1" offset="0%"/>
			<stop stop-color="#4d4d4d" stop-opacity="1" offset="52.94%"/>
			<stop stop-color="#989b9e" stop-opacity="1" offset="63.92%"/>
			<stop stop-color="#989b9e" stop-opacity="1" offset="100%"/>
		</radialGradient>
		<radialGradient id="gradient89" cx="50.313%" cy="51.0769%" r="29.1178%">
			<stop stop-color="#3c3a3a" stop-opacity="1" offset="0%"/>
			<stop stop-color="#4d4d4d" stop-opacity="1" offset="100%"/>
		</radialGradient>
		<linearGradient id="gradient90" x1="50.1603%" y1="34.8772%" x2="50.1603%" y2="61.8212%">
			<stop stop-color="#ffffff" stop-opacity="1" offset="0%"/>
			<stop stop-color="#d2d3da" stop-opacity="1" offset="100%"/>
		</linearGradient>
		<linearGradient id="gradient91" x1="50.1603%" y1="8.9699%" x2="50.1603%" y2="87.7264%">
			<stop stop-color="#d2d3da" stop-opacity="1" offset="0%"/>
			<stop stop-color="#f2f3f4" stop-opacity="1" offset="100%"/>
		</linearGradient>
		<linearGradient id="gradient92" x1="46.0588%" y1="-9.9606%" x2="56.7655%" y2="125.1582%">
			<stop stop-color="#ffffff" stop-opacity="1" offset="0%"/>
			<stop stop-color="#e1e2e3" stop-opacity="1" offset="100%"/>
		</linearGradient>
		<linearGradient id="gradient93" x1="50.0328%" y1="55.0779%" x2="50.0328%" y2="45.0503%">
			<stop stop-color="#fdbf2d" stop-opacity="1" offset="0%"/>
			<stop stop-color="#fcdd5d" stop-opacity="1" offset="100%"/>
		</linearGradient>
		<linearGradient id="gradient94" x1="50.0328%" y1="58.0853%" x2="50.0328%" y2="42.0429%">
			<stop stop-color="#fcdd5d" stop-opacity="1" offset="0%"/>
			<stop stop-color="#fcd954" stop-opacity="1" offset="100%"/>
		</linearGradient>
		<linearGradient id="gradient95" x1="50.0328%" y1="61.093%" x2="50.0328%" y2="39.0351%">
			<stop stop-color="#fcd954" stop-opacity="1" offset="0%"/>
			<stop stop-color="#fdbf2d" stop-opacity="1" offset="100%"/>
		</linearGradient>
		<linearGradient id="gradient96" x1="50.0328%" y1="78.1406%" x2="50.0328%" y2="21.9948%">
			<stop stop-color="#fdbf2d" stop-opacity="1" offset="0%"/>
			<stop stop-color="#ffcd2a" stop-opacity="1" offset="100%"/>
		</linearGradient>
		<linearGradient id="gradient97" x1="50.4623%" y1="37.0987%" x2="50.4623%" y2="63.0821%">
			<stop stop-color="#ffffff" stop-opacity="1" offset="0%"/>
			<stop stop-color="#d2d3da" stop-opacity="1" offset="100%"/>
		</linearGradient>
		<linearGradient id="gradient98" x1="50.4623%" y1="12.1153%" x2="50.4623%" y2="88.0655%">
			<stop stop-color="#d2d3da" stop-opacity="1" offset="0%"/>
			<stop stop-color="#f2f3f4" stop-opacity="1" offset="100%"/>
		</linearGradient>
		<linearGradient id="gradient99" x1="49.8931%" y1="-1.3438%" x2="49.8931%" y2="100.3961%">
			<stop stop-color="#4d4d4d" stop-opacity="1" offset="0%"/>
			<stop stop-color="#3c3a3a" stop-opacity="1" offset="100%"/>
		</linearGradient>
		<linearGradient id="gradient100" x1="49.3069%" y1="98.5254%" x2="49.3069%" y2="4.9494%">
			<stop stop-color="#4d4d4d" stop-opacity="1" offset="0%"/>
			<stop stop-color="#9da1a2" stop-opacity="1" offset="100%"/>
		</linearGradient>
		<linearGradient id="gradient101" x1="49.3069%" y1="57.9815%" x2="49.3069%" y2="45.519%">
			<stop stop-color="#9da1a2" stop-opacity="1" offset="0%"/>
			<stop stop-color="#676565" stop-opacity="1" offset="100%"/>
		</linearGradient>
		<linearGradient id="gradient102" x1="34.6023%" y1="49.7954%" x2="60.487%" y2="49.7954%">
			<stop stop-color="#ffffff" stop-opacity="1" offset="0%"/>
			<stop stop-color="#d2d3da" stop-opacity="1" offset="100%"/>
		</linearGradient>
		<linearGradient id="gradient103" x1="9.7176%" y1="49.7954%" x2="85.3722%" y2="49.7954%">
			<stop stop-color="#d2d3da" stop-opacity="1" offset="0%"/>
			<stop stop-color="#f2f3f4" stop-opacity="1" offset="100%"/>
		</linearGradient>
		<linearGradient id="gradient104" x1="49.9948%" y1="0.0367%" x2="49.9948%" y2="99.9741%">
			<stop stop-color="#df6e37" stop-opacity="1" offset="0%"/>
			<stop stop-color="#fdbf2d" stop-opacity="1" offset="100%"/>
		</linearGradient>
	</defs>
	<g id="Layer%201">
		<g id="basculanta">
			<path id="st0" d="M 208.6 117.4 C 208.6 119.3 206.7 120.9 204.4 120.9 L 51.1 120.9 C 48.8 120.9 46.9 119.3 46.9 117.4 L 46.9 94.8 C 46.9 92.9 48.8 91.3 51.1 91.3 L 204.3 91.3 C 206.6 91.3 208.5 92.9 208.5 94.8 L 208.5 117.4 L 208.6 117.4 Z" fill="url(#gradient1)"/>
			<path id="st1" d="M 208.6 117.4 C 208.6 119.3 206.7 120.9 204.4 120.9 L 51.1 120.9 C 48.8 120.9 46.9 119.3 46.9 117.4 L 46.9 94.8 C 46.9 92.9 48.8 91.3 51.1 91.3 L 204.3 91.3 C 206.6 91.3 208.5 92.9 208.5 94.8 L 208.5 117.4 L 208.6 117.4 Z" fill="url(#gradient2)"/>
			<path id="st2" d="M 113 122.3 C 113 123 112.6 123.5 112 123.5 L 88.1 123.5 C 87.6 123.5 87.1 122.9 87.1 122.3 L 87.1 107.3 C 87.1 106.6 87.5 106.1 88.1 106.1 L 112 106.1 C 112.5 106.1 113 106.7 113 107.3 L 113 122.3 L 113 122.3 Z" fill="url(#gradient3)"/>
			<path id="st3" d="M 113 122.3 C 113 123 112.6 123.5 112 123.5 L 88.1 123.5 C 87.6 123.5 87.1 122.9 87.1 122.3 L 87.1 107.3 C 87.1 106.6 87.5 106.1 88.1 106.1 L 112 106.1 C 112.5 106.1 113 106.7 113 107.3 L 113 122.3 L 113 122.3 Z" fill="url(#gradient4)"/>
			<path id="st4" d="M 113 122.3 C 113 123 112.6 123.5 112 123.5 L 88.1 123.5 C 87.6 123.5 87.1 122.9 87.1 122.3 L 87.1 107.3 C 87.1 106.6 87.5 106.1 88.1 106.1 L 112 106.1 C 112.5 106.1 113 106.7 113 107.3 L 113 122.3 L 113 122.3 Z" fill="url(#gradient5)"/>
			<path id="st5" d="M 113 122.3 C 113 123 112.6 123.5 112 123.5 L 88.1 123.5 C 87.6 123.5 87.1 122.9 87.1 122.3 L 87.1 107.3 C 87.1 106.6 87.5 106.1 88.1 106.1 L 112 106.1 C 112.5 106.1 113 106.7 113 107.3 L 113 122.3 L 113 122.3 Z" fill="url(#gradient6)"/>
			<path id="st6" d="M 95.9 123.5 L 96.2 123.5 L 96.2 106.1 L 95.9 106.1 L 95.9 123.5 Z" fill="#b3b3b3"/>
			<path id="st7" d="M 95.6 123.5 L 96 123.5 L 96 106.1 L 95.6 106.1 L 95.6 123.5 Z" fill="#404040"/>
			<path id="st62" d="M 105.3 123.5 L 105.6 123.5 L 105.6 106.1 L 105.3 106.1 L 105.3 123.5 Z" fill="#b3b3b3"/>
			<path id="st72" d="M 105.1 123.5 L 105.5 123.5 L 105.5 106.1 L 105.1 106.1 L 105.1 123.5 Z" fill="#404040"/>
			<path id="st8" d="M 120.7 120.8 C 120.7 108.3 129.8 98.1 141.1 98.1 C 152.4 98.1 161.5 108.3 161.5 120.8 L 120.7 120.8 L 120.7 120.8 Z" fill="url(#gradient7)"/>
			<path id="st9" d="M 157.2 117.6 C 157.2 126.5 150 133.7 141.1 133.7 C 132.2 133.7 125 126.5 125 117.6 C 125 108.7 132.2 101.5 141.1 101.5 C 150 101.5 157.2 108.7 157.2 117.6 L 157.2 117.6 Z" fill="url(#gradient8)"/>
			<path id="st10" d="M 157.2 117.6 C 157.2 126.5 150 133.7 141.1 133.7 C 132.2 133.7 125 126.5 125 117.6 C 125 108.7 132.2 101.5 141.1 101.5 C 150 101.5 157.2 108.7 157.2 117.6 L 157.2 117.6 Z" fill="url(#gradient9)"/>
			<path id="st11" d="M 140.9 102.9 C 149.1 102.9 155.8 109.5 156.1 117.7 C 156.1 117.6 156.1 117.4 156.1 117.3 C 156.1 108.9 149.3 102.1 140.9 102.1 C 132.5 102.1 125.7 108.9 125.7 117.3 C 125.7 117.4 125.7 117.6 125.7 117.7 C 126 109.4 132.6 102.9 140.9 102.9 L 140.9 102.9 Z" fill="url(#gradient10)"/>
			<path id="st12" d="M 140.9 102.9 C 149.1 102.9 155.8 109.5 156.1 117.7 C 156.1 117.6 156.1 117.4 156.1 117.3 C 156.1 108.9 149.3 102.1 140.9 102.1 C 132.5 102.1 125.7 108.9 125.7 117.3 C 125.7 117.4 125.7 117.6 125.7 117.7 C 126 109.4 132.6 102.9 140.9 102.9 L 140.9 102.9 Z" fill="url(#gradient11)"/>
			<path id="st13" d="M 151.2 117.6 C 151.2 123.1 146.7 127.6 141.2 127.6 C 135.7 127.6 131.2 123.1 131.2 117.6 C 131.2 112.1 135.7 107.6 141.2 107.6 C 146.7 107.6 151.2 112 151.2 117.6 L 151.2 117.6 Z" fill="url(#gradient12)"/>
			<path id="st14" d="M 151.2 117.6 C 151.2 123.1 146.7 127.6 141.2 127.6 C 135.7 127.6 131.2 123.1 131.2 117.6 C 131.2 112.1 135.7 107.6 141.2 107.6 C 146.7 107.6 151.2 112 151.2 117.6 L 151.2 117.6 Z" fill="url(#gradient13)"/>
			<path id="st15" d="M 141.2 107.6 C 137.5 107.6 134.3 109.6 132.6 112.6 C 136.2 116.5 142.4 121 151 120 C 151.2 119.2 151.3 118.4 151.3 117.6 C 151.2 112 146.8 107.6 141.2 107.6 L 141.2 107.6 Z" fill="url(#gradient14)"/>
			<path id="st16" d="M 145.8 118 C 145.8 120.6 143.7 122.7 141.1 122.7 C 138.5 122.7 136.4 120.6 136.4 118 C 136.4 115.4 138.5 113.3 141.1 113.3 C 143.7 113.3 145.8 115.4 145.8 118 L 145.8 118 Z" fill="#353635"/>
			<path id="st17" d="M 145.5 117.6 C 145.5 120 143.6 121.9 141.2 121.9 C 138.8 121.9 136.9 120 136.9 117.6 C 136.9 115.2 138.8 113.3 141.2 113.3 C 143.6 113.3 145.5 115.2 145.5 117.6 L 145.5 117.6 Z" fill="url(#gradient15)"/>
			<path id="st18" d="M 141.2 113.3 C 139.6 113.3 138.2 114.2 137.5 115.5 C 139.1 117.2 141.7 119.2 145.4 118.7 C 145.5 118.3 145.5 118 145.5 117.6 C 145.5 115.2 143.6 113.3 141.2 113.3 L 141.2 113.3 Z" fill="url(#gradient16)"/>
			<path id="st19" d="M 142.2 125.2 C 142.2 125.8 141.8 126.2 141.2 126.2 C 140.6 126.2 140.2 125.8 140.2 125.2 C 140.2 124.6 140.6 124.2 141.2 124.2 C 141.8 124.2 142.2 124.6 142.2 125.2 L 142.2 125.2 Z" fill="url(#gradient17)"/>
			<path id="st20" d="M 142.2 125.2 C 142.2 125.8 141.8 126.2 141.2 126.2 C 140.6 126.2 140.2 125.8 140.2 125.2 C 140.2 124.6 140.6 124.2 141.2 124.2 C 141.8 124.2 142.2 124.6 142.2 125.2 L 142.2 125.2 Z" fill="url(#gradient18)"/>
			<path id="st21" d="M 142.2 110 C 142.2 110.5 141.8 111 141.2 111 C 140.6 111 140.2 110.6 140.2 110 C 140.2 109.4 140.6 109 141.2 109 C 141.8 109 142.2 109.4 142.2 110 L 142.2 110 Z" fill="url(#gradient19)"/>
			<path id="st22" d="M 142.2 110 C 142.2 110.5 141.8 111 141.2 111 C 140.6 111 140.2 110.6 140.2 110 C 140.2 109.4 140.6 109 141.2 109 C 141.8 109 142.2 109.4 142.2 110 L 142.2 110 Z" fill="url(#gradient20)"/>
			<path id="st23" d="M 147.3 122.3 C 147.7 122.7 147.7 123.3 147.3 123.7 C 146.9 124.1 146.3 124.1 145.9 123.7 C 145.5 123.3 145.5 122.7 145.9 122.3 C 146.3 121.9 146.9 122 147.3 122.3 L 147.3 122.3 Z" fill="url(#gradient21)"/>
			<path id="st24" d="M 147.3 122.3 C 147.7 122.7 147.7 123.3 147.3 123.7 C 146.9 124.1 146.3 124.1 145.9 123.7 C 145.5 123.3 145.5 122.7 145.9 122.3 C 146.3 121.9 146.9 122 147.3 122.3 L 147.3 122.3 Z" fill="url(#gradient22)"/>
			<path id="st25" d="M 136.5 111.5 C 136.9 111.9 136.9 112.5 136.5 112.9 C 136.1 113.3 135.5 113.3 135.1 112.9 C 134.7 112.5 134.7 111.9 135.1 111.5 C 135.5 111.2 136.2 111.2 136.5 111.5 L 136.5 111.5 Z" fill="url(#gradient23)"/>
			<path id="st26" d="M 136.5 111.5 C 136.9 111.9 136.9 112.5 136.5 112.9 C 136.1 113.3 135.5 113.3 135.1 112.9 C 134.7 112.5 134.7 111.9 135.1 111.5 C 135.5 111.2 136.2 111.2 136.5 111.5 L 136.5 111.5 Z" fill="url(#gradient24)"/>
			<path id="st27" d="M 148.8 116.6 C 149.4 116.6 149.8 117 149.8 117.6 C 149.8 118.2 149.4 118.6 148.8 118.6 C 148.2 118.6 147.8 118.2 147.8 117.6 C 147.8 117.1 148.3 116.6 148.8 116.6 L 148.8 116.6 Z" fill="url(#gradient25)"/>
			<path id="st28" d="M 148.8 116.6 C 149.4 116.6 149.8 117 149.8 117.6 C 149.8 118.2 149.4 118.6 148.8 118.6 C 148.2 118.6 147.8 118.2 147.8 117.6 C 147.8 117.1 148.3 116.6 148.8 116.6 L 148.8 116.6 Z" fill="url(#gradient26)"/>
			<path id="st29" d="M 133.6 116.6 C 134.2 116.6 134.6 117 134.6 117.6 C 134.6 118.2 134.2 118.6 133.6 118.6 C 133 118.6 132.6 118.2 132.6 117.6 C 132.6 117.1 133 116.6 133.6 116.6 L 133.6 116.6 Z" fill="url(#gradient27)"/>
			<path id="st30" d="M 133.6 116.6 C 134.2 116.6 134.6 117 134.6 117.6 C 134.6 118.2 134.2 118.6 133.6 118.6 C 133 118.6 132.6 118.2 132.6 117.6 C 132.6 117.1 133 116.6 133.6 116.6 L 133.6 116.6 Z" fill="url(#gradient28)"/>
			<path id="st31" d="M 145.9 111.5 C 146.3 111.1 146.9 111.1 147.3 111.5 C 147.7 111.9 147.7 112.5 147.3 112.9 C 146.9 113.3 146.3 113.3 145.9 112.9 C 145.5 112.5 145.5 111.9 145.9 111.5 L 145.9 111.5 Z" fill="url(#gradient29)"/>
			<path id="st32" d="M 145.9 111.5 C 146.3 111.1 146.9 111.1 147.3 111.5 C 147.7 111.9 147.7 112.5 147.3 112.9 C 146.9 113.3 146.3 113.3 145.9 112.9 C 145.5 112.5 145.5 111.9 145.9 111.5 L 145.9 111.5 Z" fill="url(#gradient30)"/>
			<path id="st33" d="M 135.1 122.3 C 135.5 121.9 136.1 121.9 136.5 122.3 C 136.9 122.7 136.9 123.3 136.5 123.7 C 136.1 124.1 135.5 124.1 135.1 123.7 C 134.7 123.3 134.7 122.7 135.1 122.3 L 135.1 122.3 Z" fill="url(#gradient31)"/>
			<path id="st34" d="M 135.1 122.3 C 135.5 121.9 136.1 121.9 136.5 122.3 C 136.9 122.7 136.9 123.3 136.5 123.7 C 136.1 124.1 135.5 124.1 135.1 123.7 C 134.7 123.3 134.7 122.7 135.1 122.3 L 135.1 122.3 Z" fill="url(#gradient32)"/>
			<path id="st35" d="M 162.3 120.8 C 162.3 108.3 171.4 98.1 182.7 98.1 C 194 98.1 203.1 108.3 203.1 120.8 L 162.3 120.8 L 162.3 120.8 Z" fill="url(#gradient33)"/>
			<path id="st36" d="M 198.8 117.6 C 198.8 126.5 191.6 133.7 182.7 133.7 C 173.8 133.7 166.6 126.5 166.6 117.6 C 166.6 108.7 173.8 101.5 182.7 101.5 C 191.6 101.5 198.8 108.7 198.8 117.6 L 198.8 117.6 Z" fill="url(#gradient34)"/>
			<path id="st37" d="M 198.8 117.6 C 198.8 126.5 191.6 133.7 182.7 133.7 C 173.8 133.7 166.6 126.5 166.6 117.6 C 166.6 108.7 173.8 101.5 182.7 101.5 C 191.6 101.5 198.8 108.7 198.8 117.6 L 198.8 117.6 Z" fill="url(#gradient35)"/>
			<path id="st38" d="M 182.5 102.9 C 190.7 102.9 197.4 109.5 197.7 117.7 C 197.7 117.6 197.7 117.4 197.7 117.3 C 197.7 108.9 190.9 102.1 182.5 102.1 C 174.1 102.1 167.3 108.9 167.3 117.3 C 167.3 117.4 167.3 117.6 167.3 117.7 C 167.6 109.4 174.3 102.9 182.5 102.9 L 182.5 102.9 Z" fill="url(#gradient36)"/>
			<path id="st39" d="M 182.5 102.9 C 190.7 102.9 197.4 109.5 197.7 117.7 C 197.7 117.6 197.7 117.4 197.7 117.3 C 197.7 108.9 190.9 102.1 182.5 102.1 C 174.1 102.1 167.3 108.9 167.3 117.3 C 167.3 117.4 167.3 117.6 167.3 117.7 C 167.6 109.4 174.3 102.9 182.5 102.9 L 182.5 102.9 Z" fill="url(#gradient37)"/>
			<path id="st40" d="M 192.8 117.6 C 192.8 123.1 188.3 127.6 182.8 127.6 C 177.3 127.6 172.8 123.1 172.8 117.6 C 172.8 112.1 177.3 107.6 182.8 107.6 C 188.4 107.6 192.8 112 192.8 117.6 L 192.8 117.6 Z" fill="url(#gradient38)"/>
			<path id="st41" d="M 192.8 117.6 C 192.8 123.1 188.3 127.6 182.8 127.6 C 177.3 127.6 172.8 123.1 172.8 117.6 C 172.8 112.1 177.3 107.6 182.8 107.6 C 188.4 107.6 192.8 112 192.8 117.6 L 192.8 117.6 Z" fill="url(#gradient39)"/>
			<path id="st42" d="M 182.8 107.6 C 179.1 107.6 175.9 109.6 174.2 112.6 C 177.8 116.5 184 121 192.6 120 C 192.8 119.2 192.9 118.4 192.9 117.6 C 192.8 112 188.4 107.6 182.8 107.6 L 182.8 107.6 Z" fill="url(#gradient40)"/>
			<path id="st162" d="M 187.4 118 C 187.4 120.6 185.3 122.7 182.7 122.7 C 180.1 122.7 178 120.6 178 118 C 178 115.4 180.1 113.3 182.7 113.3 C 185.3 113.3 187.4 115.4 187.4 118 L 187.4 118 Z" fill="#353635"/>
			<path id="st43" d="M 187.2 117.6 C 187.2 120 185.3 121.9 182.9 121.9 C 180.5 121.9 178.6 120 178.6 117.6 C 178.6 115.2 180.5 113.3 182.9 113.3 C 185.2 113.3 187.2 115.2 187.2 117.6 L 187.2 117.6 Z" fill="url(#gradient41)"/>
			<path id="st44" d="M 182.8 113.3 C 181.2 113.3 179.8 114.2 179.1 115.5 C 180.7 117.2 183.3 119.2 187 118.7 C 187.1 118.3 187.1 118 187.1 117.6 C 187.2 115.2 185.2 113.3 182.8 113.3 L 182.8 113.3 Z" fill="url(#gradient42)"/>
			<path id="st45" d="M 183.8 125.2 C 183.8 125.8 183.4 126.2 182.8 126.2 C 182.2 126.2 181.8 125.8 181.8 125.2 C 181.8 124.6 182.2 124.2 182.8 124.2 C 183.4 124.2 183.8 124.6 183.8 125.2 L 183.8 125.2 Z" fill="url(#gradient43)"/>
			<path id="st46" d="M 183.8 125.2 C 183.8 125.8 183.4 126.2 182.8 126.2 C 182.2 126.2 181.8 125.8 181.8 125.2 C 181.8 124.6 182.2 124.2 182.8 124.2 C 183.4 124.2 183.8 124.6 183.8 125.2 L 183.8 125.2 Z" fill="url(#gradient44)"/>
			<path id="st47" d="M 183.8 110 C 183.8 110.5 183.4 111 182.8 111 C 182.2 111 181.8 110.6 181.8 110 C 181.8 109.4 182.2 109 182.8 109 C 183.4 109 183.8 109.4 183.8 110 L 183.8 110 Z" fill="url(#gradient45)"/>
			<path id="st48" d="M 183.8 110 C 183.8 110.5 183.4 111 182.8 111 C 182.2 111 181.8 110.6 181.8 110 C 181.8 109.4 182.2 109 182.8 109 C 183.4 109 183.8 109.4 183.8 110 L 183.8 110 Z" fill="url(#gradient46)"/>
			<path id="st49" d="M 188.9 122.3 C 189.3 122.7 189.3 123.3 188.9 123.7 C 188.5 124.1 187.9 124.1 187.5 123.7 C 187.1 123.3 187.1 122.7 187.5 122.3 C 187.9 121.9 188.5 122 188.9 122.3 L 188.9 122.3 Z" fill="url(#gradient47)"/>
			<path id="st50" d="M 188.9 122.3 C 189.3 122.7 189.3 123.3 188.9 123.7 C 188.5 124.1 187.9 124.1 187.5 123.7 C 187.1 123.3 187.1 122.7 187.5 122.3 C 187.9 121.9 188.5 122 188.9 122.3 L 188.9 122.3 Z" fill="url(#gradient48)"/>
			<path id="st51" d="M 178.1 111.5 C 178.5 111.9 178.5 112.5 178.1 112.9 C 177.7 113.3 177.1 113.3 176.7 112.9 C 176.3 112.5 176.3 111.9 176.7 111.5 C 177.1 111.2 177.7 111.2 178.1 111.5 L 178.1 111.5 Z" fill="url(#gradient49)"/>
			<path id="st52" d="M 178.1 111.5 C 178.5 111.9 178.5 112.5 178.1 112.9 C 177.7 113.3 177.1 113.3 176.7 112.9 C 176.3 112.5 176.3 111.9 176.7 111.5 C 177.1 111.2 177.7 111.2 178.1 111.5 L 178.1 111.5 Z" fill="url(#gradient50)"/>
			<path id="st53" d="M 190.5 116.6 C 191.1 116.6 191.5 117 191.5 117.6 C 191.5 118.2 191.1 118.6 190.5 118.6 C 189.9 118.6 189.5 118.2 189.5 117.6 C 189.5 117.1 189.9 116.6 190.5 116.6 L 190.5 116.6 Z" fill="url(#gradient51)"/>
			<path id="st54" d="M 190.5 116.6 C 191.1 116.6 191.5 117 191.5 117.6 C 191.5 118.2 191.1 118.6 190.5 118.6 C 189.9 118.6 189.5 118.2 189.5 117.6 C 189.5 117.1 189.9 116.6 190.5 116.6 L 190.5 116.6 Z" fill="url(#gradient52)"/>
			<path id="st55" d="M 175.2 116.6 C 175.8 116.6 176.2 117 176.2 117.6 C 176.2 118.2 175.8 118.6 175.2 118.6 C 174.6 118.6 174.2 118.2 174.2 117.6 C 174.2 117.1 174.6 116.6 175.2 116.6 L 175.2 116.6 Z" fill="url(#gradient53)"/>
			<path id="st56" d="M 175.2 116.6 C 175.8 116.6 176.2 117 176.2 117.6 C 176.2 118.2 175.8 118.6 175.2 118.6 C 174.6 118.6 174.2 118.2 174.2 117.6 C 174.2 117.1 174.6 116.6 175.2 116.6 L 175.2 116.6 Z" fill="url(#gradient54)"/>
			<path id="st57" d="M 187.5 111.5 C 187.9 111.1 188.5 111.1 188.9 111.5 C 189.3 111.9 189.3 112.5 188.9 112.9 C 188.5 113.3 187.9 113.3 187.5 112.9 C 187.2 112.5 187.2 111.9 187.5 111.5 L 187.5 111.5 Z" fill="url(#gradient55)"/>
			<path id="st58" d="M 187.5 111.5 C 187.9 111.1 188.5 111.1 188.9 111.5 C 189.3 111.9 189.3 112.5 188.9 112.9 C 188.5 113.3 187.9 113.3 187.5 112.9 C 187.2 112.5 187.2 111.9 187.5 111.5 L 187.5 111.5 Z" fill="url(#gradient56)"/>
			<path id="st59" d="M 176.7 122.3 C 177.1 121.9 177.7 121.9 178.1 122.3 C 178.5 122.7 178.5 123.3 178.1 123.7 C 177.7 124.1 177.1 124.1 176.7 123.7 C 176.4 123.3 176.4 122.7 176.7 122.3 L 176.7 122.3 Z" fill="url(#gradient57)"/>
			<path id="st60" d="M 176.7 122.3 C 177.1 121.9 177.7 121.9 178.1 122.3 C 178.5 122.7 178.5 123.3 178.1 123.7 C 177.7 124.1 177.1 124.1 176.7 123.7 C 176.4 123.3 176.4 122.7 176.7 122.3 L 176.7 122.3 Z" fill="url(#gradient58)"/>
			<path id="st61" d="M 26 118.3 C 28.4 120.5 53.6 119.2 53.6 119.2 C 55.9 110.6 62.7 104.3 70.7 104.2 L 70.8 104.1 C 77.9 104 86.7 104.7 86.6 104.1 C 86.5 103.5 86.4 27.7 86.4 27.7 C 86.4 27.7 51.4 26.6 46.7 30 C 42 33.4 25.9 46.2 25.4 79.9 " fill="url(#gradient59)"/>
			<path id="st62" d="M 26 118.3 C 28.4 120.5 53.6 119.2 53.6 119.2 C 55.9 110.6 62.7 104.3 70.7 104.2 L 70.8 104.1 C 77.9 104 86.7 104.7 86.6 104.1 C 86.5 103.5 86.4 27.7 86.4 27.7 C 86.4 27.7 51.4 26.6 46.7 30 C 42 33.4 25.9 46.2 25.4 79.9 " fill="url(#gradient60)"/>
			<path id="st63" d="M 85.3 29 C 85.3 29 51 27.9 46.3 31.2 C 45.9 31.5 45 32.2 45 32.1 C 50.6 28.1 84.5 29.6 84.5 29.6 C 84.5 29.6 84.4 94.3 84.5 103.4 C 85.1 103.4 85.4 103.3 85.4 103.2 C 85.5 102.6 85.3 29 85.3 29 L 85.3 29 L 85.3 29 Z" fill="url(#gradient61)"/>
			<path id="st64" d="M 80 104.5 L 79.6 104.5 L 79.6 33.1 L 80 33.1 L 80 104.5 Z" fill="#c67629"/>
			<path id="st65" d="M 45 107.1 C 49.8 97.5 59.7 91.9 69.3 94.1 C 71 94.5 72.5 95 73.8 95.8 C 73.9 95.9 74 95.9 74.1 95.9 C 72.4 94.9 70.5 94.1 68.5 93.7 C 57.5 91.2 46.3 98.4 43.3 109.7 L 43.7 109.8 C 44.1 108.9 44.6 108 45 107.1 L 45 107.1 L 45 107.1 Z" fill="url(#gradient62)"/>
			<path id="st66" d="M 45 107.1 C 49.8 97.5 59.7 91.9 69.3 94.1 C 71 94.5 72.5 95 73.8 95.8 C 73.9 95.9 74 95.9 74.1 95.9 C 72.4 94.9 70.5 94.1 68.5 93.7 C 57.5 91.2 46.3 98.4 43.3 109.7 L 43.7 109.8 C 44.1 108.9 44.6 108 45 107.1 L 45 107.1 L 45 107.1 Z" fill="url(#gradient63)"/>
			<path id="st67" d="M 45 120.9 C 45 107.6 54.1 96.7 65.4 96.7 C 76.7 96.7 85.8 107.5 85.8 120.9 L 45 120.9 L 45 120.9 Z" fill="url(#gradient64)"/>
			<path id="st68" d="M 81.5 117.6 C 81.5 126.5 74.3 133.7 65.4 133.7 C 56.5 133.7 49.3 126.5 49.3 117.6 C 49.3 108.7 56.5 101.5 65.4 101.5 C 74.3 101.5 81.5 108.7 81.5 117.6 L 81.5 117.6 Z" fill="url(#gradient65)"/>
			<path id="st69" d="M 81.5 117.6 C 81.5 126.5 74.3 133.7 65.4 133.7 C 56.5 133.7 49.3 126.5 49.3 117.6 C 49.3 108.7 56.5 101.5 65.4 101.5 C 74.3 101.5 81.5 108.7 81.5 117.6 L 81.5 117.6 Z" fill="url(#gradient66)"/>
			<path id="st70" d="M 65.3 102.9 C 73.5 102.9 80.2 109.5 80.5 117.7 C 80.5 117.6 80.5 117.4 80.5 117.3 C 80.5 108.9 73.7 102.1 65.3 102.1 C 56.9 102.1 50.1 108.9 50.1 117.3 C 50.1 117.4 50.1 117.6 50.1 117.7 C 50.3 109.4 57 102.9 65.3 102.9 L 65.3 102.9 Z" fill="url(#gradient67)"/>
			<path id="st71" d="M 65.3 102.9 C 73.5 102.9 80.2 109.5 80.5 117.7 C 80.5 117.6 80.5 117.4 80.5 117.3 C 80.5 108.9 73.7 102.1 65.3 102.1 C 56.9 102.1 50.1 108.9 50.1 117.3 C 50.1 117.4 50.1 117.6 50.1 117.7 C 50.3 109.4 57 102.9 65.3 102.9 L 65.3 102.9 Z" fill="url(#gradient68)"/>
			<path id="st72" d="M 75.6 117.6 C 75.6 123.1 71.1 127.6 65.6 127.6 C 60.1 127.6 55.6 123.1 55.6 117.6 C 55.6 112.1 60.1 107.6 65.6 107.6 C 71.1 107.6 75.6 112 75.6 117.6 L 75.6 117.6 Z" fill="url(#gradient69)"/>
			<path id="st73" d="M 75.6 117.6 C 75.6 123.1 71.1 127.6 65.6 127.6 C 60.1 127.6 55.6 123.1 55.6 117.6 C 55.6 112.1 60.1 107.6 65.6 107.6 C 71.1 107.6 75.6 112 75.6 117.6 L 75.6 117.6 Z" fill="url(#gradient70)"/>
			<path id="st74" d="M 65.5 107.6 C 61.8 107.6 58.6 109.6 56.9 112.6 C 60.5 116.5 66.7 121 75.3 120 C 75.5 119.2 75.6 118.4 75.6 117.6 C 75.6 112 71.1 107.6 65.5 107.6 L 65.5 107.6 Z" fill="url(#gradient71)"/>
			<path id="st163" d="M 70.2 118 C 70.2 120.6 68.1 122.7 65.5 122.7 C 62.9 122.7 60.8 120.6 60.8 118 C 60.8 115.4 62.9 113.3 65.5 113.3 C 68.1 113.3 70.2 115.4 70.2 118 L 70.2 118 Z" fill="#353635"/>
			<path id="st75" d="M 69.9 117.6 C 69.9 120 68 121.9 65.6 121.9 C 63.2 121.9 61.3 120 61.3 117.6 C 61.3 115.2 63.2 113.3 65.6 113.3 C 67.9 113.3 69.9 115.2 69.9 117.6 L 69.9 117.6 Z" fill="url(#gradient72)"/>
			<path id="st76" d="M 65.5 113.3 C 63.9 113.3 62.5 114.2 61.8 115.5 C 63.4 117.2 66 119.2 69.7 118.7 C 69.8 118.3 69.8 118 69.8 117.6 C 69.9 115.2 67.9 113.3 65.5 113.3 L 65.5 113.3 Z" fill="url(#gradient73)"/>
			<path id="st77" d="M 66.5 125.2 C 66.5 125.7 66.1 126.2 65.5 126.2 C 64.9 126.2 64.5 125.8 64.5 125.2 C 64.5 124.6 64.9 124.2 65.5 124.2 C 66.1 124.2 66.5 124.6 66.5 125.2 L 66.5 125.2 Z" fill="url(#gradient74)"/>
			<path id="st78" d="M 66.5 125.2 C 66.5 125.7 66.1 126.2 65.5 126.2 C 64.9 126.2 64.5 125.8 64.5 125.2 C 64.5 124.6 64.9 124.2 65.5 124.2 C 66.1 124.2 66.5 124.6 66.5 125.2 L 66.5 125.2 Z" fill="url(#gradient75)"/>
			<path id="st79" d="M 66.5 110 C 66.5 110.5 66.1 111 65.5 111 C 64.9 111 64.5 110.6 64.5 110 C 64.5 109.4 64.9 109 65.5 109 C 66.1 109 66.5 109.4 66.5 110 L 66.5 110 Z" fill="url(#gradient76)"/>
			<path id="st80" d="M 66.5 110 C 66.5 110.5 66.1 111 65.5 111 C 64.9 111 64.5 110.6 64.5 110 C 64.5 109.4 64.9 109 65.5 109 C 66.1 109 66.5 109.4 66.5 110 L 66.5 110 Z" fill="url(#gradient77)"/>
			<path id="st81" d="M 71.6 122.3 C 72 122.7 72 123.3 71.6 123.7 C 71.2 124.1 70.6 124.1 70.2 123.7 C 69.8 123.3 69.8 122.7 70.2 122.3 C 70.6 121.9 71.2 122 71.6 122.3 L 71.6 122.3 Z" fill="url(#gradient78)"/>
			<path id="st82" d="M 71.6 122.3 C 72 122.7 72 123.3 71.6 123.7 C 71.2 124.1 70.6 124.1 70.2 123.7 C 69.8 123.3 69.8 122.7 70.2 122.3 C 70.6 121.9 71.2 122 71.6 122.3 L 71.6 122.3 Z" fill="url(#gradient79)"/>
			<path id="st83" d="M 60.8 111.5 C 61.2 111.9 61.2 112.5 60.8 112.9 C 60.4 113.3 59.8 113.3 59.4 112.9 C 59 112.5 59 111.9 59.4 111.5 C 59.8 111.2 60.4 111.2 60.8 111.5 L 60.8 111.5 Z" fill="url(#gradient80)"/>
			<path id="st84" d="M 60.8 111.5 C 61.2 111.9 61.2 112.5 60.8 112.9 C 60.4 113.3 59.8 113.3 59.4 112.9 C 59 112.5 59 111.9 59.4 111.5 C 59.8 111.2 60.4 111.2 60.8 111.5 L 60.8 111.5 Z" fill="url(#gradient81)"/>
			<path id="st85" d="M 73.2 116.6 C 73.7 116.6 74.2 117 74.2 117.6 C 74.2 118.2 73.8 118.6 73.2 118.6 C 72.6 118.6 72.2 118.2 72.2 117.6 C 72.2 117.1 72.6 116.6 73.2 116.6 L 73.2 116.6 Z" fill="url(#gradient82)"/>
			<path id="st86" d="M 73.2 116.6 C 73.7 116.6 74.2 117 74.2 117.6 C 74.2 118.2 73.8 118.6 73.2 118.6 C 72.6 118.6 72.2 118.2 72.2 117.6 C 72.2 117.1 72.6 116.6 73.2 116.6 L 73.2 116.6 Z" fill="url(#gradient83)"/>
			<path id="st87" d="M 57.9 116.6 C 58.5 116.6 58.9 117 58.9 117.6 C 58.9 118.2 58.5 118.6 57.9 118.6 C 57.3 118.6 56.9 118.2 56.9 117.6 C 56.9 117.1 57.3 116.6 57.9 116.6 L 57.9 116.6 Z" fill="url(#gradient84)"/>
			<path id="st88" d="M 57.9 116.6 C 58.5 116.6 58.9 117 58.9 117.6 C 58.9 118.2 58.5 118.6 57.9 118.6 C 57.3 118.6 56.9 118.2 56.9 117.6 C 56.9 117.1 57.3 116.6 57.9 116.6 L 57.9 116.6 Z" fill="url(#gradient85)"/>
			<path id="st89" d="M 70.2 111.5 C 70.6 111.1 71.2 111.1 71.6 111.5 C 72 111.9 72 112.5 71.6 112.9 C 71.2 113.3 70.6 113.3 70.2 112.9 C 69.9 112.5 69.9 111.9 70.2 111.5 L 70.2 111.5 Z" fill="url(#gradient86)"/>
			<path id="st90" d="M 70.2 111.5 C 70.6 111.1 71.2 111.1 71.6 111.5 C 72 111.9 72 112.5 71.6 112.9 C 71.2 113.3 70.6 113.3 70.2 112.9 C 69.9 112.5 69.9 111.9 70.2 111.5 L 70.2 111.5 Z" fill="url(#gradient87)"/>
			<path id="st91" d="M 59.4 122.3 C 59.8 121.9 60.4 121.9 60.8 122.3 C 61.2 122.7 61.2 123.3 60.8 123.7 C 60.4 124.1 59.8 124.1 59.4 123.7 C 59.1 123.3 59.1 122.7 59.4 122.3 L 59.4 122.3 Z" fill="url(#gradient88)"/>
			<path id="st92" d="M 59.4 122.3 C 59.8 121.9 60.4 121.9 60.8 122.3 C 61.2 122.7 61.2 123.3 60.8 123.7 C 60.4 124.1 59.8 124.1 59.4 123.7 C 59.1 123.3 59.1 122.7 59.4 122.3 L 59.4 122.3 Z" fill="url(#gradient89)"/>
			<path id="st93" d="M 78.1 61.3 C 78.1 48.5 78 36.8 78 36.8 C 78 36.8 52.5 34.9 49.1 37.5 C 46 39.9 35.6 48.6 33.9 70.6 L 78.1 61.3 L 78.1 61.3 Z" fill="#fed600"/>
			<path id="st642" d="M 78 60.9 C 78 47.9 77.9 36 77.9 36 C 77.9 36 52.5 34.1 49 36.7 C 45.9 39.2 35.5 48 33.9 70.4 L 78 60.9 L 78 60.9 L 78 60.9 Z" fill="#c67629"/>
			<path id="st94" d="M 77.4 60.7 C 77.4 48 77.3 36.4 77.3 36.4 C 77.3 36.4 52.5 34.5 49.2 37.1 C 46.1 39.5 36 48.1 34.4 69.9 L 77.4 60.7 L 77.4 60.7 L 77.4 60.7 Z" fill="url(#gradient90)"/>
			<path id="st95" d="M 77.4 60.7 C 77.4 48 77.3 36.4 77.3 36.4 C 77.3 36.4 52.5 34.5 49.2 37.1 C 46.1 39.5 36 48.1 34.4 69.9 L 77.4 60.7 L 77.4 60.7 L 77.4 60.7 Z" fill="url(#gradient91)"/>
			<path id="st96" d="M 77.4 44.7 C 77.4 39.7 77.4 36.3 77.4 36.3 C 77.4 36.3 52.6 34.4 49.3 37 C 47.6 38.3 43.8 41.5 40.4 47.8 C 48.6 50.8 65.4 54.9 77.4 44.7 L 77.4 44.7 Z" fill="url(#gradient92)"/>
			<path id="st97" d="M 24.4 120.8 L 44.9 120.8 L 44.9 111.2 L 24.4 111.2 " fill="url(#gradient93)"/>
			<path id="st98" d="M 24.4 120.8 L 44.9 120.8 L 44.9 111.2 L 24.4 111.2 " fill="url(#gradient94)"/>
			<path id="st99" d="M 24.4 120.8 L 44.9 120.8 L 44.9 111.2 L 24.4 111.2 " fill="url(#gradient95)"/>
			<path id="st100" d="M 24.4 120.8 L 44.9 120.8 L 44.9 111.2 L 24.4 111.2 " fill="url(#gradient96)"/>
			<path id="st643" d="M 25.9 92.1 L 86.6 83 L 86.7 84 L 26 93 " fill="#c67629"/>
			<path id="st932" d="M 25.8 92.7 L 86.5 83.5 L 86.6 84 L 25.9 93.1 " fill="#fed600"/>
			<path id="st644" d="M 44.4 33.3 L 44.4 32.9 L 80 32.9 L 80 33.3 L 44.4 33.3 Z" fill="#c67629"/>
			<path id="st645" d="M 25.9 71.1 L 30.8 70.8 C 30.8 70.8 32.7 58.6 34.7 52.6 C 36.7 46.6 41.9 36.5 41.9 36.5 C 41.9 36.5 39.5 36.1 39.7 36.1 L 39.7 36.2 C 39.8 36.3 33.8 44.2 30.5 52 C 27.2 60 25.9 71.1 25.9 71.1 " fill="#c67629"/>
			<path id="st101" d="M 26 70.7 C 29.2 70.6 30.2 70.3 30.2 70.3 C 30.2 70.3 32.4 58.3 34.2 52.3 C 36.1 46.4 41.3 36.7 41.3 36.7 L 39.5 36.5 L 39.6 36.5 C 39.5 36.5 39.5 36.5 39.5 36.5 C 34.2 42.7 27.9 53.3 26 70.7 " fill="url(#gradient97)"/>
			<path id="st102" d="M 26 70.7 C 29.2 70.6 30.2 70.3 30.2 70.3 C 30.2 70.3 32.4 58.3 34.2 52.3 C 36.1 46.4 41.3 36.7 41.3 36.7 L 39.5 36.5 L 39.6 36.5 C 39.5 36.5 39.5 36.5 39.5 36.5 C 34.2 42.7 27.9 53.3 26 70.7 " fill="url(#gradient98)"/>
			<path id="st103" d="M 77.8 74.3 C 77.8 74.9 77.4 75.3 76.8 75.3 L 66.7 75.3 C 66.1 75.3 65.7 74.9 65.7 74.3 L 65.7 71.7 C 65.7 71.1 66.1 70.7 66.7 70.7 L 76.8 70.7 C 77.4 70.7 77.8 71.1 77.8 71.7 L 77.8 74.3 L 77.8 74.3 Z" fill="url(#gradient99)"/>
			<path id="st104" d="M 77.4 73.2 C 77.4 73.6 77 73.8 76.5 73.8 L 67.2 73.8 C 66.7 73.8 66.3 73.5 66.3 73.2 L 66.3 71.5 C 66.3 71.1 66.7 70.9 67.2 70.9 L 76.5 70.9 C 77 70.9 77.4 71.2 77.4 71.5 L 77.4 73.2 L 77.4 73.2 Z" fill="url(#gradient100)"/>
			<path id="st105" d="M 77.4 73.2 C 77.4 73.6 77 73.8 76.5 73.8 L 67.2 73.8 C 66.7 73.8 66.3 73.5 66.3 73.2 L 66.3 71.5 C 66.3 71.1 66.7 70.9 67.2 70.9 L 76.5 70.9 C 77 70.9 77.4 71.2 77.4 71.5 L 77.4 73.2 L 77.4 73.2 Z" fill="url(#gradient101)"/>
			<path id="st106" d="M 29.5 105.1 L 32.9 114.2 L 32.9 114.3 C 32.9 114.3 28.9 119.7 28.1 119.7 " fill="#faa51a"/>
			<path id="st107" d="M 28.8 106.1 L 32 114.2 " fill="url(#gradient102)"/>
			<path id="st108" d="M 28.8 106.1 L 32 114.2 " fill="url(#gradient103)"/>
			<path id="st109" d="M 82.2 17.8 L 91.5 17.7 C 91.6 17.7 91.7 17.6 91.8 17.6 L 97.3 17.6 L 97.3 17.6 C 98 17.6 98.5 18.1 98.5 18.8 L 98.5 23 C 98.5 23.1 98.5 23.2 98.4 23.3 L 113.3 41.2 L 211.5 41.2 C 213.4 41.2 215 43.3 215 45.8 L 215 93.2 C 215 95.7 213.4 97.8 211.5 97.8 L 94.1 97.8 C 92.2 97.8 90.6 95.7 90.6 93.2 L 90.6 24.2 L 82.3 23.1 C 81.6 23.1 81.1 22.6 81.1 21.9 L 81.1 18.9 C 81 18.3 81.6 17.8 82.2 17.8 L 82.2 17.8 Z" fill="#df6826"/>
			<path id="st110" d="M 90.6 41.1 L 90.6 75.7 L 98.2 97.7 L 110.2 97.7 L 90.6 41.1 L 90.6 41.1 L 90.6 41.1 ZM 126.7 48.2 L 114.7 48.2 L 131.8 97.7 L 143.8 97.7 L 126.7 48.2 L 126.7 48.2 ZM 160.3 48.2 L 148.3 48.2 L 165.4 97.7 L 177.4 97.7 L 160.3 48.2 L 160.3 48.2 ZM 193.9 48.2 L 181.9 48.2 L 199 97.8 L 211 97.8 L 193.9 48.2 L 193.9 48.2 Z" fill="url(#gradient104)"/>
			<path id="st1092" d="M 113 40.3 L 113.5 41.2 L 211.7 41.2 C 213.6 41.2 215.2 43.3 215.2 45.8 L 215.2 57.1 L 90.5 57.1 L 90.5 47.4 L 113 40.3 L 113 40.3 L 113 40.3 Z" fill="#df6826"/>
			<path id="st111" d="M 214.7 95.8 C 214.1 97 213 97.8 211.7 97.8 L 94.1 97.8 C 92.9 97.8 91.8 97 91.1 95.8 L 214.7 95.8 L 214.7 95.8 Z" fill="#f8b218"/>
		</g>
	</g>
</svg>