<?xml version="1.0" standalone="no"?>
<!-- Generator: Adobe Fireworks 10, Export SVG Extension by Aaron Beall (http://fireworks.abeall.com) . Version: 0.6.1  -->
<!DOCTYPE svg PUBLIC "-//W3C//DTD SVG 1.1//EN" "http://www.w3.org/Graphics/SVG/1.1/DTD/svg11.dtd">
<svg id="Untitled-Page%201" viewBox="0 0 240 150" style="background-color:#ffffff00" version="1.1"
	xmlns="http://www.w3.org/2000/svg" xmlns:xlink="http://www.w3.org/1999/xlink" xml:space="preserve"
	x="0px" y="0px" width="240px" height="150px"
>
	<defs>
		<linearGradient id="gradient1" x1="49.9787%" y1="38.0092%" x2="49.9787%" y2="62.0085%">
			<stop stop-color="#c5b8ab" stop-opacity="1" offset="0%"/>
			<stop stop-color="#ffffff" stop-opacity="1" offset="100%"/>
		</linearGradient>
		<linearGradient id="gradient2" x1="49.9982%" y1="63.0437%" x2="49.9982%" y2="37.0456%">
			<stop stop-color="#ffffff" stop-opacity="1" offset="0%"/>
			<stop stop-color="#d2d3da" stop-opacity="1" offset="100%"/>
		</linearGradient>
		<linearGradient id="gradient3" x1="49.9982%" y1="58.044%" x2="49.9982%" y2="42.0453%">
			<stop stop-color="#d2d3da" stop-opacity="1" offset="0%"/>
			<stop stop-color="#d6d6dd" stop-opacity="1" offset="100%"/>
		</linearGradient>
		<linearGradient id="gradient4" x1="49.9982%" y1="52.0441%" x2="49.9982%" y2="48.0445%">
			<stop stop-color="#d6d6dd" stop-opacity="1" offset="0%"/>
			<stop stop-color="#ffffff" stop-opacity="1" offset="100%"/>
		</linearGradient>
		<linearGradient id="gradient5" x1="49.9982%" y1="60.0441%" x2="49.9982%" y2="40.0452%">
			<stop stop-color="#ffffff" stop-opacity="1" offset="0%"/>
			<stop stop-color="#e1e0e2" stop-opacity="1" offset="100%"/>
		</linearGradient>
		<linearGradient id="gradient6" x1="49.9982%" y1="68.0435%" x2="49.9982%" y2="32.0452%">
			<stop stop-color="#e1e0e2" stop-opacity="1" offset="0%"/>
			<stop stop-color="#f2f3f4" stop-opacity="1" offset="100%"/>
		</linearGradient>
		<linearGradient id="gradient7" x1="49.9982%" y1="52.0441%" x2="49.9982%" y2="48.0445%">
			<stop stop-color="#f2f3f4" stop-opacity="1" offset="0%"/>
			<stop stop-color="#d2d3da" stop-opacity="1" offset="100%"/>
		</linearGradient>
		<linearGradient id="gradient8" x1="49.9795%" y1="62.9183%" x2="49.9795%" y2="36.9325%">
			<stop stop-color="#ffffff" stop-opacity="1" offset="0%"/>
			<stop stop-color="#d2d3da" stop-opacity="1" offset="100%"/>
		</linearGradient>
		<linearGradient id="gradient9" x1="49.9795%" y1="83.9073%" x2="49.9795%" y2="15.9436%">
			<stop stop-color="#d2d3da" stop-opacity="1" offset="0%"/>
			<stop stop-color="#f2f3f4" stop-opacity="1" offset="100%"/>
		</linearGradient>
		<linearGradient id="gradient10" x1="49.9795%" y1="53.9234%" x2="49.9795%" y2="45.9274%">
			<stop stop-color="#f2f3f4" stop-opacity="1" offset="0%"/>
			<stop stop-color="#d2d3da" stop-opacity="1" offset="100%"/>
		</linearGradient>
		<linearGradient id="gradient11" x1="50.0358%" y1="101.5277%" x2="50.0358%" y2="1.9523%">
			<stop stop-color="#919190" stop-opacity="1" offset="0%"/>
			<stop stop-color="#3c3a3a" stop-opacity="1" offset="100%"/>
		</linearGradient>
		<linearGradient id="gradient12" x1="49.9486%" y1="99.814%" x2="49.9486%" y2="-0.205%">
			<stop stop-color="#4d4d4d" stop-opacity="1" offset="0%"/>
			<stop stop-color="#3c3a3a" stop-opacity="1" offset="100%"/>
		</linearGradient>
		<radialGradient id="gradient13" cx="49.9603%" cy="50.0474%" r="49.9336%">
			<stop stop-color="#4d4d4d" stop-opacity="1" offset="0%"/>
			<stop stop-color="#4d4d4d" stop-opacity="1" offset="60%"/>
			<stop stop-color="#989b9e" stop-opacity="1" offset="70.98%"/>
			<stop stop-color="#989b9e" stop-opacity="1" offset="100%"/>
		</radialGradient>
		<radialGradient id="gradient14" cx="49.9603%" cy="50.0474%" r="29.9599%">
			<stop stop-color="#363435" stop-opacity="1" offset="0%"/>
			<stop stop-color="#4d4d4d" stop-opacity="1" offset="100%"/>
		</radialGradient>
		<radialGradient id="gradient15" cx="49.9038%" cy="49.7027%" r="50.0537%">
			<stop stop-color="#9da1a2" stop-opacity="1" offset="0%"/>
			<stop stop-color="#9da1a2" stop-opacity="1" offset="38.82%"/>
			<stop stop-color="#676565" stop-opacity="1" offset="70.98%"/>
			<stop stop-color="#676565" stop-opacity="1" offset="100%"/>
		</radialGradient>
		<radialGradient id="gradient16" cx="49.9038%" cy="49.7027%" r="20.0216%">
			<stop stop-color="#696766" stop-opacity="1" offset="0%"/>
			<stop stop-color="#9da1a2" stop-opacity="1" offset="100%"/>
		</radialGradient>
		<linearGradient id="gradient17" x1="49.9364%" y1="63.0397%" x2="49.9364%" y2="37.1451%">
			<stop stop-color="#c7c8c9" stop-opacity="1" offset="0%"/>
			<stop stop-color="#9fa0a3" stop-opacity="1" offset="100%"/>
		</linearGradient>
		<linearGradient id="gradient18" x1="49.9364%" y1="87.935%" x2="49.9364%" y2="12.2498%">
			<stop stop-color="#9fa0a3" stop-opacity="1" offset="0%"/>
			<stop stop-color="#d1d2d3" stop-opacity="1" offset="100%"/>
		</linearGradient>
		<linearGradient id="gradient19" x1="49.6898%" y1="-0.334%" x2="49.6898%" y2="106.1006%">
			<stop stop-color="#f2f3f4" stop-opacity="1" offset="0%"/>
			<stop stop-color="#aaadb0" stop-opacity="1" offset="100%"/>
		</linearGradient>
		<linearGradient id="gradient20" x1="50.2802%" y1="100.3891%" x2="50.2802%" y2="0.0255%">
			<stop stop-color="#4d4d4d" stop-opacity="1" offset="0%"/>
			<stop stop-color="#3c3a3a" stop-opacity="1" offset="100%"/>
		</linearGradient>
		<linearGradient id="gradient21" x1="50.1479%" y1="0.1126%" x2="50.1479%" y2="107.9726%">
			<stop stop-color="#ffffff" stop-opacity="1" offset="0%"/>
			<stop stop-color="#4d4d4d" stop-opacity="1" offset="100%"/>
		</linearGradient>
		<radialGradient id="gradient22" cx="46.3121%" cy="48.0448%" r="53.4491%">
			<stop stop-color="#4d4d4d" stop-opacity="1" offset="0%"/>
			<stop stop-color="#4d4d4d" stop-opacity="1" offset="58.82%"/>
			<stop stop-color="#989b9e" stop-opacity="1" offset="70.98%"/>
			<stop stop-color="#989b9e" stop-opacity="1" offset="100%"/>
		</radialGradient>
		<radialGradient id="gradient23" cx="46.3121%" cy="48.0448%" r="32.0631%">
			<stop stop-color="#3c3a3a" stop-opacity="1" offset="0%"/>
			<stop stop-color="#4d4d4d" stop-opacity="1" offset="100%"/>
		</radialGradient>
		<radialGradient id="gradient24" cx="46.3121%" cy="48.4947%" r="53.3865%">
			<stop stop-color="#4d4d4d" stop-opacity="1" offset="0%"/>
			<stop stop-color="#4d4d4d" stop-opacity="1" offset="58.82%"/>
			<stop stop-color="#989b9e" stop-opacity="1" offset="70.98%"/>
			<stop stop-color="#989b9e" stop-opacity="1" offset="100%"/>
		</radialGradient>
		<radialGradient id="gradient25" cx="46.3121%" cy="48.4947%" r="32.0318%">
			<stop stop-color="#3c3a3a" stop-opacity="1" offset="0%"/>
			<stop stop-color="#4d4d4d" stop-opacity="1" offset="100%"/>
		</radialGradient>
		<radialGradient id="gradient26" cx="50.0584%" cy="47.2522%" r="52.597%">
			<stop stop-color="#4d4d4d" stop-opacity="1" offset="0%"/>
			<stop stop-color="#4d4d4d" stop-opacity="1" offset="54.12%"/>
			<stop stop-color="#989b9e" stop-opacity="1" offset="65.1%"/>
			<stop stop-color="#989b9e" stop-opacity="1" offset="100%"/>
		</radialGradient>
		<radialGradient id="gradient27" cx="50.0584%" cy="47.2522%" r="28.4035%">
			<stop stop-color="#3c3a3a" stop-opacity="1" offset="0%"/>
			<stop stop-color="#4d4d4d" stop-opacity="1" offset="100%"/>
		</radialGradient>
		<radialGradient id="gradient28" cx="48.3742%" cy="46.6156%" r="52.733%">
			<stop stop-color="#4d4d4d" stop-opacity="1" offset="0%"/>
			<stop stop-color="#4d4d4d" stop-opacity="1" offset="54.12%"/>
			<stop stop-color="#989b9e" stop-opacity="1" offset="65.1%"/>
			<stop stop-color="#989b9e" stop-opacity="1" offset="100%"/>
		</radialGradient>
		<radialGradient id="gradient29" cx="48.3742%" cy="46.6156%" r="28.4775%">
			<stop stop-color="#3c3a3a" stop-opacity="1" offset="0%"/>
			<stop stop-color="#4d4d4d" stop-opacity="1" offset="100%"/>
		</radialGradient>
		<radialGradient id="gradient30" cx="48.9236%" cy="51.1063%" r="53.4019%">
			<stop stop-color="#4d4d4d" stop-opacity="1" offset="0%"/>
			<stop stop-color="#4d4d4d" stop-opacity="1" offset="58.82%"/>
			<stop stop-color="#989b9e" stop-opacity="1" offset="70.98%"/>
			<stop stop-color="#989b9e" stop-opacity="1" offset="100%"/>
		</radialGradient>
		<radialGradient id="gradient31" cx="48.9236%" cy="51.1063%" r="32.0472%">
			<stop stop-color="#3c3a3a" stop-opacity="1" offset="0%"/>
			<stop stop-color="#4d4d4d" stop-opacity="1" offset="100%"/>
		</radialGradient>
		<radialGradient id="gradient32" cx="49.2155%" cy="51.1063%" r="53.4019%">
			<stop stop-color="#4d4d4d" stop-opacity="1" offset="0%"/>
			<stop stop-color="#4d4d4d" stop-opacity="1" offset="58.82%"/>
			<stop stop-color="#989b9e" stop-opacity="1" offset="70.98%"/>
			<stop stop-color="#989b9e" stop-opacity="1" offset="100%"/>
		</radialGradient>
		<radialGradient id="gradient33" cx="49.2155%" cy="51.1063%" r="32.0474%">
			<stop stop-color="#3c3a3a" stop-opacity="1" offset="0%"/>
			<stop stop-color="#4d4d4d" stop-opacity="1" offset="100%"/>
		</radialGradient>
		<radialGradient id="gradient34" cx="50.0584%" cy="50.7488%" r="52.6966%">
			<stop stop-color="#4d4d4d" stop-opacity="1" offset="0%"/>
			<stop stop-color="#4d4d4d" stop-opacity="1" offset="52.16%"/>
			<stop stop-color="#989b9e" stop-opacity="1" offset="63.14%"/>
			<stop stop-color="#989b9e" stop-opacity="1" offset="100%"/>
		</radialGradient>
		<radialGradient id="gradient35" cx="50.0584%" cy="50.7488%" r="27.3968%">
			<stop stop-color="#3c3a3a" stop-opacity="1" offset="0%"/>
			<stop stop-color="#4d4d4d" stop-opacity="1" offset="100%"/>
		</radialGradient>
		<radialGradient id="gradient36" cx="48.3742%" cy="52.3979%" r="52.7344%">
			<stop stop-color="#4d4d4d" stop-opacity="1" offset="0%"/>
			<stop stop-color="#4d4d4d" stop-opacity="1" offset="52.16%"/>
			<stop stop-color="#989b9e" stop-opacity="1" offset="63.14%"/>
			<stop stop-color="#989b9e" stop-opacity="1" offset="100%"/>
		</radialGradient>
		<radialGradient id="gradient37" cx="48.3742%" cy="52.3979%" r="27.4158%">
			<stop stop-color="#3c3a3a" stop-opacity="1" offset="0%"/>
			<stop stop-color="#4d4d4d" stop-opacity="1" offset="100%"/>
		</radialGradient>
		<linearGradient id="gradient38" x1="50.0116%" y1="99.814%" x2="50.0116%" y2="-0.205%">
			<stop stop-color="#4d4d4d" stop-opacity="1" offset="0%"/>
			<stop stop-color="#3c3a3a" stop-opacity="1" offset="100%"/>
		</linearGradient>
		<radialGradient id="gradient39" cx="50.0401%" cy="50.0474%" r="49.9877%">
			<stop stop-color="#4d4d4d" stop-opacity="1" offset="0%"/>
			<stop stop-color="#4d4d4d" stop-opacity="1" offset="60%"/>
			<stop stop-color="#989b9e" stop-opacity="1" offset="70.98%"/>
			<stop stop-color="#989b9e" stop-opacity="1" offset="100%"/>
		</radialGradient>
		<radialGradient id="gradient40" cx="50.0401%" cy="50.0474%" r="29.9695%">
			<stop stop-color="#363435" stop-opacity="1" offset="0%"/>
			<stop stop-color="#4d4d4d" stop-opacity="1" offset="100%"/>
		</radialGradient>
		<radialGradient id="gradient41" cx="49.9886%" cy="49.7027%" r="50.0718%">
			<stop stop-color="#9da1a2" stop-opacity="1" offset="0%"/>
			<stop stop-color="#9da1a2" stop-opacity="1" offset="38.82%"/>
			<stop stop-color="#676565" stop-opacity="1" offset="70.98%"/>
			<stop stop-color="#676565" stop-opacity="1" offset="100%"/>
		</radialGradient>
		<radialGradient id="gradient42" cx="49.9886%" cy="49.7027%" r="20.0289%">
			<stop stop-color="#696766" stop-opacity="1" offset="0%"/>
			<stop stop-color="#9da1a2" stop-opacity="1" offset="100%"/>
		</radialGradient>
		<linearGradient id="gradient43" x1="50.0643%" y1="63.0397%" x2="50.0643%" y2="37.1451%">
			<stop stop-color="#c7c8c9" stop-opacity="1" offset="0%"/>
			<stop stop-color="#9fa0a3" stop-opacity="1" offset="100%"/>
		</linearGradient>
		<linearGradient id="gradient44" x1="50.0643%" y1="87.935%" x2="50.0643%" y2="12.2498%">
			<stop stop-color="#9fa0a3" stop-opacity="1" offset="0%"/>
			<stop stop-color="#d1d2d3" stop-opacity="1" offset="100%"/>
		</linearGradient>
		<linearGradient id="gradient45" x1="49.8276%" y1="-0.334%" x2="49.8276%" y2="106.1006%">
			<stop stop-color="#f2f3f4" stop-opacity="1" offset="0%"/>
			<stop stop-color="#aaadb0" stop-opacity="1" offset="100%"/>
		</linearGradient>
		<linearGradient id="gradient46" x1="49.3883%" y1="100.3891%" x2="49.3883%" y2="0.0255%">
			<stop stop-color="#4d4d4d" stop-opacity="1" offset="0%"/>
			<stop stop-color="#3c3a3a" stop-opacity="1" offset="100%"/>
		</linearGradient>
		<linearGradient id="gradient47" x1="50.445%" y1="0.1126%" x2="50.445%" y2="107.9726%">
			<stop stop-color="#ffffff" stop-opacity="1" offset="0%"/>
			<stop stop-color="#4d4d4d" stop-opacity="1" offset="100%"/>
		</linearGradient>
		<radialGradient id="gradient48" cx="48.1838%" cy="48.0448%" r="53.4498%">
			<stop stop-color="#4d4d4d" stop-opacity="1" offset="0%"/>
			<stop stop-color="#4d4d4d" stop-opacity="1" offset="58.82%"/>
			<stop stop-color="#989b9e" stop-opacity="1" offset="70.98%"/>
			<stop stop-color="#989b9e" stop-opacity="1" offset="100%"/>
		</radialGradient>
		<radialGradient id="gradient49" cx="48.1838%" cy="48.0448%" r="32.0629%">
			<stop stop-color="#3c3a3a" stop-opacity="1" offset="0%"/>
			<stop stop-color="#4d4d4d" stop-opacity="1" offset="100%"/>
		</radialGradient>
		<radialGradient id="gradient50" cx="48.1838%" cy="48.4947%" r="53.3862%">
			<stop stop-color="#4d4d4d" stop-opacity="1" offset="0%"/>
			<stop stop-color="#4d4d4d" stop-opacity="1" offset="58.82%"/>
			<stop stop-color="#989b9e" stop-opacity="1" offset="70.98%"/>
			<stop stop-color="#989b9e" stop-opacity="1" offset="100%"/>
		</radialGradient>
		<radialGradient id="gradient51" cx="48.1838%" cy="48.4947%" r="32.0324%">
			<stop stop-color="#3c3a3a" stop-opacity="1" offset="0%"/>
			<stop stop-color="#4d4d4d" stop-opacity="1" offset="100%"/>
		</radialGradient>
		<radialGradient id="gradient52" cx="51.7815%" cy="47.2314%" r="52.626%">
			<stop stop-color="#4d4d4d" stop-opacity="1" offset="0%"/>
			<stop stop-color="#4d4d4d" stop-opacity="1" offset="52.94%"/>
			<stop stop-color="#989b9e" stop-opacity="1" offset="63.92%"/>
			<stop stop-color="#989b9e" stop-opacity="1" offset="100%"/>
		</radialGradient>
		<radialGradient id="gradient53" cx="51.7815%" cy="47.2314%" r="28.418%">
			<stop stop-color="#3c3a3a" stop-opacity="1" offset="0%"/>
			<stop stop-color="#4d4d4d" stop-opacity="1" offset="100%"/>
		</radialGradient>
		<radialGradient id="gradient54" cx="50.0237%" cy="45.5389%" r="52.71%">
			<stop stop-color="#4d4d4d" stop-opacity="1" offset="0%"/>
			<stop stop-color="#4d4d4d" stop-opacity="1" offset="54.12%"/>
			<stop stop-color="#989b9e" stop-opacity="1" offset="65.1%"/>
			<stop stop-color="#989b9e" stop-opacity="1" offset="100%"/>
		</radialGradient>
		<radialGradient id="gradient55" cx="50.0237%" cy="45.5389%" r="28.4599%">
			<stop stop-color="#3c3a3a" stop-opacity="1" offset="0%"/>
			<stop stop-color="#4d4d4d" stop-opacity="1" offset="100%"/>
		</radialGradient>
		<radialGradient id="gradient56" cx="50.7981%" cy="51.1063%" r="53.2599%">
			<stop stop-color="#4d4d4d" stop-opacity="1" offset="0%"/>
			<stop stop-color="#4d4d4d" stop-opacity="1" offset="58.82%"/>
			<stop stop-color="#989b9e" stop-opacity="1" offset="70.98%"/>
			<stop stop-color="#989b9e" stop-opacity="1" offset="100%"/>
		</radialGradient>
		<radialGradient id="gradient57" cx="50.7981%" cy="51.1063%" r="31.9527%">
			<stop stop-color="#3c3a3a" stop-opacity="1" offset="0%"/>
			<stop stop-color="#4d4d4d" stop-opacity="1" offset="100%"/>
		</radialGradient>
		<radialGradient id="gradient58" cx="51.0482%" cy="51.1063%" r="53.3073%">
			<stop stop-color="#4d4d4d" stop-opacity="1" offset="0%"/>
			<stop stop-color="#4d4d4d" stop-opacity="1" offset="58.82%"/>
			<stop stop-color="#989b9e" stop-opacity="1" offset="70.98%"/>
			<stop stop-color="#989b9e" stop-opacity="1" offset="100%"/>
		</radialGradient>
		<radialGradient id="gradient59" cx="51.0482%" cy="51.1063%" r="31.9849%">
			<stop stop-color="#3c3a3a" stop-opacity="1" offset="0%"/>
			<stop stop-color="#4d4d4d" stop-opacity="1" offset="100%"/>
		</radialGradient>
		<radialGradient id="gradient60" cx="50.8935%" cy="50.7488%" r="52.697%">
			<stop stop-color="#4d4d4d" stop-opacity="1" offset="0%"/>
			<stop stop-color="#4d4d4d" stop-opacity="1" offset="52.16%"/>
			<stop stop-color="#989b9e" stop-opacity="1" offset="63.14%"/>
			<stop stop-color="#989b9e" stop-opacity="1" offset="100%"/>
		</radialGradient>
		<radialGradient id="gradient61" cx="50.8935%" cy="50.7488%" r="27.3972%">
			<stop stop-color="#3c3a3a" stop-opacity="1" offset="0%"/>
			<stop stop-color="#4d4d4d" stop-opacity="1" offset="100%"/>
		</radialGradient>
		<radialGradient id="gradient62" cx="50.0237%" cy="52.3979%" r="52.71%">
			<stop stop-color="#4d4d4d" stop-opacity="1" offset="0%"/>
			<stop stop-color="#4d4d4d" stop-opacity="1" offset="52.16%"/>
			<stop stop-color="#989b9e" stop-opacity="1" offset="63.14%"/>
			<stop stop-color="#989b9e" stop-opacity="1" offset="100%"/>
		</radialGradient>
		<radialGradient id="gradient63" cx="50.0237%" cy="52.3979%" r="27.4109%">
			<stop stop-color="#3c3a3a" stop-opacity="1" offset="0%"/>
			<stop stop-color="#4d4d4d" stop-opacity="1" offset="100%"/>
		</radialGradient>
		<linearGradient id="gradient64" x1="49.9725%" y1="99.9012%" x2="49.9725%" y2="-0.1418%">
			<stop stop-color="#919190" stop-opacity="1" offset="0%"/>
			<stop stop-color="#3c3a3a" stop-opacity="1" offset="100%"/>
		</linearGradient>
		<linearGradient id="gradient65" x1="49.8548%" y1="0.2308%" x2="49.8548%" y2="99.8121%">
			<stop stop-color="#4d4d4d" stop-opacity="1" offset="0%"/>
			<stop stop-color="#3c3a3a" stop-opacity="1" offset="100%"/>
		</linearGradient>
		<linearGradient id="gradient66" x1="50.1501%" y1="92.6114%" x2="50.1501%" y2="4.1862%">
			<stop stop-color="#4d4d4d" stop-opacity="1" offset="0%"/>
			<stop stop-color="#9da1a2" stop-opacity="1" offset="100%"/>
		</linearGradient>
		<linearGradient id="gradient67" x1="50.1501%" y1="54.2942%" x2="50.1501%" y2="42.5034%">
			<stop stop-color="#9da1a2" stop-opacity="1" offset="0%"/>
			<stop stop-color="#676565" stop-opacity="1" offset="100%"/>
		</linearGradient>
		<linearGradient id="gradient68" x1="50.2244%" y1="42.4341%" x2="50.2244%" y2="58.5462%">
			<stop stop-color="#fdbf2d" stop-opacity="1" offset="0%"/>
			<stop stop-color="#f05237" stop-opacity="1" offset="100%"/>
		</linearGradient>
		<linearGradient id="gradient69" x1="50.2244%" y1="36.3823%" x2="50.2244%" y2="64.599%">
			<stop stop-color="#f05237" stop-opacity="1" offset="0%"/>
			<stop stop-color="#fbb365" stop-opacity="1" offset="100%"/>
		</linearGradient>
		<linearGradient id="gradient70" x1="50.2244%" y1="29.3177%" x2="50.2244%" y2="71.6625%">
			<stop stop-color="#fbb365" stop-opacity="1" offset="0%"/>
			<stop stop-color="#f37437" stop-opacity="1" offset="100%"/>
		</linearGradient>
		<linearGradient id="gradient71" x1="50.2244%" y1="42.4341%" x2="50.2244%" y2="58.5462%">
			<stop stop-color="#f37437" stop-opacity="1" offset="0%"/>
			<stop stop-color="#f58333" stop-opacity="1" offset="100%"/>
		</linearGradient>
		<linearGradient id="gradient72" x1="50.1187%" y1="58.1803%" x2="50.1187%" y2="42.1621%">
			<stop stop-color="#fdbf2d" stop-opacity="1" offset="0%"/>
			<stop stop-color="#f05237" stop-opacity="1" offset="100%"/>
		</linearGradient>
		<linearGradient id="gradient73" x1="50.1187%" y1="64.1858%" x2="50.1187%" y2="36.154%">
			<stop stop-color="#f05237" stop-opacity="1" offset="0%"/>
			<stop stop-color="#fbb365" stop-opacity="1" offset="100%"/>
		</linearGradient>
		<linearGradient id="gradient74" x1="50.1187%" y1="71.1943%" x2="50.1187%" y2="29.1455%">
			<stop stop-color="#fbb365" stop-opacity="1" offset="0%"/>
			<stop stop-color="#f37437" stop-opacity="1" offset="100%"/>
		</linearGradient>
		<linearGradient id="gradient75" x1="50.1187%" y1="58.1803%" x2="50.1187%" y2="42.1621%">
			<stop stop-color="#f37437" stop-opacity="1" offset="0%"/>
			<stop stop-color="#f58333" stop-opacity="1" offset="100%"/>
		</linearGradient>
		<linearGradient id="gradient76" x1="50.105%" y1="60.1389%" x2="50.105%" y2="40.1395%">
			<stop stop-color="#c0c0c1" stop-opacity="1" offset="0%"/>
			<stop stop-color="#ffffff" stop-opacity="1" offset="100%"/>
		</linearGradient>
		<linearGradient id="gradient77" x1="50.105%" y1="91.1368%" x2="50.105%" y2="9.1399%">
			<stop stop-color="#ffffff" stop-opacity="1" offset="0%"/>
			<stop stop-color="#c0c0c1" stop-opacity="1" offset="100%"/>
		</linearGradient>
		<linearGradient id="gradient78" x1="50.002%" y1="60.1389%" x2="50.002%" y2="40.1395%">
			<stop stop-color="#c0c0c1" stop-opacity="1" offset="0%"/>
			<stop stop-color="#ffffff" stop-opacity="1" offset="100%"/>
		</linearGradient>
		<linearGradient id="gradient79" x1="50.002%" y1="91.1368%" x2="50.002%" y2="9.1399%">
			<stop stop-color="#ffffff" stop-opacity="1" offset="0%"/>
			<stop stop-color="#c0c0c1" stop-opacity="1" offset="100%"/>
		</linearGradient>
		<linearGradient id="gradient80" x1="50.2079%" y1="60.1389%" x2="50.2079%" y2="40.1395%">
			<stop stop-color="#c0c0c1" stop-opacity="1" offset="0%"/>
			<stop stop-color="#ffffff" stop-opacity="1" offset="100%"/>
		</linearGradient>
		<linearGradient id="gradient81" x1="50.2079%" y1="91.1368%" x2="50.2079%" y2="9.1399%">
			<stop stop-color="#ffffff" stop-opacity="1" offset="0%"/>
			<stop stop-color="#c0c0c1" stop-opacity="1" offset="100%"/>
		</linearGradient>
		<linearGradient id="gradient82" x1="59.938%" y1="49.4782%" x2="39.9406%" y2="49.4782%">
			<stop stop-color="#c0c0c1" stop-opacity="1" offset="0%"/>
			<stop stop-color="#ffffff" stop-opacity="1" offset="100%"/>
		</linearGradient>
		<linearGradient id="gradient83" x1="71.9372%" y1="49.4782%" x2="27.9413%" y2="49.4782%">
			<stop stop-color="#ffffff" stop-opacity="1" offset="0%"/>
			<stop stop-color="#d9dddc" stop-opacity="1" offset="100%"/>
		</linearGradient>
		<linearGradient id="gradient84" x1="68.9373%" y1="49.4782%" x2="30.9413%" y2="49.4782%">
			<stop stop-color="#d9dddc" stop-opacity="1" offset="0%"/>
			<stop stop-color="#c0c0c1" stop-opacity="1" offset="100%"/>
		</linearGradient>
		<linearGradient id="gradient85" x1="36.9764%" y1="50.0915%" x2="62.8043%" y2="50.0915%">
			<stop stop-color="#ffffff" stop-opacity="1" offset="0%"/>
			<stop stop-color="#d2d3da" stop-opacity="1" offset="100%"/>
		</linearGradient>
		<linearGradient id="gradient86" x1="12.1453%" y1="50.0915%" x2="87.6353%" y2="50.0915%">
			<stop stop-color="#d2d3da" stop-opacity="1" offset="0%"/>
			<stop stop-color="#f2f3f4" stop-opacity="1" offset="100%"/>
		</linearGradient>
		<linearGradient id="gradient87" x1="50.5667%" y1="62.7657%" x2="50.5667%" y2="36.8252%">
			<stop stop-color="#ffffff" stop-opacity="1" offset="0%"/>
			<stop stop-color="#d2d3da" stop-opacity="1" offset="100%"/>
		</linearGradient>
		<linearGradient id="gradient88" x1="50.5667%" y1="87.7041%" x2="50.5667%" y2="11.8868%">
			<stop stop-color="#d2d3da" stop-opacity="1" offset="0%"/>
			<stop stop-color="#f2f3f4" stop-opacity="1" offset="100%"/>
		</linearGradient>
	</defs>
	<g id="Layer%201">
		<g id="duba">
			<path id="st0" d="M 161.7 62.4 L 138.2 51.3 C 146.3 52.1 158.2 52 164.7 51.9 L 161.7 62.4 L 161.7 62.4 L 161.7 62.4 Z" fill="url(#gradient1)"/>
			<path id="st1" d="M 211.7 11.7 C 226.8 11.7 226.8 31.1 226.8 46.8 L 226.8 84.8 C 226.8 100.4 226.8 119.9 211.7 119.9 L 15.4 120.3 C 11.4 120.3 9 117.3 9 112.3 C 8.9 110.5 8.4 94.2 10.6 90.1 C 12.7 86.2 25.5 73.5 26.9 72.1 C 32.5 66 82.6 11.8 95.7 11.8 L 211.7 11.7 L 211.7 11.7 L 211.7 11.7 Z" fill="#b3b3b3"/>
			<path id="st2" d="M 28.1 73.2 C 28.1 73.2 83 13.3 95.7 13.3 L 211.7 13.3 C 224.4 13.3 225.2 28.3 225.2 46.8 L 225.2 84.8 C 225.2 103.3 224.4 118.3 211.7 118.3 L 15.4 118.7 C 11.9 118.7 10.6 115.8 10.6 112.3 C 10.6 112.3 10 94.7 12 90.8 C 14.1 87 28.1 73.2 28.1 73.2 L 28.1 73.2 Z" fill="url(#gradient2)"/>
			<path id="st3" d="M 28.1 73.2 C 28.1 73.2 83 13.3 95.7 13.3 L 211.7 13.3 C 224.4 13.3 225.2 28.3 225.2 46.8 L 225.2 84.8 C 225.2 103.3 224.4 118.3 211.7 118.3 L 15.4 118.7 C 11.9 118.7 10.6 115.8 10.6 112.3 C 10.6 112.3 10 94.7 12 90.8 C 14.1 87 28.1 73.2 28.1 73.2 L 28.1 73.2 Z" fill="url(#gradient3)"/>
			<path id="st4" d="M 28.1 73.2 C 28.1 73.2 83 13.3 95.7 13.3 L 211.7 13.3 C 224.4 13.3 225.2 28.3 225.2 46.8 L 225.2 84.8 C 225.2 103.3 224.4 118.3 211.7 118.3 L 15.4 118.7 C 11.9 118.7 10.6 115.8 10.6 112.3 C 10.6 112.3 10 94.7 12 90.8 C 14.1 87 28.1 73.2 28.1 73.2 L 28.1 73.2 Z" fill="url(#gradient4)"/>
			<path id="st5" d="M 28.1 73.2 C 28.1 73.2 83 13.3 95.7 13.3 L 211.7 13.3 C 224.4 13.3 225.2 28.3 225.2 46.8 L 225.2 84.8 C 225.2 103.3 224.4 118.3 211.7 118.3 L 15.4 118.7 C 11.9 118.7 10.6 115.8 10.6 112.3 C 10.6 112.3 10 94.7 12 90.8 C 14.1 87 28.1 73.2 28.1 73.2 L 28.1 73.2 Z" fill="url(#gradient5)"/>
			<path id="st6" d="M 28.1 73.2 C 28.1 73.2 83 13.3 95.7 13.3 L 211.7 13.3 C 224.4 13.3 225.2 28.3 225.2 46.8 L 225.2 84.8 C 225.2 103.3 224.4 118.3 211.7 118.3 L 15.4 118.7 C 11.9 118.7 10.6 115.8 10.6 112.3 C 10.6 112.3 10 94.7 12 90.8 C 14.1 87 28.1 73.2 28.1 73.2 L 28.1 73.2 Z" fill="url(#gradient6)"/>
			<path id="st7" d="M 28.1 73.2 C 28.1 73.2 83 13.3 95.7 13.3 L 211.7 13.3 C 224.4 13.3 225.2 28.3 225.2 46.8 L 225.2 84.8 C 225.2 103.3 224.4 118.3 211.7 118.3 L 15.4 118.7 C 11.9 118.7 10.6 115.8 10.6 112.3 C 10.6 112.3 10 94.7 12 90.8 C 14.1 87 28.1 73.2 28.1 73.2 L 28.1 73.2 Z" fill="url(#gradient7)"/>
			<path id="st8" d="M 80.7 22 C 87.3 16.7 92.7 13.4 95.7 13.4 L 211.7 13.4 C 224.4 13.4 225.2 28.4 225.2 46.9 L 225.2 84.9 C 225.2 103.4 224.4 118.4 211.7 118.4 L 80.7 118.7 L 80.7 22 L 80.7 22 L 80.7 22 Z" fill="url(#gradient8)"/>
			<path id="st9" d="M 80.7 22 C 87.3 16.7 92.7 13.4 95.7 13.4 L 211.7 13.4 C 224.4 13.4 225.2 28.4 225.2 46.9 L 225.2 84.9 C 225.2 103.4 224.4 118.4 211.7 118.4 L 80.7 118.7 L 80.7 22 L 80.7 22 L 80.7 22 Z" fill="url(#gradient9)"/>
			<path id="st10" d="M 80.7 22 C 87.3 16.7 92.7 13.4 95.7 13.4 L 211.7 13.4 C 224.4 13.4 225.2 28.4 225.2 46.9 L 225.2 84.9 C 225.2 103.4 224.4 118.4 211.7 118.4 L 80.7 118.7 L 80.7 22 L 80.7 22 L 80.7 22 Z" fill="url(#gradient10)"/>
			<path id="st12" d="M 81.1 117.1 C 80.7 117.1 80.2 116.6 80.2 115.9 L 80.2 21 C 80.8 20.6 81.4 20.2 81.9 19.8 L 81.9 115.8 C 81.9 116.5 81.5 117 81.1 117.1 L 81.1 117.1 L 81.1 117.1 Z" fill="#b3b3b3"/>
			<path id="st11" d="M 222.9 109.3 C 221 114.8 217.7 118.2 211.7 118.2 L 15.4 118.6 C 11.9 118.6 10.6 115.7 10.6 112.2 C 10.6 112.2 10.5 111 10.5 109.2 L 222.9 109.2 L 222.9 109.3 Z" fill="url(#gradient11)"/>
			<path id="st12" d="M 39.8 118.1 C 39.8 105.9 48.7 96 59.7 96 C 70.7 96 79.6 105.9 79.6 118.1 L 39.8 118.1 L 39.8 118.1 L 39.8 118.1 Z" fill="url(#gradient12)"/>
			<path id="st13" d="M 75.5 116.1 C 75.5 124.7 68.4 131.8 59.8 131.8 C 51.2 131.8 44.1 124.7 44.1 116.1 C 44.1 107.5 51.2 100.4 59.8 100.4 C 68.4 100.4 75.5 107.5 75.5 116.1 L 75.5 116.1 Z" fill="url(#gradient13)"/>
			<path id="st14" d="M 75.5 116.1 C 75.5 124.7 68.4 131.8 59.8 131.8 C 51.2 131.8 44.1 124.7 44.1 116.1 C 44.1 107.5 51.2 100.4 59.8 100.4 C 68.4 100.4 75.5 107.5 75.5 116.1 L 75.5 116.1 Z" fill="url(#gradient14)"/>
			<path id="st15" d="M 59.6 101.8 C 67.7 101.8 74.2 108.2 74.4 116.2 C 74.4 116.1 74.4 115.9 74.4 115.8 C 74.4 107.6 67.8 101 59.6 101 C 51.4 101 44.8 107.6 44.8 115.8 C 44.8 115.9 44.8 116.1 44.8 116.2 C 45 108.2 51.5 101.8 59.6 101.8 L 59.6 101.8 Z" fill="url(#gradient15)"/>
			<path id="st16" d="M 59.6 101.8 C 67.7 101.8 74.2 108.2 74.4 116.2 C 74.4 116.1 74.4 115.9 74.4 115.8 C 74.4 107.6 67.8 101 59.6 101 C 51.4 101 44.8 107.6 44.8 115.8 C 44.8 115.9 44.8 116.1 44.8 116.2 C 45 108.2 51.5 101.8 59.6 101.8 L 59.6 101.8 Z" fill="url(#gradient16)"/>
			<path id="st17" d="M 69.6 116.1 C 69.6 121.5 65.2 125.9 59.8 125.9 C 54.4 125.9 50 121.5 50 116.1 C 50 110.7 54.4 106.3 59.8 106.3 C 65.2 106.3 69.6 110.7 69.6 116.1 L 69.6 116.1 Z" fill="url(#gradient17)"/>
			<path id="st18" d="M 69.6 116.1 C 69.6 121.5 65.2 125.9 59.8 125.9 C 54.4 125.9 50 121.5 50 116.1 C 50 110.7 54.4 106.3 59.8 106.3 C 65.2 106.3 69.6 110.7 69.6 116.1 L 69.6 116.1 Z" fill="url(#gradient18)"/>
			<path id="st19" d="M 59.9 106.4 C 56.3 106.4 53.1 108.3 51.5 111.3 C 55 115 61.1 119.6 69.4 118.6 C 69.6 117.8 69.7 117 69.7 116.2 C 69.7 110.8 65.3 106.4 59.9 106.4 L 59.9 106.4 Z" fill="url(#gradient19)"/>
			<path id="st20" d="M 64.4 116.5 C 64.4 119 62.4 121 59.9 121 C 57.4 121 55.4 119 55.4 116.5 C 55.4 114 57.4 112 59.9 112 C 62.4 112 64.4 114 64.4 116.5 L 64.4 116.5 Z" fill="#353635"/>
			<path id="st21" d="M 64 116.1 C 64 118.4 62.1 120.3 59.8 120.3 C 57.5 120.3 55.6 118.4 55.6 116.1 C 55.6 113.8 57.5 111.9 59.8 111.9 C 62.1 111.9 64 113.7 64 116.1 L 64 116.1 Z" fill="url(#gradient20)"/>
			<path id="st22" d="M 59.9 111.9 C 58.3 111.9 57 112.8 56.2 114 C 57.7 115.7 60.3 117.5 63.9 117.1 C 64 116.7 64 116.5 64 116.1 C 64 113.7 62.2 111.8 59.9 111.9 L 59.9 111.9 L 59.9 111.9 Z" fill="url(#gradient21)"/>
			<path id="st23" d="M 60.8 123.6 C 60.8 124.1 60.4 124.5 59.9 124.5 C 59.4 124.5 59 124.1 59 123.6 C 59 123.1 59.4 122.7 59.9 122.7 C 60.4 122.7 60.8 123.1 60.8 123.6 L 60.8 123.6 Z" fill="url(#gradient22)"/>
			<path id="st24" d="M 60.8 123.6 C 60.8 124.1 60.4 124.5 59.9 124.5 C 59.4 124.5 59 124.1 59 123.6 C 59 123.1 59.4 122.7 59.9 122.7 C 60.4 122.7 60.8 123.1 60.8 123.6 L 60.8 123.6 Z" fill="url(#gradient23)"/>
			<path id="st25" d="M 60.8 108.7 C 60.8 109.2 60.4 109.6 59.9 109.6 C 59.4 109.6 59 109.2 59 108.7 C 59 108.2 59.4 107.8 59.9 107.8 C 60.4 107.8 60.8 108.2 60.8 108.7 L 60.8 108.7 Z" fill="url(#gradient24)"/>
			<path id="st26" d="M 60.8 108.7 C 60.8 109.2 60.4 109.6 59.9 109.6 C 59.4 109.6 59 109.2 59 108.7 C 59 108.2 59.4 107.8 59.9 107.8 C 60.4 107.8 60.8 108.2 60.8 108.7 L 60.8 108.7 Z" fill="url(#gradient25)"/>
			<path id="st27" d="M 65.8 120.7 C 66.2 121.1 66.2 121.7 65.8 122.1 C 65.4 122.5 64.8 122.5 64.4 122.1 C 64 121.7 64 121.1 64.4 120.7 C 64.8 120.4 65.4 120.4 65.8 120.7 L 65.8 120.7 Z" fill="url(#gradient26)"/>
			<path id="st28" d="M 65.8 120.7 C 66.2 121.1 66.2 121.7 65.8 122.1 C 65.4 122.5 64.8 122.5 64.4 122.1 C 64 121.7 64 121.1 64.4 120.7 C 64.8 120.4 65.4 120.4 65.8 120.7 L 65.8 120.7 Z" fill="url(#gradient27)"/>
			<path id="st29" d="M 55.3 110.2 C 55.7 110.6 55.7 111.2 55.3 111.6 C 54.9 112 54.3 112 53.9 111.6 C 53.5 111.2 53.5 110.6 53.9 110.2 C 54.3 109.8 54.9 109.9 55.3 110.2 L 55.3 110.2 Z" fill="url(#gradient28)"/>
			<path id="st30" d="M 55.3 110.2 C 55.7 110.6 55.7 111.2 55.3 111.6 C 54.9 112 54.3 112 53.9 111.6 C 53.5 111.2 53.5 110.6 53.9 110.2 C 54.3 109.8 54.9 109.9 55.3 110.2 L 55.3 110.2 Z" fill="url(#gradient29)"/>
			<path id="st31" d="M 67.3 115.2 C 67.8 115.2 68.2 115.6 68.2 116.1 C 68.2 116.6 67.8 117 67.3 117 C 66.8 117 66.4 116.6 66.4 116.1 C 66.4 115.6 66.8 115.2 67.3 115.2 L 67.3 115.2 Z" fill="url(#gradient30)"/>
			<path id="st32" d="M 67.3 115.2 C 67.8 115.2 68.2 115.6 68.2 116.1 C 68.2 116.6 67.8 117 67.3 117 C 66.8 117 66.4 116.6 66.4 116.1 C 66.4 115.6 66.8 115.2 67.3 115.2 L 67.3 115.2 Z" fill="url(#gradient31)"/>
			<path id="st33" d="M 52.4 115.2 C 52.9 115.2 53.3 115.6 53.3 116.1 C 53.3 116.6 52.9 117 52.4 117 C 51.9 117 51.5 116.6 51.5 116.1 C 51.5 115.6 51.9 115.2 52.4 115.2 L 52.4 115.2 Z" fill="url(#gradient32)"/>
			<path id="st34" d="M 52.4 115.2 C 52.9 115.2 53.3 115.6 53.3 116.1 C 53.3 116.6 52.9 117 52.4 117 C 51.9 117 51.5 116.6 51.5 116.1 C 51.5 115.6 51.9 115.2 52.4 115.2 L 52.4 115.2 Z" fill="url(#gradient33)"/>
			<path id="st35" d="M 64.4 110.2 C 64.8 109.8 65.4 109.8 65.8 110.2 C 66.2 110.6 66.2 111.2 65.8 111.6 C 65.4 112 64.8 112 64.4 111.6 C 64 111.2 64 110.6 64.4 110.2 L 64.4 110.2 Z" fill="url(#gradient34)"/>
			<path id="st36" d="M 64.4 110.2 C 64.8 109.8 65.4 109.8 65.8 110.2 C 66.2 110.6 66.2 111.2 65.8 111.6 C 65.4 112 64.8 112 64.4 111.6 C 64 111.2 64 110.6 64.4 110.2 L 64.4 110.2 Z" fill="url(#gradient35)"/>
			<path id="st37" d="M 53.9 120.7 C 54.3 120.3 54.9 120.3 55.3 120.7 C 55.7 121.1 55.7 121.7 55.3 122.1 C 54.9 122.5 54.3 122.5 53.9 122.1 C 53.5 121.7 53.5 121.1 53.9 120.7 L 53.9 120.7 Z" fill="url(#gradient36)"/>
			<path id="st38" d="M 53.9 120.7 C 54.3 120.3 54.9 120.3 55.3 120.7 C 55.7 121.1 55.7 121.7 55.3 122.1 C 54.9 122.5 54.3 122.5 53.9 122.1 C 53.5 121.7 53.5 121.1 53.9 120.7 L 53.9 120.7 Z" fill="url(#gradient37)"/>
			<path id="st39" d="M 159.8 118.1 C 159.8 105.9 168.7 96 179.7 96 C 190.7 96 199.6 105.9 199.6 118.1 L 159.8 118.1 L 159.8 118.1 L 159.8 118.1 Z" fill="url(#gradient38)"/>
			<path id="st40" d="M 195.5 116.1 C 195.5 124.7 188.4 131.8 179.8 131.8 C 171.2 131.8 164.1 124.7 164.1 116.1 C 164.1 107.5 171.2 100.4 179.8 100.4 C 188.5 100.4 195.5 107.5 195.5 116.1 L 195.5 116.1 Z" fill="url(#gradient39)"/>
			<path id="st41" d="M 195.5 116.1 C 195.5 124.7 188.4 131.8 179.8 131.8 C 171.2 131.8 164.1 124.7 164.1 116.1 C 164.1 107.5 171.2 100.4 179.8 100.4 C 188.5 100.4 195.5 107.5 195.5 116.1 L 195.5 116.1 Z" fill="url(#gradient40)"/>
			<path id="st42" d="M 179.6 101.8 C 187.7 101.8 194.1 108.2 194.4 116.2 C 194.4 116.1 194.4 115.9 194.4 115.8 C 194.4 107.6 187.8 101 179.6 101 C 171.4 101 164.8 107.6 164.8 115.8 C 164.8 115.9 164.8 116.1 164.8 116.2 C 165 108.2 171.5 101.8 179.6 101.8 L 179.6 101.8 Z" fill="url(#gradient41)"/>
			<path id="st43" d="M 179.6 101.8 C 187.7 101.8 194.1 108.2 194.4 116.2 C 194.4 116.1 194.4 115.9 194.4 115.8 C 194.4 107.6 187.8 101 179.6 101 C 171.4 101 164.8 107.6 164.8 115.8 C 164.8 115.9 164.8 116.1 164.8 116.2 C 165 108.2 171.5 101.8 179.6 101.8 L 179.6 101.8 Z" fill="url(#gradient42)"/>
			<path id="st44" d="M 189.6 116.1 C 189.6 121.5 185.2 125.9 179.8 125.9 C 174.4 125.9 170 121.5 170 116.1 C 170 110.7 174.4 106.3 179.8 106.3 C 185.2 106.3 189.6 110.7 189.6 116.1 L 189.6 116.1 Z" fill="url(#gradient43)"/>
			<path id="st45" d="M 189.6 116.1 C 189.6 121.5 185.2 125.9 179.8 125.9 C 174.4 125.9 170 121.5 170 116.1 C 170 110.7 174.4 106.3 179.8 106.3 C 185.2 106.3 189.6 110.7 189.6 116.1 L 189.6 116.1 Z" fill="url(#gradient44)"/>
			<path id="st46" d="M 179.9 106.4 C 176.3 106.4 173.1 108.3 171.5 111.3 C 175 115 181.1 119.6 189.4 118.6 C 189.6 117.8 189.7 117 189.7 116.2 C 189.7 110.8 185.3 106.4 179.9 106.4 L 179.9 106.4 Z" fill="url(#gradient45)"/>
			<path id="st202" d="M 184.4 116.5 C 184.4 119 182.4 121 179.9 121 C 177.4 121 175.4 119 175.4 116.5 C 175.4 114 177.4 112 179.9 112 C 182.4 112 184.4 114 184.4 116.5 L 184.4 116.5 Z" fill="#353635"/>
			<path id="st47" d="M 184.1 116.1 C 184.1 118.4 182.2 120.3 179.9 120.3 C 177.6 120.3 175.7 118.4 175.7 116.1 C 175.7 113.8 177.6 111.9 179.9 111.9 C 182.1 111.9 184.1 113.7 184.1 116.1 L 184.1 116.1 Z" fill="url(#gradient46)"/>
			<path id="st48" d="M 179.9 111.9 C 178.3 111.9 176.9 112.8 176.2 114 C 177.7 115.7 180.3 117.5 183.9 117.1 C 184 116.7 184 116.5 184 116.1 C 184.1 113.7 182.2 111.8 179.9 111.9 L 179.9 111.9 L 179.9 111.9 Z" fill="url(#gradient47)"/>
			<path id="st49" d="M 180.8 123.6 C 180.8 124.1 180.4 124.5 179.9 124.5 C 179.4 124.5 179 124.1 179 123.6 C 179 123.1 179.4 122.7 179.9 122.7 C 180.4 122.7 180.8 123.1 180.8 123.6 L 180.8 123.6 Z" fill="url(#gradient48)"/>
			<path id="st50" d="M 180.8 123.6 C 180.8 124.1 180.4 124.5 179.9 124.5 C 179.4 124.5 179 124.1 179 123.6 C 179 123.1 179.4 122.7 179.9 122.7 C 180.4 122.7 180.8 123.1 180.8 123.6 L 180.8 123.6 Z" fill="url(#gradient49)"/>
			<path id="st51" d="M 180.8 108.7 C 180.8 109.2 180.4 109.6 179.9 109.6 C 179.4 109.6 179 109.2 179 108.7 C 179 108.2 179.4 107.8 179.9 107.8 C 180.4 107.8 180.8 108.2 180.8 108.7 L 180.8 108.7 Z" fill="url(#gradient50)"/>
			<path id="st52" d="M 180.8 108.7 C 180.8 109.2 180.4 109.6 179.9 109.6 C 179.4 109.6 179 109.2 179 108.7 C 179 108.2 179.4 107.8 179.9 107.8 C 180.4 107.8 180.8 108.2 180.8 108.7 L 180.8 108.7 Z" fill="url(#gradient51)"/>
			<path id="st53" d="M 185.8 120.7 C 186.2 121.1 186.2 121.7 185.8 122.1 C 185.4 122.5 184.8 122.5 184.4 122.1 C 184 121.7 184 121.1 184.4 120.7 C 184.8 120.3 185.4 120.4 185.8 120.7 L 185.8 120.7 Z" fill="url(#gradient52)"/>
			<path id="st54" d="M 185.8 120.7 C 186.2 121.1 186.2 121.7 185.8 122.1 C 185.4 122.5 184.8 122.5 184.4 122.1 C 184 121.7 184 121.1 184.4 120.7 C 184.8 120.3 185.4 120.4 185.8 120.7 L 185.8 120.7 Z" fill="url(#gradient53)"/>
			<path id="st55" d="M 175.3 110.2 C 175.7 110.6 175.7 111.2 175.3 111.6 C 174.9 112 174.3 112 173.9 111.6 C 173.5 111.2 173.5 110.6 173.9 110.2 C 174.3 109.9 174.9 109.9 175.3 110.2 L 175.3 110.2 Z" fill="url(#gradient54)"/>
			<path id="st56" d="M 175.3 110.2 C 175.7 110.6 175.7 111.2 175.3 111.6 C 174.9 112 174.3 112 173.9 111.6 C 173.5 111.2 173.5 110.6 173.9 110.2 C 174.3 109.9 174.9 109.9 175.3 110.2 L 175.3 110.2 Z" fill="url(#gradient55)"/>
			<path id="st57" d="M 187.3 115.2 C 187.8 115.2 188.2 115.6 188.2 116.1 C 188.2 116.6 187.8 117 187.3 117 C 186.8 117 186.4 116.6 186.4 116.1 C 186.4 115.6 186.8 115.2 187.3 115.2 L 187.3 115.2 Z" fill="url(#gradient56)"/>
			<path id="st58" d="M 187.3 115.2 C 187.8 115.2 188.2 115.6 188.2 116.1 C 188.2 116.6 187.8 117 187.3 117 C 186.8 117 186.4 116.6 186.4 116.1 C 186.4 115.6 186.8 115.2 187.3 115.2 L 187.3 115.2 Z" fill="url(#gradient57)"/>
			<path id="st59" d="M 172.4 115.2 C 172.9 115.2 173.3 115.6 173.3 116.1 C 173.3 116.6 172.9 117 172.4 117 C 171.9 117 171.5 116.6 171.5 116.1 C 171.5 115.6 171.9 115.2 172.4 115.2 L 172.4 115.2 Z" fill="url(#gradient58)"/>
			<path id="st60" d="M 172.4 115.2 C 172.9 115.2 173.3 115.6 173.3 116.1 C 173.3 116.6 172.9 117 172.4 117 C 171.9 117 171.5 116.6 171.5 116.1 C 171.5 115.6 171.9 115.2 172.4 115.2 L 172.4 115.2 Z" fill="url(#gradient59)"/>
			<path id="st61" d="M 184.4 110.2 C 184.8 109.8 185.4 109.8 185.8 110.2 C 186.2 110.6 186.2 111.2 185.8 111.6 C 185.4 112 184.8 112 184.4 111.6 C 184 111.2 184.1 110.6 184.4 110.2 L 184.4 110.2 Z" fill="url(#gradient60)"/>
			<path id="st62" d="M 184.4 110.2 C 184.8 109.8 185.4 109.8 185.8 110.2 C 186.2 110.6 186.2 111.2 185.8 111.6 C 185.4 112 184.8 112 184.4 111.6 C 184 111.2 184.1 110.6 184.4 110.2 L 184.4 110.2 Z" fill="url(#gradient61)"/>
			<path id="st63" d="M 173.9 120.7 C 174.3 120.3 174.9 120.3 175.3 120.7 C 175.7 121.1 175.7 121.7 175.3 122.1 C 174.9 122.5 174.3 122.5 173.9 122.1 C 173.5 121.7 173.5 121.1 173.9 120.7 L 173.9 120.7 Z" fill="url(#gradient62)"/>
			<path id="st64" d="M 173.9 120.7 C 174.3 120.3 174.9 120.3 175.3 120.7 C 175.7 121.1 175.7 121.7 175.3 122.1 C 174.9 122.5 174.3 122.5 173.9 122.1 C 173.5 121.7 173.5 121.1 173.9 120.7 L 173.9 120.7 Z" fill="url(#gradient63)"/>
			<path id="st65" d="M 59.6 68.2 L 32.8 68.2 C 40.6 59.9 56.8 43.1 71.1 30.2 L 71.1 60 C 71.1 64.5 66 68.2 59.6 68.2 L 59.6 68.2 Z" fill="url(#gradient64)"/>
			<path id="st66" d="M 69.9 79 C 69.9 79.6 69.4 80.1 68.8 80.1 L 58.3 80.1 C 57.7 80.1 57.2 79.6 57.2 79 L 57.2 76.3 C 57.2 75.7 57.7 75.2 58.3 75.2 L 68.8 75.2 C 69.4 75.2 69.9 75.7 69.9 76.3 L 69.9 79 L 69.9 79 Z" fill="url(#gradient65)"/>
			<path id="st67" d="M 69.4 78 C 69.4 78.4 69 78.7 68.4 78.7 L 58.7 78.7 C 58.1 78.7 57.7 78.4 57.7 78 L 57.7 76.2 C 57.7 75.8 58.1 75.5 58.7 75.5 L 68.4 75.5 C 69 75.5 69.4 75.8 69.4 76.2 L 69.4 78 L 69.4 78 Z" fill="url(#gradient66)"/>
			<path id="st68" d="M 69.4 78 C 69.4 78.4 69 78.7 68.4 78.7 L 58.7 78.7 C 58.1 78.7 57.7 78.4 57.7 78 L 57.7 76.2 C 57.7 75.8 58.1 75.5 58.7 75.5 L 68.4 75.5 C 69 75.5 69.4 75.8 69.4 76.2 L 69.4 78 L 69.4 78 Z" fill="url(#gradient67)"/>
			<path id="st69" d="M 38 105 C 42.2 95.5 51.7 89.7 61.1 91.4 C 62.7 91.7 64.2 92.2 65.6 92.9 C 65.7 92.9 65.8 93 65.9 93 C 64.2 92.1 62.3 91.4 60.4 91 C 49.6 89 38.9 96.4 36.5 107.5 L 36.9 107.6 C 37.2 106.6 37.5 105.7 38 105 L 38 105 L 38 105 Z" fill="#ffffff"/>
			<path id="st692" d="M 156.2 105 C 160.3 95.7 169.6 90 178.8 91.8 C 180.4 92.1 181.8 92.6 183.2 93.2 C 183.3 93.2 183.4 93.3 183.5 93.3 C 181.8 92.4 180 91.7 178 91.4 C 167.5 89.5 157 96.7 154.7 107.5 L 155 107.6 C 155.3 106.6 155.7 105.7 156.2 105 L 156.2 105 L 156.2 105 Z" fill="#ffffff"/>
			<path id="st13" d="M 31.9 85 C 33.1 85 34.1 86 34.1 87.2 L 34.1 88.1 C 34.1 89.3 33.1 90.3 31.9 90.3 L 27.9 90.3 C 26.7 90.3 25.7 89.3 25.7 88.1 L 25.7 87.2 C 25.7 86 26.7 85 27.9 85 L 31.9 85 L 31.9 85 Z" fill="#b3b3b3"/>
			<path id="st70" d="M 33.4 87.2 C 33.4 86.4 32.8 85.8 32 85.8 L 28 85.8 C 27.2 85.8 26.6 86.4 26.6 87.2 L 26.6 88.1 C 26.6 88.9 27.2 89.5 28 89.5 L 32 89.5 C 32.8 89.5 33.4 88.9 33.4 88.1 L 33.4 87.2 L 33.4 87.2 Z" fill="url(#gradient68)"/>
			<path id="st71" d="M 33.4 87.2 C 33.4 86.4 32.8 85.8 32 85.8 L 28 85.8 C 27.2 85.8 26.6 86.4 26.6 87.2 L 26.6 88.1 C 26.6 88.9 27.2 89.5 28 89.5 L 32 89.5 C 32.8 89.5 33.4 88.9 33.4 88.1 L 33.4 87.2 L 33.4 87.2 Z" fill="url(#gradient69)"/>
			<path id="st72" d="M 33.4 87.2 C 33.4 86.4 32.8 85.8 32 85.8 L 28 85.8 C 27.2 85.8 26.6 86.4 26.6 87.2 L 26.6 88.1 C 26.6 88.9 27.2 89.5 28 89.5 L 32 89.5 C 32.8 89.5 33.4 88.9 33.4 88.1 L 33.4 87.2 L 33.4 87.2 Z" fill="url(#gradient70)"/>
			<path id="st73" d="M 33.4 87.2 C 33.4 86.4 32.8 85.8 32 85.8 L 28 85.8 C 27.2 85.8 26.6 86.4 26.6 87.2 L 26.6 88.1 C 26.6 88.9 27.2 89.5 28 89.5 L 32 89.5 C 32.8 89.5 33.4 88.9 33.4 88.1 L 33.4 87.2 L 33.4 87.2 Z" fill="url(#gradient71)"/>
			<path id="st14" d="M 225.2 69.5 C 226.1 69.5 226.8 70.2 226.8 71.1 L 226.8 84.9 C 226.8 89.1 226.7 93.7 226.4 97.9 C 226.3 98.8 225.6 99.4 224.8 99.4 L 222.4 99.4 C 219.7 99.4 217.6 97.2 217.6 94.6 L 217.6 74.3 C 217.6 71.6 219.8 69.5 222.4 69.5 L 225.2 69.5 L 225.2 69.5 L 225.2 69.5 Z" fill="#b3b3b3"/>
			<path id="st74" d="M 222.5 71 L 225.2 71 L 225.2 84.8 C 225.2 89.4 225.1 93.7 224.9 97.7 L 222.5 97.7 C 220.7 97.7 219.3 96.3 219.3 94.5 L 219.3 74.2 C 219.3 72.4 220.7 71 222.5 71 L 222.5 71 L 222.5 71 Z" fill="url(#gradient72)"/>
			<path id="st75" d="M 222.5 71 L 225.2 71 L 225.2 84.8 C 225.2 89.4 225.1 93.7 224.9 97.7 L 222.5 97.7 C 220.7 97.7 219.3 96.3 219.3 94.5 L 219.3 74.2 C 219.3 72.4 220.7 71 222.5 71 L 222.5 71 L 222.5 71 Z" fill="url(#gradient73)"/>
			<path id="st76" d="M 222.5 71 L 225.2 71 L 225.2 84.8 C 225.2 89.4 225.1 93.7 224.9 97.7 L 222.5 97.7 C 220.7 97.7 219.3 96.3 219.3 94.5 L 219.3 74.2 C 219.3 72.4 220.7 71 222.5 71 L 222.5 71 L 222.5 71 Z" fill="url(#gradient74)"/>
			<path id="st77" d="M 222.5 71 L 225.2 71 L 225.2 84.8 C 225.2 89.4 225.1 93.7 224.9 97.7 L 222.5 97.7 C 220.7 97.7 219.3 96.3 219.3 94.5 L 219.3 74.2 C 219.3 72.4 220.7 71 222.5 71 L 222.5 71 L 222.5 71 Z" fill="url(#gradient75)"/>
			<path id="st78" d="M 158.9 68.1 L 136.7 68.1 C 134.2 68.1 132.1 66 132.1 63.5 L 132.1 33.8 C 132.1 31.3 134.2 29.2 136.7 29.2 L 158.9 29.2 C 161.4 29.2 163.5 31.3 163.5 33.8 L 163.5 63.5 C 163.5 66 161.4 68.1 158.9 68.1 L 158.9 68.1 ZM 136.6 27.6 C 133.2 27.6 130.4 30.4 130.4 33.8 L 130.4 63.5 C 130.4 67 133.2 69.7 136.6 69.7 L 158.8 69.7 C 162.2 69.7 165 66.9 165 63.5 L 165 33.8 C 165 30.4 162.2 27.6 158.8 27.6 L 136.6 27.6 L 136.6 27.6 Z" fill="url(#gradient76)"/>
			<path id="st79" d="M 158.9 68.1 L 136.7 68.1 C 134.2 68.1 132.1 66 132.1 63.5 L 132.1 33.8 C 132.1 31.3 134.2 29.2 136.7 29.2 L 158.9 29.2 C 161.4 29.2 163.5 31.3 163.5 33.8 L 163.5 63.5 C 163.5 66 161.4 68.1 158.9 68.1 L 158.9 68.1 ZM 136.6 27.6 C 133.2 27.6 130.4 30.4 130.4 33.8 L 130.4 63.5 C 130.4 67 133.2 69.7 136.6 69.7 L 158.8 69.7 C 162.2 69.7 165 66.9 165 63.5 L 165 33.8 C 165 30.4 162.2 27.6 158.8 27.6 L 136.6 27.6 L 136.6 27.6 Z" fill="url(#gradient77)"/>
			<path id="st80" d="M 201.1 68.1 L 178.9 68.1 C 176.4 68.1 174.3 66 174.3 63.5 L 174.3 33.8 C 174.3 31.3 176.4 29.2 178.9 29.2 L 201.1 29.2 C 203.6 29.2 205.7 31.3 205.7 33.8 L 205.7 63.5 C 205.7 66 203.6 68.1 201.1 68.1 L 201.1 68.1 ZM 178.9 27.6 C 175.5 27.6 172.7 30.4 172.7 33.8 L 172.7 63.5 C 172.7 67 175.5 69.7 178.9 69.7 L 201.1 69.7 C 204.5 69.7 207.3 66.9 207.3 63.5 L 207.3 33.8 C 207.3 30.4 204.5 27.6 201.1 27.6 L 178.9 27.6 L 178.9 27.6 Z" fill="url(#gradient78)"/>
			<path id="st81" d="M 201.1 68.1 L 178.9 68.1 C 176.4 68.1 174.3 66 174.3 63.5 L 174.3 33.8 C 174.3 31.3 176.4 29.2 178.9 29.2 L 201.1 29.2 C 203.6 29.2 205.7 31.3 205.7 33.8 L 205.7 63.5 C 205.7 66 203.6 68.1 201.1 68.1 L 201.1 68.1 ZM 178.9 27.6 C 175.5 27.6 172.7 30.4 172.7 33.8 L 172.7 63.5 C 172.7 67 175.5 69.7 178.9 69.7 L 201.1 69.7 C 204.5 69.7 207.3 66.9 207.3 63.5 L 207.3 33.8 C 207.3 30.4 204.5 27.6 201.1 27.6 L 178.9 27.6 L 178.9 27.6 Z" fill="url(#gradient79)"/>
			<path id="st82" d="M 116.6 68.1 L 94.3 68.1 C 91.8 68.1 89.7 66 89.7 63.5 L 89.7 33.8 C 89.7 31.3 91.8 29.2 94.3 29.2 L 116.5 29.2 C 119 29.2 121.1 31.3 121.1 33.8 L 121.1 63.5 C 121.2 66 119.1 68.1 116.6 68.1 L 116.6 68.1 ZM 94.3 27.6 C 90.9 27.6 88.1 30.4 88.1 33.8 L 88.1 63.5 C 88.1 67 90.9 69.7 94.3 69.7 L 116.5 69.7 C 119.9 69.7 122.7 66.9 122.7 63.5 L 122.7 33.8 C 122.7 30.4 119.9 27.6 116.5 27.6 L 94.3 27.6 L 94.3 27.6 Z" fill="url(#gradient80)"/>
			<path id="st83" d="M 116.6 68.1 L 94.3 68.1 C 91.8 68.1 89.7 66 89.7 63.5 L 89.7 33.8 C 89.7 31.3 91.8 29.2 94.3 29.2 L 116.5 29.2 C 119 29.2 121.1 31.3 121.1 33.8 L 121.1 63.5 C 121.2 66 119.1 68.1 116.6 68.1 L 116.6 68.1 ZM 94.3 27.6 C 90.9 27.6 88.1 30.4 88.1 33.8 L 88.1 63.5 C 88.1 67 90.9 69.7 94.3 69.7 L 116.5 69.7 C 119.9 69.7 122.7 66.9 122.7 63.5 L 122.7 33.8 C 122.7 30.4 119.9 27.6 116.5 27.6 L 94.3 27.6 L 94.3 27.6 Z" fill="url(#gradient81)"/>
			<path id="st84" d="M 213.7 87 C 214.2 87 214.6 86.6 214.6 86.1 L 214.6 86.1 C 214.6 85.7 214.2 85.2 213.7 85.2 L 81 85.2 C 80.5 85.2 80.1 85.6 80.1 86.1 L 80.1 86.1 C 80.1 86.5 80.5 87 81 87 L 213.7 87 L 213.7 87 Z" fill="url(#gradient82)"/>
			<path id="st85" d="M 213.7 87 C 214.2 87 214.6 86.6 214.6 86.1 L 214.6 86.1 C 214.6 85.7 214.2 85.2 213.7 85.2 L 81 85.2 C 80.5 85.2 80.1 85.6 80.1 86.1 L 80.1 86.1 C 80.1 86.5 80.5 87 81 87 L 213.7 87 L 213.7 87 Z" fill="url(#gradient83)"/>
			<path id="st86" d="M 213.7 87 C 214.2 87 214.6 86.6 214.6 86.1 L 214.6 86.1 C 214.6 85.7 214.2 85.2 213.7 85.2 L 81 85.2 C 80.5 85.2 80.1 85.6 80.1 86.1 L 80.1 86.1 C 80.1 86.5 80.5 87 81 87 L 213.7 87 L 213.7 87 Z" fill="url(#gradient84)"/>
			<path id="st15" d="M 19.5 100.3 C 19.5 100.3 15.6 105.6 14.8 105.6 L 12.6 105.6 C 11.8 105.6 11.2 105 11.2 104.2 L 11.2 91.3 C 11.2 90.5 11.8 89.9 12.6 89.9 L 14.8 89.9 C 15.6 89.9 16.2 90.5 16.2 91.3 L 19.5 100.3 L 19.5 100.3 Z" fill="#b3b3b3"/>
			<path id="st87" d="M 18.7 100.1 C 18.7 100.1 15 104.8 14.3 104.8 L 12.2 104.8 C 11.5 104.8 10.9 104.2 10.9 103.5 L 10.9 92.2 C 10.9 91.5 11.5 90.9 12.2 90.9 L 14.3 90.9 C 15 90.9 15.6 91.5 15.6 92.2 L 18.7 100.1 L 18.7 100.1 Z" fill="url(#gradient85)"/>
			<path id="st88" d="M 18.7 100.1 C 18.7 100.1 15 104.8 14.3 104.8 L 12.2 104.8 C 11.5 104.8 10.9 104.2 10.9 103.5 L 10.9 92.2 C 10.9 91.5 11.5 90.9 12.2 90.9 L 14.3 90.9 C 15 90.9 15.6 91.5 15.6 92.2 L 18.7 100.1 L 18.7 100.1 Z" fill="url(#gradient86)"/>
			<path id="st89" d="M 51.6 57.4 C 52.5 57.4 53.3 58.3 53.3 59.3 L 53.3 71.6 C 53.4 72.2 53.2 72.7 52.9 73.1 C 52.5 73.5 52.1 73.7 51.6 73.7 L 50.1 73.7 C 47.7 73.7 45.8 71.6 45.8 69 L 45.8 62 C 45.8 59.4 47.7 57.3 50.1 57.3 L 51.6 57.3 L 51.6 57.4 Z" fill="#9f9fa0"/>
			<path id="st90" d="M 50.1 58.4 L 52.3 58.4 L 52.3 72.4 C 52.3 72.5 52.3 72.5 52.3 72.7 L 50.1 72.7 C 48.1 72.7 46.4 71.3 46.4 69.5 L 46.4 61.6 C 46.5 59.8 48.1 58.4 50.1 58.4 L 50.1 58.4 Z" fill="url(#gradient87)"/>
			<path id="st91" d="M 50.1 58.4 L 52.3 58.4 L 52.3 72.4 C 52.3 72.5 52.3 72.5 52.3 72.7 L 50.1 72.7 C 48.1 72.7 46.4 71.3 46.4 69.5 L 46.4 61.6 C 46.5 59.8 48.1 58.4 50.1 58.4 L 50.1 58.4 Z" fill="url(#gradient88)"/>
		</g>
	</g>
</svg>