<?xml version="1.0" standalone="no"?>
<!-- Generator: Adobe Fireworks 10, Export SVG Extension by Aaron Beall (http://fireworks.abeall.com) . Version: 0.6.1  -->
<!DOCTYPE svg PUBLIC "-//W3C//DTD SVG 1.1//EN" "http://www.w3.org/Graphics/SVG/1.1/DTD/svg11.dtd">
<svg id="Untitled-Page%201" viewBox="0 0 193 131" style="background-color:#ffffff00" version="1.1"
	xmlns="http://www.w3.org/2000/svg" xmlns:xlink="http://www.w3.org/1999/xlink" xml:space="preserve"
	x="0px" y="0px" width="193px" height="131px"
>
	<defs>
		<linearGradient id="gradient1" x1="70.2702%" y1="47.0589%" x2="53.9244%" y2="47.0589%">
			<stop stop-color="#fdbf2d" stop-opacity="1" offset="0%"/>
			<stop stop-color="#f05237" stop-opacity="1" offset="100%"/>
		</linearGradient>
		<linearGradient id="gradient2" x1="70.2702%" y1="47.0589%" x2="41.7042%" y2="47.0589%">
			<stop stop-color="#f05237" stop-opacity="1" offset="0%"/>
			<stop stop-color="#fbb365" stop-opacity="1" offset="100%"/>
		</linearGradient>
		<linearGradient id="gradient3" x1="70.2702%" y1="47.0589%" x2="27.4204%" y2="47.0589%">
			<stop stop-color="#fbb365" stop-opacity="1" offset="0%"/>
			<stop stop-color="#f37437" stop-opacity="1" offset="100%"/>
		</linearGradient>
		<linearGradient id="gradient4" x1="70.2702%" y1="47.0589%" x2="53.9244%" y2="47.0589%">
			<stop stop-color="#f37437" stop-opacity="1" offset="0%"/>
			<stop stop-color="#f58333" stop-opacity="1" offset="100%"/>
		</linearGradient>
		<linearGradient id="gradient5" x1="49.7781%" y1="52.2523%" x2="49.7781%" y2="44.248%">
			<stop stop-color="#4d4d4d" stop-opacity="1" offset="0%"/>
			<stop stop-color="#919190" stop-opacity="1" offset="100%"/>
		</linearGradient>
		<linearGradient id="gradient6" x1="49.7781%" y1="97.2973%" x2="49.7781%" y2="3.2424%">
			<stop stop-color="#919190" stop-opacity="1" offset="0%"/>
			<stop stop-color="#3c3a3a" stop-opacity="1" offset="100%"/>
		</linearGradient>
		<linearGradient id="gradient7" x1="50%" y1="59.5628%" x2="50%" y2="41.5705%">
			<stop stop-color="#bdbec0" stop-opacity="1" offset="0%"/>
			<stop stop-color="#4d4d4d" stop-opacity="1" offset="100%"/>
		</linearGradient>
		<linearGradient id="gradient8" x1="50%" y1="70.4918%" x2="50%" y2="32.5044%">
			<stop stop-color="#4d4d4d" stop-opacity="1" offset="0%"/>
			<stop stop-color="#9da1a2" stop-opacity="1" offset="100%"/>
		</linearGradient>
		<linearGradient id="gradient9" x1="50%" y1="54.0984%" x2="50%" y2="42.1023%">
			<stop stop-color="#9da1a2" stop-opacity="1" offset="0%"/>
			<stop stop-color="#d1d2d3" stop-opacity="1" offset="100%"/>
		</linearGradient>
		<linearGradient id="gradient10" x1="50%" y1="65.0273%" x2="50%" y2="33.0401%">
			<stop stop-color="#d1d2d3" stop-opacity="1" offset="0%"/>
			<stop stop-color="#4d4d4d" stop-opacity="1" offset="100%"/>
		</linearGradient>
		<linearGradient id="gradient11" x1="50.259%" y1="99.5306%" x2="50.259%" y2="-0.6755%">
			<stop stop-color="#4d4d4d" stop-opacity="1" offset="0%"/>
			<stop stop-color="#3c3a3a" stop-opacity="1" offset="100%"/>
		</linearGradient>
		<linearGradient id="gradient12" x1="49.8801%" y1="62.6455%" x2="49.8801%" y2="36.6468%">
			<stop stop-color="#ffffff" stop-opacity="1" offset="0%"/>
			<stop stop-color="#d2d3da" stop-opacity="1" offset="100%"/>
		</linearGradient>
		<linearGradient id="gradient13" x1="49.8801%" y1="88.0423%" x2="49.8801%" y2="12.0455%">
			<stop stop-color="#d2d3da" stop-opacity="1" offset="0%"/>
			<stop stop-color="#f2f3f4" stop-opacity="1" offset="100%"/>
		</linearGradient>
		<linearGradient id="gradient14" x1="49.8801%" y1="0.3522%" x2="49.8801%" y2="108.7953%">
			<stop stop-color="#ffffff" stop-opacity="1" offset="0%"/>
			<stop stop-color="#e1e2e3" stop-opacity="1" offset="100%"/>
		</linearGradient>
		<radialGradient id="gradient15" cx="50.3311%" cy="48.6755%" r="50.1335%">
			<stop stop-color="#4d4d4d" stop-opacity="1" offset="0%"/>
			<stop stop-color="#4d4d4d" stop-opacity="1" offset="60%"/>
			<stop stop-color="#989b9e" stop-opacity="1" offset="70.98%"/>
			<stop stop-color="#989b9e" stop-opacity="1" offset="100%"/>
		</radialGradient>
		<radialGradient id="gradient16" cx="50.3311%" cy="48.6755%" r="30.0872%">
			<stop stop-color="#363435" stop-opacity="1" offset="0%"/>
			<stop stop-color="#4d4d4d" stop-opacity="1" offset="100%"/>
		</radialGradient>
		<radialGradient id="gradient17" cx="51.049%" cy="48.9796%" r="49.9506%">
			<stop stop-color="#9da1a2" stop-opacity="1" offset="0%"/>
			<stop stop-color="#9da1a2" stop-opacity="1" offset="38.82%"/>
			<stop stop-color="#676565" stop-opacity="1" offset="70.98%"/>
			<stop stop-color="#676565" stop-opacity="1" offset="100%"/>
		</radialGradient>
		<radialGradient id="gradient18" cx="51.049%" cy="48.9796%" r="19.9806%">
			<stop stop-color="#696766" stop-opacity="1" offset="0%"/>
			<stop stop-color="#9da1a2" stop-opacity="1" offset="100%"/>
		</radialGradient>
		<linearGradient id="gradient19" x1="50.5319%" y1="63.8298%" x2="50.5319%" y2="37.7796%">
			<stop stop-color="#c7c8c9" stop-opacity="1" offset="0%"/>
			<stop stop-color="#9fa0a3" stop-opacity="1" offset="100%"/>
		</linearGradient>
		<linearGradient id="gradient20" x1="50.5319%" y1="90.4256%" x2="50.5319%" y2="14.2772%">
			<stop stop-color="#9fa0a3" stop-opacity="1" offset="0%"/>
			<stop stop-color="#d1d2d3" stop-opacity="1" offset="100%"/>
		</linearGradient>
		<linearGradient id="gradient21" x1="52.2728%" y1="0%" x2="52.2728%" y2="106.2806%">
			<stop stop-color="#f2f3f4" stop-opacity="1" offset="0%"/>
			<stop stop-color="#aaadb0" stop-opacity="1" offset="100%"/>
		</linearGradient>
		<linearGradient id="gradient22" x1="50%" y1="95.0001%" x2="50%" y2="-6.638%">
			<stop stop-color="#4d4d4d" stop-opacity="1" offset="0%"/>
			<stop stop-color="#3c3a3a" stop-opacity="1" offset="100%"/>
		</linearGradient>
		<linearGradient id="gradient23" x1="47.3685%" y1="-5.9035%" x2="47.3685%" y2="101.726%">
			<stop stop-color="#ffffff" stop-opacity="1" offset="0%"/>
			<stop stop-color="#4d4d4d" stop-opacity="1" offset="100%"/>
		</linearGradient>
		<radialGradient id="gradient24" cx="55.5559%" cy="72.222%" r="51.4496%">
			<stop stop-color="#4d4d4d" stop-opacity="1" offset="0%"/>
			<stop stop-color="#4d4d4d" stop-opacity="1" offset="58.82%"/>
			<stop stop-color="#989b9e" stop-opacity="1" offset="70.98%"/>
			<stop stop-color="#989b9e" stop-opacity="1" offset="100%"/>
		</radialGradient>
		<radialGradient id="gradient25" cx="55.5559%" cy="72.222%" r="30.867%">
			<stop stop-color="#3c3a3a" stop-opacity="1" offset="0%"/>
			<stop stop-color="#4d4d4d" stop-opacity="1" offset="100%"/>
		</radialGradient>
		<radialGradient id="gradient26" cx="55.5559%" cy="38.8892%" r="51.4487%">
			<stop stop-color="#4d4d4d" stop-opacity="1" offset="0%"/>
			<stop stop-color="#4d4d4d" stop-opacity="1" offset="58.82%"/>
			<stop stop-color="#989b9e" stop-opacity="1" offset="70.98%"/>
			<stop stop-color="#989b9e" stop-opacity="1" offset="100%"/>
		</radialGradient>
		<radialGradient id="gradient27" cx="55.5559%" cy="38.8892%" r="30.8665%">
			<stop stop-color="#3c3a3a" stop-opacity="1" offset="0%"/>
			<stop stop-color="#4d4d4d" stop-opacity="1" offset="100%"/>
		</radialGradient>
		<radialGradient id="gradient28" cx="47.3683%" cy="26.3162%" r="53.3961%">
			<stop stop-color="#4d4d4d" stop-opacity="1" offset="0%"/>
			<stop stop-color="#4d4d4d" stop-opacity="1" offset="54.12%"/>
			<stop stop-color="#989b9e" stop-opacity="1" offset="65.1%"/>
			<stop stop-color="#989b9e" stop-opacity="1" offset="100%"/>
		</radialGradient>
		<radialGradient id="gradient29" cx="47.3683%" cy="26.3162%" r="28.8391%">
			<stop stop-color="#3c3a3a" stop-opacity="1" offset="0%"/>
			<stop stop-color="#4d4d4d" stop-opacity="1" offset="100%"/>
		</radialGradient>
		<radialGradient id="gradient30" cx="57.8952%" cy="31.5792%" r="53.4555%">
			<stop stop-color="#4d4d4d" stop-opacity="1" offset="0%"/>
			<stop stop-color="#4d4d4d" stop-opacity="1" offset="54.12%"/>
			<stop stop-color="#989b9e" stop-opacity="1" offset="65.1%"/>
			<stop stop-color="#989b9e" stop-opacity="1" offset="100%"/>
		</radialGradient>
		<radialGradient id="gradient31" cx="57.8952%" cy="31.5792%" r="28.8696%">
			<stop stop-color="#3c3a3a" stop-opacity="1" offset="0%"/>
			<stop stop-color="#4d4d4d" stop-opacity="1" offset="100%"/>
		</radialGradient>
		<radialGradient id="gradient32" cx="44.4441%" cy="27.778%" r="51.4191%">
			<stop stop-color="#4d4d4d" stop-opacity="1" offset="0%"/>
			<stop stop-color="#4d4d4d" stop-opacity="1" offset="58.82%"/>
			<stop stop-color="#989b9e" stop-opacity="1" offset="70.98%"/>
			<stop stop-color="#989b9e" stop-opacity="1" offset="100%"/>
		</radialGradient>
		<radialGradient id="gradient33" cx="44.4441%" cy="27.778%" r="30.8501%">
			<stop stop-color="#3c3a3a" stop-opacity="1" offset="0%"/>
			<stop stop-color="#4d4d4d" stop-opacity="1" offset="100%"/>
		</radialGradient>
		<radialGradient id="gradient34" cx="66.6667%" cy="27.778%" r="51.5589%">
			<stop stop-color="#4d4d4d" stop-opacity="1" offset="0%"/>
			<stop stop-color="#4d4d4d" stop-opacity="1" offset="58.82%"/>
			<stop stop-color="#989b9e" stop-opacity="1" offset="70.98%"/>
			<stop stop-color="#989b9e" stop-opacity="1" offset="100%"/>
		</radialGradient>
		<radialGradient id="gradient35" cx="66.6667%" cy="27.778%" r="30.9293%">
			<stop stop-color="#3c3a3a" stop-opacity="1" offset="0%"/>
			<stop stop-color="#4d4d4d" stop-opacity="1" offset="100%"/>
		</radialGradient>
		<radialGradient id="gradient36" cx="47.3683%" cy="31.5792%" r="53.4571%">
			<stop stop-color="#4d4d4d" stop-opacity="1" offset="0%"/>
			<stop stop-color="#4d4d4d" stop-opacity="1" offset="52.16%"/>
			<stop stop-color="#989b9e" stop-opacity="1" offset="63.14%"/>
			<stop stop-color="#989b9e" stop-opacity="1" offset="100%"/>
		</radialGradient>
		<radialGradient id="gradient37" cx="47.3683%" cy="31.5792%" r="27.7951%">
			<stop stop-color="#3c3a3a" stop-opacity="1" offset="0%"/>
			<stop stop-color="#4d4d4d" stop-opacity="1" offset="100%"/>
		</radialGradient>
		<radialGradient id="gradient38" cx="56.1646%" cy="78.9477%" r="53.4555%">
			<stop stop-color="#4d4d4d" stop-opacity="1" offset="0%"/>
			<stop stop-color="#4d4d4d" stop-opacity="1" offset="52.16%"/>
			<stop stop-color="#989b9e" stop-opacity="1" offset="63.14%"/>
			<stop stop-color="#989b9e" stop-opacity="1" offset="100%"/>
		</radialGradient>
		<radialGradient id="gradient39" cx="56.1646%" cy="78.9477%" r="27.7935%">
			<stop stop-color="#3c3a3a" stop-opacity="1" offset="0%"/>
			<stop stop-color="#4d4d4d" stop-opacity="1" offset="100%"/>
		</radialGradient>
		<radialGradient id="gradient40" cx="41.5824%" cy="50.1309%" r="51.0277%">
			<stop stop-color="#faa931" stop-opacity="1" offset="0%"/>
			<stop stop-color="#faa931" stop-opacity="1" offset="58.04%"/>
			<stop stop-color="#faa333" stop-opacity="1" offset="65.88%"/>
			<stop stop-color="#faa333" stop-opacity="1" offset="100%"/>
		</radialGradient>
		<radialGradient id="gradient41" cx="41.5824%" cy="50.1309%" r="29.5961%">
			<stop stop-color="#fdbf2d" stop-opacity="1" offset="0%"/>
			<stop stop-color="#faa931" stop-opacity="1" offset="100%"/>
		</radialGradient>
		<linearGradient id="gradient42" x1="108.2898%" y1="9.7798%" x2="-4.749%" y2="91.5469%">
			<stop stop-color="#fbd726" stop-opacity="1" offset="0%"/>
			<stop stop-color="#faa333" stop-opacity="1" offset="100%"/>
		</linearGradient>
		<linearGradient id="gradient43" x1="49.2228%" y1="99.061%" x2="49.2228%" y2="-1.1314%">
			<stop stop-color="#4d4d4d" stop-opacity="1" offset="0%"/>
			<stop stop-color="#3c3a3a" stop-opacity="1" offset="100%"/>
		</linearGradient>
		<linearGradient id="gradient44" x1="25.839%" y1="49.2003%" x2="75.8407%" y2="49.2003%">
			<stop stop-color="#faa931" stop-opacity="1" offset="0%"/>
			<stop stop-color="#fcd526" stop-opacity="1" offset="100%"/>
		</linearGradient>
		<linearGradient id="gradient45" x1="25.839%" y1="49.2003%" x2="75.8407%" y2="49.2003%">
			<stop stop-color="#fcd526" stop-opacity="1" offset="0%"/>
			<stop stop-color="#faa333" stop-opacity="1" offset="100%"/>
		</linearGradient>
		<radialGradient id="gradient46" cx="51.6556%" cy="50.6623%" r="50.133%">
			<stop stop-color="#4d4d4d" stop-opacity="1" offset="0%"/>
			<stop stop-color="#4d4d4d" stop-opacity="1" offset="60%"/>
			<stop stop-color="#989b9e" stop-opacity="1" offset="70.98%"/>
			<stop stop-color="#989b9e" stop-opacity="1" offset="100%"/>
		</radialGradient>
		<radialGradient id="gradient47" cx="51.6556%" cy="50.6623%" r="30.0794%">
			<stop stop-color="#363435" stop-opacity="1" offset="0%"/>
			<stop stop-color="#4d4d4d" stop-opacity="1" offset="100%"/>
		</radialGradient>
		<radialGradient id="gradient48" cx="48.6014%" cy="46.9388%" r="49.9108%">
			<stop stop-color="#9da1a2" stop-opacity="1" offset="0%"/>
			<stop stop-color="#9da1a2" stop-opacity="1" offset="38.82%"/>
			<stop stop-color="#676565" stop-opacity="1" offset="70.98%"/>
			<stop stop-color="#676565" stop-opacity="1" offset="100%"/>
		</radialGradient>
		<radialGradient id="gradient49" cx="48.6014%" cy="46.9388%" r="19.9648%">
			<stop stop-color="#696766" stop-opacity="1" offset="0%"/>
			<stop stop-color="#9da1a2" stop-opacity="1" offset="100%"/>
		</radialGradient>
		<linearGradient id="gradient50" x1="52.1276%" y1="61.7021%" x2="52.1276%" y2="35.6557%">
			<stop stop-color="#c7c8c9" stop-opacity="1" offset="0%"/>
			<stop stop-color="#9fa0a3" stop-opacity="1" offset="100%"/>
		</linearGradient>
		<linearGradient id="gradient51" x1="52.1276%" y1="88.2978%" x2="52.1276%" y2="12.1496%">
			<stop stop-color="#9fa0a3" stop-opacity="1" offset="0%"/>
			<stop stop-color="#d1d2d3" stop-opacity="1" offset="100%"/>
		</linearGradient>
		<linearGradient id="gradient52" x1="48.2954%" y1="-2.5165%" x2="48.2954%" y2="103.7847%">
			<stop stop-color="#f2f3f4" stop-opacity="1" offset="0%"/>
			<stop stop-color="#aaadb0" stop-opacity="1" offset="100%"/>
		</linearGradient>
		<linearGradient id="gradient53" x1="53.7498%" y1="102.4989%" x2="53.7498%" y2="0.8938%">
			<stop stop-color="#4d4d4d" stop-opacity="1" offset="0%"/>
			<stop stop-color="#3c3a3a" stop-opacity="1" offset="100%"/>
		</linearGradient>
		<linearGradient id="gradient54" x1="51.3157%" y1="5.9035%" x2="51.3157%" y2="113.5758%">
			<stop stop-color="#ffffff" stop-opacity="1" offset="0%"/>
			<stop stop-color="#4d4d4d" stop-opacity="1" offset="100%"/>
		</linearGradient>
		<radialGradient id="gradient55" cx="72.222%" cy="50.0008%" r="51.5115%">
			<stop stop-color="#4d4d4d" stop-opacity="1" offset="0%"/>
			<stop stop-color="#4d4d4d" stop-opacity="1" offset="58.82%"/>
			<stop stop-color="#989b9e" stop-opacity="1" offset="70.98%"/>
			<stop stop-color="#989b9e" stop-opacity="1" offset="100%"/>
		</radialGradient>
		<radialGradient id="gradient56" cx="72.222%" cy="50.0008%" r="30.914%">
			<stop stop-color="#3c3a3a" stop-opacity="1" offset="0%"/>
			<stop stop-color="#4d4d4d" stop-opacity="1" offset="100%"/>
		</radialGradient>
		<radialGradient id="gradient57" cx="72.222%" cy="72.222%" r="51.4343%">
			<stop stop-color="#4d4d4d" stop-opacity="1" offset="0%"/>
			<stop stop-color="#4d4d4d" stop-opacity="1" offset="58.82%"/>
			<stop stop-color="#989b9e" stop-opacity="1" offset="70.98%"/>
			<stop stop-color="#989b9e" stop-opacity="1" offset="100%"/>
		</radialGradient>
		<radialGradient id="gradient58" cx="72.222%" cy="72.222%" r="30.867%">
			<stop stop-color="#3c3a3a" stop-opacity="1" offset="0%"/>
			<stop stop-color="#4d4d4d" stop-opacity="1" offset="100%"/>
		</radialGradient>
		<radialGradient id="gradient59" cx="63.158%" cy="56.1646%" r="53.4562%">
			<stop stop-color="#4d4d4d" stop-opacity="1" offset="0%"/>
			<stop stop-color="#4d4d4d" stop-opacity="1" offset="54.12%"/>
			<stop stop-color="#989b9e" stop-opacity="1" offset="65.1%"/>
			<stop stop-color="#989b9e" stop-opacity="1" offset="100%"/>
		</radialGradient>
		<radialGradient id="gradient60" cx="63.158%" cy="56.1646%" r="28.87%">
			<stop stop-color="#3c3a3a" stop-opacity="1" offset="0%"/>
			<stop stop-color="#4d4d4d" stop-opacity="1" offset="100%"/>
		</radialGradient>
		<radialGradient id="gradient61" cx="73.6839%" cy="63.158%" r="53.4553%">
			<stop stop-color="#4d4d4d" stop-opacity="1" offset="0%"/>
			<stop stop-color="#4d4d4d" stop-opacity="1" offset="54.12%"/>
			<stop stop-color="#989b9e" stop-opacity="1" offset="65.1%"/>
			<stop stop-color="#989b9e" stop-opacity="1" offset="100%"/>
		</radialGradient>
		<radialGradient id="gradient62" cx="73.6839%" cy="63.158%" r="28.8695%">
			<stop stop-color="#3c3a3a" stop-opacity="1" offset="0%"/>
			<stop stop-color="#4d4d4d" stop-opacity="1" offset="100%"/>
		</radialGradient>
		<radialGradient id="gradient63" cx="61.1108%" cy="66.6667%" r="51.464%">
			<stop stop-color="#4d4d4d" stop-opacity="1" offset="0%"/>
			<stop stop-color="#4d4d4d" stop-opacity="1" offset="58.82%"/>
			<stop stop-color="#989b9e" stop-opacity="1" offset="70.98%"/>
			<stop stop-color="#989b9e" stop-opacity="1" offset="100%"/>
		</radialGradient>
		<radialGradient id="gradient64" cx="61.1108%" cy="66.6667%" r="30.8818%">
			<stop stop-color="#3c3a3a" stop-opacity="1" offset="0%"/>
			<stop stop-color="#4d4d4d" stop-opacity="1" offset="100%"/>
		</radialGradient>
		<radialGradient id="gradient65" cx="27.778%" cy="66.6667%" r="51.4165%">
			<stop stop-color="#4d4d4d" stop-opacity="1" offset="0%"/>
			<stop stop-color="#4d4d4d" stop-opacity="1" offset="58.82%"/>
			<stop stop-color="#989b9e" stop-opacity="1" offset="70.98%"/>
			<stop stop-color="#989b9e" stop-opacity="1" offset="100%"/>
		</radialGradient>
		<radialGradient id="gradient66" cx="27.778%" cy="66.6667%" r="30.8496%">
			<stop stop-color="#3c3a3a" stop-opacity="1" offset="0%"/>
			<stop stop-color="#4d4d4d" stop-opacity="1" offset="100%"/>
		</radialGradient>
		<radialGradient id="gradient67" cx="63.158%" cy="68.4208%" r="53.4555%">
			<stop stop-color="#4d4d4d" stop-opacity="1" offset="0%"/>
			<stop stop-color="#4d4d4d" stop-opacity="1" offset="52.16%"/>
			<stop stop-color="#989b9e" stop-opacity="1" offset="61.96%"/>
			<stop stop-color="#989b9e" stop-opacity="1" offset="100%"/>
		</radialGradient>
		<radialGradient id="gradient68" cx="63.158%" cy="68.4208%" r="27.7951%">
			<stop stop-color="#3c3a3a" stop-opacity="1" offset="0%"/>
			<stop stop-color="#4d4d4d" stop-opacity="1" offset="100%"/>
		</radialGradient>
		<radialGradient id="gradient69" cx="78.5388%" cy="57.895%" r="53.4555%">
			<stop stop-color="#4d4d4d" stop-opacity="1" offset="0%"/>
			<stop stop-color="#4d4d4d" stop-opacity="1" offset="52.16%"/>
			<stop stop-color="#989b9e" stop-opacity="1" offset="63.14%"/>
			<stop stop-color="#989b9e" stop-opacity="1" offset="100%"/>
		</radialGradient>
		<radialGradient id="gradient70" cx="78.5388%" cy="57.895%" r="27.7951%">
			<stop stop-color="#3c3a3a" stop-opacity="1" offset="0%"/>
			<stop stop-color="#4d4d4d" stop-opacity="1" offset="100%"/>
		</radialGradient>
		<linearGradient id="gradient71" x1="48.8152%" y1="33.6841%" x2="48.8152%" y2="60.6306%">
			<stop stop-color="#ffffff" stop-opacity="1" offset="0%"/>
			<stop stop-color="#d2d3da" stop-opacity="1" offset="100%"/>
		</linearGradient>
		<linearGradient id="gradient72" x1="48.8152%" y1="9.8937%" x2="48.8152%" y2="88.6562%">
			<stop stop-color="#d2d3da" stop-opacity="1" offset="0%"/>
			<stop stop-color="#f2f3f4" stop-opacity="1" offset="100%"/>
		</linearGradient>
		<linearGradient id="gradient73" x1="46.0055%" y1="-11.0204%" x2="56.7481%" y2="125.4206%">
			<stop stop-color="#ffffff" stop-opacity="1" offset="0%"/>
			<stop stop-color="#e1e2e3" stop-opacity="1" offset="100%"/>
		</linearGradient>
		<linearGradient id="gradient74" x1="49.7608%" y1="58.9474%" x2="49.7608%" y2="48.9733%">
			<stop stop-color="#fdbf2d" stop-opacity="1" offset="0%"/>
			<stop stop-color="#fcdd5d" stop-opacity="1" offset="100%"/>
		</linearGradient>
		<linearGradient id="gradient75" x1="49.7608%" y1="58.9474%" x2="49.7608%" y2="42.9935%">
			<stop stop-color="#fcdd5d" stop-opacity="1" offset="0%"/>
			<stop stop-color="#fcd954" stop-opacity="1" offset="100%"/>
		</linearGradient>
		<linearGradient id="gradient76" x1="49.7608%" y1="58.9474%" x2="49.7608%" y2="37.0063%">
			<stop stop-color="#fcd954" stop-opacity="1" offset="0%"/>
			<stop stop-color="#fdbf2d" stop-opacity="1" offset="100%"/>
		</linearGradient>
		<linearGradient id="gradient77" x1="49.7608%" y1="80.0001%" x2="49.7608%" y2="24.1651%">
			<stop stop-color="#fdbf2d" stop-opacity="1" offset="0%"/>
			<stop stop-color="#ffcd2a" stop-opacity="1" offset="100%"/>
		</linearGradient>
		<linearGradient id="gradient78" x1="52.6316%" y1="37.3887%" x2="52.6316%" y2="63.3452%">
			<stop stop-color="#ffffff" stop-opacity="1" offset="0%"/>
			<stop stop-color="#d2d3da" stop-opacity="1" offset="100%"/>
		</linearGradient>
		<linearGradient id="gradient79" x1="52.6316%" y1="10.6825%" x2="52.6316%" y2="86.5545%">
			<stop stop-color="#d2d3da" stop-opacity="1" offset="0%"/>
			<stop stop-color="#f2f3f4" stop-opacity="1" offset="100%"/>
		</linearGradient>
		<linearGradient id="gradient80" x1="50.4202%" y1="0%" x2="50.4202%" y2="100.0653%">
			<stop stop-color="#4d4d4d" stop-opacity="1" offset="0%"/>
			<stop stop-color="#3c3a3a" stop-opacity="1" offset="100%"/>
		</linearGradient>
		<linearGradient id="gradient81" x1="49.5413%" y1="93.1036%" x2="49.5413%" y2="1.0918%">
			<stop stop-color="#4d4d4d" stop-opacity="1" offset="0%"/>
			<stop stop-color="#9da1a2" stop-opacity="1" offset="100%"/>
		</linearGradient>
		<linearGradient id="gradient82" x1="49.5413%" y1="58.6209%" x2="49.5413%" y2="46.3561%">
			<stop stop-color="#9da1a2" stop-opacity="1" offset="0%"/>
			<stop stop-color="#676565" stop-opacity="1" offset="100%"/>
		</linearGradient>
		<linearGradient id="gradient83" x1="38.4615%" y1="52.8571%" x2="64.5912%" y2="52.8571%">
			<stop stop-color="#ffffff" stop-opacity="1" offset="0%"/>
			<stop stop-color="#d2d3da" stop-opacity="1" offset="100%"/>
		</linearGradient>
		<linearGradient id="gradient84" x1="12.8205%" y1="52.8571%" x2="89.1966%" y2="52.8571%">
			<stop stop-color="#d2d3da" stop-opacity="1" offset="0%"/>
			<stop stop-color="#f2f3f4" stop-opacity="1" offset="100%"/>
		</linearGradient>
		<linearGradient id="gradient85" x1="51.3012%" y1="30.2865%" x2="54.2003%" y2="65.548%">
			<stop stop-color="#ffffff" stop-opacity="1" offset="0%"/>
			<stop stop-color="#d2d3da" stop-opacity="1" offset="100%"/>
		</linearGradient>
		<linearGradient id="gradient86" x1="51.3012%" y1="30.2865%" x2="54.2003%" y2="65.548%">
			<stop stop-color="#d2d3da" stop-opacity="1" offset="0%"/>
			<stop stop-color="#f2f3f4" stop-opacity="1" offset="100%"/>
		</linearGradient>
		<linearGradient id="gradient87" x1="51.3012%" y1="43.6929%" x2="52.7463%" y2="61.3188%">
			<stop stop-color="#f2f3f4" stop-opacity="1" offset="0%"/>
			<stop stop-color="#ffffff" stop-opacity="1" offset="100%"/>
		</linearGradient>
		<linearGradient id="gradient88" x1="51.3012%" y1="43.6929%" x2="52.0232%" y2="52.5061%">
			<stop stop-color="#ffffff" stop-opacity="1" offset="0%"/>
			<stop stop-color="#e3e3e5" stop-opacity="1" offset="100%"/>
		</linearGradient>
		<linearGradient id="gradient89" x1="51.3012%" y1="43.6929%" x2="52.0065%" y2="52.5061%">
			<stop stop-color="#e3e3e5" stop-opacity="1" offset="0%"/>
			<stop stop-color="#e1e0e2" stop-opacity="1" offset="100%"/>
		</linearGradient>
		<linearGradient id="gradient90" x1="51.3012%" y1="43.6929%" x2="52.3815%" y2="56.9075%">
			<stop stop-color="#e1e0e2" stop-opacity="1" offset="0%"/>
			<stop stop-color="#f2f3f4" stop-opacity="1" offset="100%"/>
		</linearGradient>
		<linearGradient id="gradient91" x1="51.3012%" y1="43.6929%" x2="52.5717%" y2="59.1277%">
			<stop stop-color="#f2f3f4" stop-opacity="1" offset="0%"/>
			<stop stop-color="#d2d3da" stop-opacity="1" offset="100%"/>
		</linearGradient>
		<linearGradient id="gradient92" x1="63.2353%" y1="62.1623%" x2="47.1368%" y2="62.1623%">
			<stop stop-color="#fdbf2d" stop-opacity="1" offset="0%"/>
			<stop stop-color="#f05237" stop-opacity="1" offset="100%"/>
		</linearGradient>
		<linearGradient id="gradient93" x1="63.2353%" y1="62.1623%" x2="35.064%" y2="62.1623%">
			<stop stop-color="#f05237" stop-opacity="1" offset="0%"/>
			<stop stop-color="#fbb365" stop-opacity="1" offset="100%"/>
		</linearGradient>
		<linearGradient id="gradient94" x1="77.9412%" y1="62.1623%" x2="35.6788%" y2="62.1623%">
			<stop stop-color="#fbb365" stop-opacity="1" offset="0%"/>
			<stop stop-color="#f37437" stop-opacity="1" offset="100%"/>
		</linearGradient>
		<linearGradient id="gradient95" x1="63.2353%" y1="62.1623%" x2="47.1368%" y2="62.1623%">
			<stop stop-color="#f37437" stop-opacity="1" offset="0%"/>
			<stop stop-color="#f58333" stop-opacity="1" offset="100%"/>
		</linearGradient>
	</defs>
	<g id="Layer%201">
		<path id="st0" d="M 181.7 105.6 C 182.5 105.6 183.1 105 183.1 104.2 L 183.1 100.2 C 183.1 99.4 182.5 98.8 181.7 98.8 L 180.8 98.8 C 180 98.8 179.4 99.4 179.4 100.2 L 179.4 104.2 C 179.4 105 180 105.6 180.8 105.6 L 181.7 105.6 L 181.7 105.6 Z" fill="url(#gradient1)"/>
		<path id="st1" d="M 181.7 105.6 C 182.5 105.6 183.1 105 183.1 104.2 L 183.1 100.2 C 183.1 99.4 182.5 98.8 181.7 98.8 L 180.8 98.8 C 180 98.8 179.4 99.4 179.4 100.2 L 179.4 104.2 C 179.4 105 180 105.6 180.8 105.6 L 181.7 105.6 L 181.7 105.6 Z" fill="url(#gradient2)"/>
		<path id="st2" d="M 181.7 105.6 C 182.5 105.6 183.1 105 183.1 104.2 L 183.1 100.2 C 183.1 99.4 182.5 98.8 181.7 98.8 L 180.8 98.8 C 180 98.8 179.4 99.4 179.4 100.2 L 179.4 104.2 C 179.4 105 180 105.6 180.8 105.6 L 181.7 105.6 L 181.7 105.6 Z" fill="url(#gradient3)"/>
		<path id="st3" d="M 181.7 105.6 C 182.5 105.6 183.1 105 183.1 104.2 L 183.1 100.2 C 183.1 99.4 182.5 98.8 181.7 98.8 L 180.8 98.8 C 180 98.8 179.4 99.4 179.4 100.2 L 179.4 104.2 C 179.4 105 180 105.6 180.8 105.6 L 181.7 105.6 L 181.7 105.6 Z" fill="url(#gradient4)"/>
		<path id="st4" d="M 180.2 106 C 180.2 107.4 179 108.6 177.6 108.6 L 25.1 108.6 C 23.7 108.6 22.5 107.4 22.5 106 L 22.5 89 C 22.5 87.6 23.7 86.4 25.1 86.4 L 177.5 86.4 C 178.9 86.4 180.1 87.6 180.1 89 L 180.1 106 L 180.2 106 Z" fill="url(#gradient5)"/>
		<path id="st5" d="M 180.2 106 C 180.2 107.4 179 108.6 177.6 108.6 L 25.1 108.6 C 23.7 108.6 22.5 107.4 22.5 106 L 22.5 89 C 22.5 87.6 23.7 86.4 25.1 86.4 L 177.5 86.4 C 178.9 86.4 180.1 87.6 180.1 89 L 180.1 106 L 180.2 106 Z" fill="url(#gradient6)"/>
		<path id="st6" d="M 102.2 112.1 C 102.2 112.8 101.6 113.4 100.9 113.4 L 69.1 113.4 C 68.4 113.4 67.8 112.8 67.8 112.1 L 67.8 96.4 C 67.8 95.7 68.4 95.1 69.1 95.1 L 100.9 95.1 C 101.6 95.1 102.2 95.7 102.2 96.4 L 102.2 112.1 L 102.2 112.1 Z" fill="url(#gradient7)"/>
		<path id="st7" d="M 102.2 112.1 C 102.2 112.8 101.6 113.4 100.9 113.4 L 69.1 113.4 C 68.4 113.4 67.8 112.8 67.8 112.1 L 67.8 96.4 C 67.8 95.7 68.4 95.1 69.1 95.1 L 100.9 95.1 C 101.6 95.1 102.2 95.7 102.2 96.4 L 102.2 112.1 L 102.2 112.1 Z" fill="url(#gradient8)"/>
		<path id="st8" d="M 102.2 112.1 C 102.2 112.8 101.6 113.4 100.9 113.4 L 69.1 113.4 C 68.4 113.4 67.8 112.8 67.8 112.1 L 67.8 96.4 C 67.8 95.7 68.4 95.1 69.1 95.1 L 100.9 95.1 C 101.6 95.1 102.2 95.7 102.2 96.4 L 102.2 112.1 L 102.2 112.1 Z" fill="url(#gradient9)"/>
		<path id="st9" d="M 102.2 112.1 C 102.2 112.8 101.6 113.4 100.9 113.4 L 69.1 113.4 C 68.4 113.4 67.8 112.8 67.8 112.1 L 67.8 96.4 C 67.8 95.7 68.4 95.1 69.1 95.1 L 100.9 95.1 C 101.6 95.1 102.2 95.7 102.2 96.4 L 102.2 112.1 L 102.2 112.1 Z" fill="url(#gradient10)"/>
		<path id="st10" d="M 79.4 113.4 L 79.8 113.4 L 79.8 95.1 L 79.4 95.1 L 79.4 113.4 Z" fill="#b3b3b3"/>
		<path id="st11" d="M 79.1 113.4 L 79.6 113.4 L 79.6 95.1 L 79.1 95.1 L 79.1 113.4 Z" fill="#404040"/>
		<path id="st102" d="M 92 113.4 L 92.5 113.4 L 92.5 95.1 L 92 95.1 L 92 113.4 Z" fill="#b3b3b3"/>
		<path id="st112" d="M 91.7 113.4 L 92.2 113.4 L 92.2 95.1 L 91.7 95.1 L 91.7 113.4 Z" fill="#404040"/>
		<path id="st12" d="M 138.6 117.1 C 138.6 105.3 147.2 95.8 157.9 95.8 C 168.6 95.8 177.2 105.4 177.2 117.1 L 138.6 117.1 L 138.6 117.1 L 138.6 117.1 Z" fill="url(#gradient11)"/>
		<path id="st13" d="M 192.8 1.1 L 192.8 96.9 C 192.8 97.5 192.3 98 191.6 98 L 64.6 98 C 64 98 63.4 97.5 63.4 96.9 L 63.4 1.1 C 63.4 0.5 63.9 0 64.6 0 " fill="#b8b8b8"/>
		<path id="st132" d="M 64.7 0 L 191.7 0 C 192.3 0 192.9 0.5 192.9 1.1 " fill="#b8b8b8"/>
		<path id="st14" d="M 190.7 95.3 C 190.7 95.9 190.2 96.3 189.6 96.3 L 66.7 96.3 C 66.1 96.3 65.6 95.9 65.6 95.3 L 65.6 2.8 C 65.6 2.2 66.1 1.8 66.7 1.8 L 189.6 1.8 C 190.2 1.8 190.7 2.2 190.7 2.8 L 190.7 95.3 L 190.7 95.3 Z" fill="url(#gradient12)"/>
		<path id="st15" d="M 190.7 95.3 C 190.7 95.9 190.2 96.3 189.6 96.3 L 66.7 96.3 C 66.1 96.3 65.6 95.9 65.6 95.3 L 65.6 2.8 C 65.6 2.2 66.1 1.8 66.7 1.8 L 189.6 1.8 C 190.2 1.8 190.7 2.2 190.7 2.8 L 190.7 95.3 L 190.7 95.3 Z" fill="url(#gradient13)"/>
		<path id="st16" d="M 190.7 57.9 L 190.7 2.8 C 190.7 2.2 190.2 1.8 189.6 1.8 L 66.7 1.8 C 66.1 1.8 65.6 2.2 65.6 2.8 L 65.6 16.8 C 90.7 34.8 148.7 63.4 190.7 57.9 L 190.7 57.9 Z" fill="url(#gradient14)"/>
		<path id="st17" d="M 157.9 130.5 C 149.5 130.5 142.8 123.7 142.8 115.4 C 142.8 107.1 149.6 100.3 157.9 100.3 C 166.3 100.3 173 107.1 173 115.4 C 173 123.7 166.3 130.5 157.9 130.5 " fill="url(#gradient15)"/>
		<path id="st18" d="M 157.9 130.5 C 149.5 130.5 142.8 123.7 142.8 115.4 C 142.8 107.1 149.6 100.3 157.9 100.3 C 166.3 100.3 173 107.1 173 115.4 C 173 123.7 166.3 130.5 157.9 130.5 " fill="url(#gradient16)"/>
		<path id="st19" d="M 157.7 101.6 C 165.5 101.6 171.7 107.8 172 115.5 C 172 115.4 172 115.2 172 115.1 C 172 107.2 165.6 100.8 157.7 100.8 C 149.8 100.8 143.4 107.2 143.4 115.1 C 143.4 115.2 143.4 115.4 143.4 115.5 C 143.7 107.8 150 101.6 157.7 101.6 L 157.7 101.6 Z" fill="url(#gradient17)"/>
		<path id="st20" d="M 157.7 101.6 C 165.5 101.6 171.7 107.8 172 115.5 C 172 115.4 172 115.2 172 115.1 C 172 107.2 165.6 100.8 157.7 100.8 C 149.8 100.8 143.4 107.2 143.4 115.1 C 143.4 115.2 143.4 115.4 143.4 115.5 C 143.7 107.8 150 101.6 157.7 101.6 L 157.7 101.6 Z" fill="url(#gradient18)"/>
		<path id="st21" d="M 167.3 115.4 C 167.3 120.6 163.1 124.8 157.9 124.8 C 152.7 124.8 148.5 120.6 148.5 115.4 C 148.5 110.2 152.7 106 157.9 106 C 163.1 106 167.3 110.2 167.3 115.4 L 167.3 115.4 Z" fill="url(#gradient19)"/>
		<path id="st22" d="M 167.3 115.4 C 167.3 120.6 163.1 124.8 157.9 124.8 C 152.7 124.8 148.5 120.6 148.5 115.4 C 148.5 110.2 152.7 106 157.9 106 C 163.1 106 167.3 110.2 167.3 115.4 L 167.3 115.4 Z" fill="url(#gradient20)"/>
		<path id="st23" d="M 157.9 106 C 154.4 106 151.3 107.9 149.8 110.8 C 153.2 114.5 159 118.7 167.1 117.8 C 167.3 117.1 167.4 116.3 167.4 115.5 C 167.3 110.2 163.1 106 157.9 106 L 157.9 106 Z" fill="url(#gradient21)"/>
		<path id="st24" d="M 162.3 115.8 C 162.3 118.2 160.4 120.2 157.9 120.2 C 155.5 120.2 153.5 118.3 153.5 115.8 C 153.5 113.4 155.4 111.4 157.9 111.4 C 160.4 111.4 162.3 113.3 162.3 115.8 L 162.3 115.8 Z" fill="#353635"/>
		<path id="st25" d="M 162 115.4 C 162 117.6 160.2 119.4 158 119.4 C 155.8 119.4 154 117.6 154 115.4 C 154 113.2 155.8 111.4 158 111.4 C 160.2 111.4 162 113.2 162 115.4 L 162 115.4 Z" fill="url(#gradient22)"/>
		<path id="st26" d="M 157.9 111.3 C 156.4 111.3 155.1 112.1 154.4 113.3 C 155.8 114.9 158.4 116.8 161.9 116.3 C 162 116 162 115.7 162 115.3 C 162 113.1 160.2 111.3 157.9 111.3 L 157.9 111.3 L 157.9 111.3 Z" fill="url(#gradient23)"/>
		<path id="st27" d="M 158.8 122.6 C 158.8 123.1 158.4 123.5 157.9 123.5 C 157.4 123.5 157 123.1 157 122.6 C 157 122.1 157.4 121.7 157.9 121.7 C 158.4 121.7 158.8 122.1 158.8 122.6 L 158.8 122.6 Z" fill="url(#gradient24)"/>
		<path id="st28" d="M 158.8 122.6 C 158.8 123.1 158.4 123.5 157.9 123.5 C 157.4 123.5 157 123.1 157 122.6 C 157 122.1 157.4 121.7 157.9 121.7 C 158.4 121.7 158.8 122.1 158.8 122.6 L 158.8 122.6 Z" fill="url(#gradient25)"/>
		<path id="st29" d="M 158.8 108.2 C 158.8 108.7 158.4 109.1 157.9 109.1 C 157.4 109.1 157 108.7 157 108.2 C 157 107.7 157.4 107.3 157.9 107.3 C 158.4 107.3 158.8 107.7 158.8 108.2 L 158.8 108.2 Z" fill="url(#gradient26)"/>
		<path id="st30" d="M 158.8 108.2 C 158.8 108.7 158.4 109.1 157.9 109.1 C 157.4 109.1 157 108.7 157 108.2 C 157 107.7 157.4 107.3 157.9 107.3 C 158.4 107.3 158.8 107.7 158.8 108.2 L 158.8 108.2 Z" fill="url(#gradient27)"/>
		<path id="st31" d="M 163.7 119.8 C 164.1 120.2 164.1 120.7 163.7 121.1 C 163.3 121.5 162.8 121.5 162.4 121.1 C 162 120.7 162 120.2 162.4 119.8 C 162.7 119.4 163.3 119.4 163.7 119.8 L 163.7 119.8 Z" fill="url(#gradient28)"/>
		<path id="st32" d="M 163.7 119.8 C 164.1 120.2 164.1 120.7 163.7 121.1 C 163.3 121.5 162.8 121.5 162.4 121.1 C 162 120.7 162 120.2 162.4 119.8 C 162.7 119.4 163.3 119.4 163.7 119.8 L 163.7 119.8 Z" fill="url(#gradient29)"/>
		<path id="st33" d="M 153.5 109.7 C 153.9 110.1 153.9 110.6 153.5 111 C 153.1 111.4 152.6 111.4 152.2 111 C 151.8 110.6 151.8 110.1 152.2 109.7 C 152.6 109.3 153.2 109.3 153.5 109.7 L 153.5 109.7 Z" fill="url(#gradient30)"/>
		<path id="st34" d="M 153.5 109.7 C 153.9 110.1 153.9 110.6 153.5 111 C 153.1 111.4 152.6 111.4 152.2 111 C 151.8 110.6 151.8 110.1 152.2 109.7 C 152.6 109.3 153.2 109.3 153.5 109.7 L 153.5 109.7 Z" fill="url(#gradient31)"/>
		<path id="st35" d="M 165.1 114.5 C 165.6 114.5 166 114.9 166 115.4 C 166 115.9 165.6 116.3 165.1 116.3 C 164.6 116.3 164.2 115.9 164.2 115.4 C 164.2 114.9 164.6 114.5 165.1 114.5 L 165.1 114.5 Z" fill="url(#gradient32)"/>
		<path id="st36" d="M 165.1 114.5 C 165.6 114.5 166 114.9 166 115.4 C 166 115.9 165.6 116.3 165.1 116.3 C 164.6 116.3 164.2 115.9 164.2 115.4 C 164.2 114.9 164.6 114.5 165.1 114.5 L 165.1 114.5 Z" fill="url(#gradient33)"/>
		<path id="st37" d="M 150.7 114.5 C 151.2 114.5 151.6 114.9 151.6 115.4 C 151.6 115.9 151.2 116.3 150.7 116.3 C 150.2 116.3 149.8 115.9 149.8 115.4 C 149.8 114.9 150.2 114.5 150.7 114.5 L 150.7 114.5 Z" fill="url(#gradient34)"/>
		<path id="st38" d="M 150.7 114.5 C 151.2 114.5 151.6 114.9 151.6 115.4 C 151.6 115.9 151.2 116.3 150.7 116.3 C 150.2 116.3 149.8 115.9 149.8 115.4 C 149.8 114.9 150.2 114.5 150.7 114.5 L 150.7 114.5 Z" fill="url(#gradient35)"/>
		<path id="st39" d="M 162.4 109.7 C 162.8 109.3 163.3 109.3 163.7 109.7 C 164.1 110.1 164.1 110.6 163.7 111 C 163.3 111.4 162.8 111.4 162.4 111 C 162 110.6 162 110 162.4 109.7 L 162.4 109.7 Z" fill="url(#gradient36)"/>
		<path id="st40" d="M 162.4 109.7 C 162.8 109.3 163.3 109.3 163.7 109.7 C 164.1 110.1 164.1 110.6 163.7 111 C 163.3 111.4 162.8 111.4 162.4 111 C 162 110.6 162 110 162.4 109.7 L 162.4 109.7 Z" fill="url(#gradient37)"/>
		<path id="st41" d="M 152.2 119.8 C 152.6 119.4 153.1 119.4 153.5 119.8 C 153.9 120.2 153.9 120.7 153.5 121.1 C 153.1 121.5 152.6 121.5 152.2 121.1 C 151.9 120.7 151.9 120.2 152.2 119.8 L 152.2 119.8 Z" fill="url(#gradient38)"/>
		<path id="st42" d="M 152.2 119.8 C 152.6 119.4 153.1 119.4 153.5 119.8 C 153.9 120.2 153.9 120.7 153.5 121.1 C 153.1 121.5 152.6 121.5 152.2 121.1 C 151.9 120.7 151.9 120.2 152.2 119.8 L 152.2 119.8 Z" fill="url(#gradient39)"/>
		<path id="st43" d="M 46.1 95 C 53.1 94.9 61.7 95.6 61.7 95 C 61.6 94.4 61.5 19.8 61.5 19.8 C 61.5 19.8 26.9 18.7 22.3 22 C 17.7 25.3 1.9 37.9 1.4 71 C 1 106.8 -0.5 106.7 2 108.9 C 4.5 111.1 29.2 109.7 29.2 109.7 C 31.6 101.2 38.2 95 46.1 95 L 46.1 95 Z" fill="url(#gradient40)"/>
		<path id="st44" d="M 46.1 95 C 53.1 94.9 61.7 95.6 61.7 95 C 61.6 94.4 61.5 19.8 61.5 19.8 C 61.5 19.8 26.9 18.7 22.3 22 C 17.7 25.3 1.9 37.9 1.4 71 C 1 106.8 -0.5 106.7 2 108.9 C 4.5 111.1 29.2 109.7 29.2 109.7 C 31.6 101.2 38.2 95 46.1 95 L 46.1 95 Z" fill="url(#gradient41)"/>
		<path id="st45" d="M 60.4 21 C 60.4 21 26.6 19.9 22.1 23.2 C 21.7 23.4 20.8 24.1 20.9 24.1 C 26.4 20.1 59.8 21.6 59.8 21.6 C 59.8 21.6 59.7 85.2 59.8 94.2 C 60.4 94.2 60.7 94.1 60.7 94 C 60.5 93.5 60.4 21 60.4 21 L 60.4 21 Z" fill="url(#gradient42)"/>
		<path id="st46" d="M 26 116.2 C 26 104.4 34.6 94.9 45.3 94.9 C 56 94.9 64.6 104.5 64.6 116.2 L 26 116.2 L 26 116.2 L 26 116.2 Z" fill="url(#gradient43)"/>
		<path id="st47" d="M 24.9 105.1 C 29.1 95.5 38.7 89.5 48.3 91.3 C 49.9 91.6 51.5 92.1 52.8 92.8 C 52.9 92.9 53 92.9 53.1 92.9 C 51.4 92 49.5 91.2 47.5 90.9 C 36.6 88.9 25.8 96.3 23.3 107.6 L 23.7 107.7 C 24 106.8 24.4 105.9 24.9 105.1 L 24.9 105.1 Z" fill="url(#gradient44)"/>
		<path id="st48" d="M 24.9 105.1 C 29.1 95.5 38.7 89.5 48.3 91.3 C 49.9 91.6 51.5 92.1 52.8 92.8 C 52.9 92.9 53 92.9 53.1 92.9 C 51.4 92 49.5 91.2 47.5 90.9 C 36.6 88.9 25.8 96.3 23.3 107.6 L 23.7 107.7 C 24 106.8 24.4 105.9 24.9 105.1 L 24.9 105.1 Z" fill="url(#gradient45)"/>
		<path id="st49" d="M 45.5 129.9 C 37.1 129.9 30.4 123.1 30.4 114.8 C 30.4 106.5 37.2 99.7 45.5 99.7 C 53.8 99.7 60.6 106.5 60.6 114.8 C 60.6 123.1 53.9 129.9 45.5 129.9 " fill="url(#gradient46)"/>
		<path id="st50" d="M 45.5 129.9 C 37.1 129.9 30.4 123.1 30.4 114.8 C 30.4 106.5 37.2 99.7 45.5 99.7 C 53.8 99.7 60.6 106.5 60.6 114.8 C 60.6 123.1 53.9 129.9 45.5 129.9 " fill="url(#gradient47)"/>
		<path id="st51" d="M 45.4 100.9 C 53.2 100.9 59.4 107.1 59.7 114.8 C 59.7 114.7 59.7 114.5 59.7 114.4 C 59.7 106.5 53.3 100.1 45.4 100.1 C 37.5 100.1 31.1 106.5 31.1 114.4 C 31.1 114.5 31.1 114.7 31.1 114.8 C 31.3 107.1 37.7 100.9 45.4 100.9 L 45.4 100.9 Z" fill="url(#gradient48)"/>
		<path id="st52" d="M 45.4 100.9 C 53.2 100.9 59.4 107.1 59.7 114.8 C 59.7 114.7 59.7 114.5 59.7 114.4 C 59.7 106.5 53.3 100.1 45.4 100.1 C 37.5 100.1 31.1 106.5 31.1 114.4 C 31.1 114.5 31.1 114.7 31.1 114.8 C 31.3 107.1 37.7 100.9 45.4 100.9 L 45.4 100.9 Z" fill="url(#gradient49)"/>
		<path id="st53" d="M 55 114.8 C 55 120 50.8 124.2 45.6 124.2 C 40.4 124.2 36.2 120 36.2 114.8 C 36.2 109.6 40.4 105.4 45.6 105.4 C 50.8 105.4 55 109.6 55 114.8 L 55 114.8 Z" fill="url(#gradient50)"/>
		<path id="st54" d="M 55 114.8 C 55 120 50.8 124.2 45.6 124.2 C 40.4 124.2 36.2 120 36.2 114.8 C 36.2 109.6 40.4 105.4 45.6 105.4 C 50.8 105.4 55 109.6 55 114.8 L 55 114.8 Z" fill="url(#gradient51)"/>
		<path id="st55" d="M 45.6 105.3 C 42.1 105.3 39 107.2 37.5 110.1 C 40.9 113.7 46.7 118 54.8 117.1 C 55 116.4 55.1 115.6 55.1 114.8 C 55 109.6 50.8 105.3 45.6 105.3 L 45.6 105.3 Z" fill="url(#gradient52)"/>
		<path id="st242" d="M 50 115.2 C 50 117.6 48.1 119.6 45.6 119.6 C 43.1 119.6 41.2 117.7 41.2 115.2 C 41.2 112.8 43.1 110.8 45.6 110.8 C 48.1 110.8 50 112.8 50 115.2 L 50 115.2 Z" fill="#353635"/>
		<path id="st56" d="M 49.7 114.8 C 49.7 117 47.9 118.8 45.7 118.8 C 43.5 118.8 41.7 117 41.7 114.8 C 41.7 112.6 43.5 110.8 45.7 110.8 C 47.9 110.7 49.7 112.5 49.7 114.8 L 49.7 114.8 Z" fill="url(#gradient53)"/>
		<path id="st57" d="M 45.6 110.7 C 44.1 110.7 42.8 111.5 42.1 112.7 C 43.5 114.3 46.1 116.2 49.6 115.7 C 49.7 115.4 49.7 115.1 49.7 114.7 C 49.7 112.5 47.9 110.7 45.6 110.7 L 45.6 110.7 L 45.6 110.7 Z" fill="url(#gradient54)"/>
		<path id="st58" d="M 46.5 122 C 46.5 122.5 46.1 122.9 45.6 122.9 C 45.1 122.9 44.7 122.5 44.7 122 C 44.7 121.5 45.1 121.1 45.6 121.1 C 46.1 121.1 46.5 121.5 46.5 122 L 46.5 122 Z" fill="url(#gradient55)"/>
		<path id="st59" d="M 46.5 122 C 46.5 122.5 46.1 122.9 45.6 122.9 C 45.1 122.9 44.7 122.5 44.7 122 C 44.7 121.5 45.1 121.1 45.6 121.1 C 46.1 121.1 46.5 121.5 46.5 122 L 46.5 122 Z" fill="url(#gradient56)"/>
		<path id="st60" d="M 46.5 107.6 C 46.5 108.1 46.1 108.5 45.6 108.5 C 45.1 108.5 44.7 108.1 44.7 107.6 C 44.7 107.1 45.1 106.7 45.6 106.7 C 46.1 106.7 46.5 107.1 46.5 107.6 L 46.5 107.6 Z" fill="url(#gradient57)"/>
		<path id="st61" d="M 46.5 107.6 C 46.5 108.1 46.1 108.5 45.6 108.5 C 45.1 108.5 44.7 108.1 44.7 107.6 C 44.7 107.1 45.1 106.7 45.6 106.7 C 46.1 106.7 46.5 107.1 46.5 107.6 L 46.5 107.6 Z" fill="url(#gradient58)"/>
		<path id="st62" d="M 51.4 119.2 C 51.8 119.6 51.8 120.1 51.4 120.5 C 51 120.9 50.5 120.9 50.1 120.5 C 49.7 120.1 49.7 119.6 50.1 119.2 C 50.4 118.9 51 118.9 51.4 119.2 L 51.4 119.2 Z" fill="url(#gradient59)"/>
		<path id="st63" d="M 51.4 119.2 C 51.8 119.6 51.8 120.1 51.4 120.5 C 51 120.9 50.5 120.9 50.1 120.5 C 49.7 120.1 49.7 119.6 50.1 119.2 C 50.4 118.9 51 118.9 51.4 119.2 L 51.4 119.2 Z" fill="url(#gradient60)"/>
		<path id="st64" d="M 41.2 109.1 C 41.6 109.5 41.6 110 41.2 110.4 C 40.8 110.8 40.3 110.8 39.9 110.4 C 39.5 110 39.5 109.5 39.9 109.1 C 40.3 108.7 40.8 108.7 41.2 109.1 L 41.2 109.1 Z" fill="url(#gradient61)"/>
		<path id="st65" d="M 41.2 109.1 C 41.6 109.5 41.6 110 41.2 110.4 C 40.8 110.8 40.3 110.8 39.9 110.4 C 39.5 110 39.5 109.5 39.9 109.1 C 40.3 108.7 40.8 108.7 41.2 109.1 L 41.2 109.1 Z" fill="url(#gradient62)"/>
		<path id="st66" d="M 52.8 113.8 C 53.3 113.8 53.7 114.2 53.7 114.7 C 53.7 115.2 53.3 115.6 52.8 115.6 C 52.3 115.6 51.9 115.2 51.9 114.7 C 51.9 114.3 52.3 113.8 52.8 113.8 L 52.8 113.8 Z" fill="url(#gradient63)"/>
		<path id="st67" d="M 52.8 113.8 C 53.3 113.8 53.7 114.2 53.7 114.7 C 53.7 115.2 53.3 115.6 52.8 115.6 C 52.3 115.6 51.9 115.2 51.9 114.7 C 51.9 114.3 52.3 113.8 52.8 113.8 L 52.8 113.8 Z" fill="url(#gradient64)"/>
		<path id="st68" d="M 38.4 113.8 C 38.9 113.8 39.3 114.2 39.3 114.7 C 39.3 115.2 38.9 115.6 38.4 115.6 C 37.9 115.6 37.5 115.2 37.5 114.7 C 37.5 114.3 37.9 113.8 38.4 113.8 L 38.4 113.8 Z" fill="url(#gradient65)"/>
		<path id="st69" d="M 38.4 113.8 C 38.9 113.8 39.3 114.2 39.3 114.7 C 39.3 115.2 38.9 115.6 38.4 115.6 C 37.9 115.6 37.5 115.2 37.5 114.7 C 37.5 114.3 37.9 113.8 38.4 113.8 L 38.4 113.8 Z" fill="url(#gradient66)"/>
		<path id="st70" d="M 50.1 109 C 50.5 108.6 51 108.6 51.4 109 C 51.8 109.4 51.8 109.9 51.4 110.3 C 51 110.7 50.5 110.7 50.1 110.3 C 49.7 109.9 49.7 109.4 50.1 109 L 50.1 109 Z" fill="url(#gradient67)"/>
		<path id="st71" d="M 50.1 109 C 50.5 108.6 51 108.6 51.4 109 C 51.8 109.4 51.8 109.9 51.4 110.3 C 51 110.7 50.5 110.7 50.1 110.3 C 49.7 109.9 49.7 109.4 50.1 109 L 50.1 109 Z" fill="url(#gradient68)"/>
		<path id="st72" d="M 39.8 119.2 C 40.2 118.8 40.7 118.8 41.1 119.2 C 41.5 119.6 41.5 120.1 41.1 120.5 C 40.7 120.9 40.2 120.9 39.8 120.5 C 39.4 120.1 39.5 119.6 39.8 119.2 L 39.8 119.2 Z" fill="url(#gradient69)"/>
		<path id="st73" d="M 39.8 119.2 C 40.2 118.8 40.7 118.8 41.1 119.2 C 41.5 119.6 41.5 120.1 41.1 120.5 C 40.7 120.9 40.2 120.9 39.8 120.5 C 39.4 120.1 39.5 119.6 39.8 119.2 L 39.8 119.2 Z" fill="url(#gradient70)"/>
		<path id="st74" d="M 53.3 52.8 C 53.3 40.2 53.2 28.7 53.2 28.7 C 53.2 28.7 28.1 26.9 24.7 29.4 C 21.5 31.8 11.4 40.3 9.7 62 L 53.3 52.8 L 53.3 52.8 L 53.3 52.8 Z" fill="#fed600"/>
		<path id="st75" d="M 53.1 52.4 C 53.1 39.6 53 27.8 53 27.8 C 53 27.8 28 26 24.6 28.6 C 21.5 31 11.3 39.7 9.7 61.8 L 53.1 52.4 L 53.1 52.4 L 53.1 52.4 Z" fill="#c67629"/>
		<path id="st76" d="M 52.6 52.2 C 52.6 39.7 52.5 28.3 52.5 28.3 C 52.5 28.3 28.2 26.5 24.9 29 C 21.9 31.4 11.9 39.8 10.4 61.3 L 52.6 52.2 L 52.6 52.2 L 52.6 52.2 Z" fill="url(#gradient71)"/>
		<path id="st77" d="M 52.6 52.2 C 52.6 39.7 52.5 28.3 52.5 28.3 C 52.5 28.3 28.2 26.5 24.9 29 C 21.9 31.4 11.9 39.8 10.4 61.3 L 52.6 52.2 L 52.6 52.2 L 52.6 52.2 Z" fill="url(#gradient72)"/>
		<path id="st78" d="M 52.6 36.5 C 52.6 31.5 52.6 28.3 52.6 28.3 C 52.6 28.3 28.3 26.5 25 29 C 23.3 30.3 19.6 33.5 16.3 39.6 C 24.2 42.5 40.8 46.4 52.6 36.5 L 52.6 36.5 Z" fill="url(#gradient73)"/>
		<path id="st79" d="M 21.5 107.1 C 21.4 110.1 20.7 111.9 20.7 111.9 L 0.6 111.9 L 0.6 102.4 L 20.7 102.4 C 20.7 102.4 21.5 104.1 21.5 107.1 L 21.5 107.1 Z" fill="url(#gradient74)"/>
		<path id="st80" d="M 21.5 107.1 C 21.4 110.1 20.7 111.9 20.7 111.9 L 0.6 111.9 L 0.6 102.4 L 20.7 102.4 C 20.7 102.4 21.5 104.1 21.5 107.1 L 21.5 107.1 Z" fill="url(#gradient75)"/>
		<path id="st81" d="M 21.5 107.1 C 21.4 110.1 20.7 111.9 20.7 111.9 L 0.6 111.9 L 0.6 102.4 L 20.7 102.4 C 20.7 102.4 21.5 104.1 21.5 107.1 L 21.5 107.1 Z" fill="url(#gradient76)"/>
		<path id="st82" d="M 21.5 107.1 C 21.4 110.1 20.7 111.9 20.7 111.9 L 0.6 111.9 L 0.6 102.4 L 20.7 102.4 C 20.7 102.4 21.5 104.1 21.5 107.1 L 21.5 107.1 Z" fill="url(#gradient77)"/>
		<path id="st752" d="M 61.7 75.1 L 2 84.1 L 1.8 83.2 L 61.6 74.2 L 61.7 75.1 Z" fill="#c67629"/>
		<path id="st742" d="M 61.6 75.2 L 1.8 84.2 L 1.7 83.7 L 61.5 74.7 L 61.6 75.2 Z" fill="#fed600"/>
		<path id="st753" d="M 55.1 94.7 L 54.7 94.7 L 54.7 25.1 L 55.1 25.1 L 55.1 94.7 Z" fill="#c67629"/>
		<path id="st754" d="M 20.1 25.3 L 20.1 24.8 L 55.1 24.8 L 55.1 25.3 L 20.1 25.3 Z" fill="#c67629"/>
		<path id="st755" d="M 15.4 28.2 C 15.5 28.3 9.6 36 6.3 43.8 C 3 51.6 1.8 62.5 1.8 62.5 L 6.6 62.2 C 6.6 62.2 8.5 50.2 10.4 44.3 C 12.3 38.3 17.5 28.5 17.5 28.5 C 17.5 28.5 15.2 28.1 15.4 28.2 L 15.4 28.2 Z" fill="#c67629"/>
		<path id="st83" d="M 15.4 28.4 C 15.3 28.4 15.3 28.4 15.3 28.4 C 10 34.6 3.8 45 2 62.1 C 5.2 62 6.2 61.7 6.2 61.7 C 6.2 61.7 8.3 49.8 10.2 44 C 12.1 38.2 17.2 28.6 17.2 28.6 L 15.4 28.4 L 15.4 28.4 L 15.4 28.4 Z" fill="url(#gradient78)"/>
		<path id="st84" d="M 15.4 28.4 C 15.3 28.4 15.3 28.4 15.3 28.4 C 10 34.6 3.8 45 2 62.1 C 5.2 62 6.2 61.7 6.2 61.7 C 6.2 61.7 8.3 49.8 10.2 44 C 12.1 38.2 17.2 28.6 17.2 28.6 L 15.4 28.4 L 15.4 28.4 L 15.4 28.4 Z" fill="url(#gradient79)"/>
		<path id="st85" d="M 52.9 65.6 C 52.9 66.2 52.5 66.6 51.9 66.6 L 42 66.6 C 41.4 66.6 41 66.2 41 65.6 L 41 63 C 41 62.4 41.4 62 42 62 L 51.9 62 C 52.5 62 52.9 62.4 52.9 63 L 52.9 65.6 L 52.9 65.6 Z" fill="url(#gradient80)"/>
		<path id="st86" d="M 52.5 64.6 C 52.5 65 52.1 65.2 51.6 65.2 L 42.5 65.2 C 42 65.2 41.6 64.9 41.6 64.6 L 41.6 62.9 C 41.6 62.5 42 62.3 42.5 62.3 L 51.6 62.3 C 52.1 62.3 52.5 62.6 52.5 62.9 L 52.5 64.6 L 52.5 64.6 Z" fill="url(#gradient81)"/>
		<path id="st87" d="M 52.5 64.6 C 52.5 65 52.1 65.2 51.6 65.2 L 42.5 65.2 C 42 65.2 41.6 64.9 41.6 64.6 L 41.6 62.9 C 41.6 62.5 42 62.3 42.5 62.3 L 51.6 62.3 C 52.1 62.3 52.5 62.6 52.5 62.9 L 52.5 64.6 L 52.5 64.6 Z" fill="url(#gradient82)"/>
		<path id="st88" d="M 8.7 105 C 8.7 105 4.7 110.3 3.9 110.3 L 1.6 110.3 C 0.8 110.3 0.2 109.7 0.2 108.9 L 0.2 96 C 0.2 95.2 0.8 94.6 1.6 94.6 L 3.9 94.6 C 4.7 94.6 5.3 95.2 5.3 96 L 8.7 105 L 8.7 105 L 8.7 105 Z" fill="#faa51a"/>
		<path id="st89" d="M 7.8 104.8 C 7.8 104.8 4.1 109.6 3.4 109.6 L 1.3 109.6 C 0.6 109.6 0 109 0 108.3 L 0 96.9 C 0 96.2 0.6 95.6 1.3 95.6 L 3.4 95.6 C 4.1 95.6 4.7 96.2 4.7 96.9 L 7.8 104.8 L 7.8 104.8 Z" fill="url(#gradient83)"/>
		<path id="st90" d="M 7.8 104.8 C 7.8 104.8 4.1 109.6 3.4 109.6 L 1.3 109.6 C 0.6 109.6 0 109 0 108.3 L 0 96.9 C 0 96.2 0.6 95.6 1.3 95.6 L 3.4 95.6 C 4.1 95.6 4.7 96.2 4.7 96.9 L 7.8 104.8 L 7.8 104.8 Z" fill="url(#gradient84)"/>
		<path id="st756" d="M 12.5 59.3 C 12.5 59.3 12.7 60.7 13.4 61.5 C 14 62.2 15.8 63.5 13.7 63.7 C 11.5 63.8 9.8 63.8 10.8 62.3 C 11.8 60.8 11.1 59.1 10.9 58.8 C 10.6 58.4 12.5 59.3 12.5 59.3 L 12.5 59.3 Z" fill="#c67629"/>
		<path id="st91" d="M 12.5 58.8 C 12.5 58.8 13.1 60.7 13.3 61.2 C 13.6 61.8 15.7 63.2 13.7 63.4 C 11.7 63.5 10 63.5 11 61.8 C 11.9 60.2 10.7 57.8 10.7 57.8 L 12.5 58.8 L 12.5 58.8 L 12.5 58.8 Z" fill="#676767"/>
		<path id="st92" d="M 13 54.2 C 13.2 54.9 13.6 56.5 13.8 57.3 C 14 58.1 14.4 59.5 14 59.9 C 13.6 60.2 12.6 60.2 11.4 60.2 C 10.2 60.2 8.4 60.1 7.8 58.7 C 7.1 57.1 9.2 55 10 54.2 C 10.9 53.4 11.6 52.5 12.2 52.8 C 12.7 53.1 12.8 53.6 13 54.2 L 13 54.2 L 13 54.2 Z" fill="url(#gradient85)"/>
		<path id="st93" d="M 13 54.2 C 13.2 54.9 13.6 56.5 13.8 57.3 C 14 58.1 14.4 59.5 14 59.9 C 13.6 60.2 12.6 60.2 11.4 60.2 C 10.2 60.2 8.4 60.1 7.8 58.7 C 7.1 57.1 9.2 55 10 54.2 C 10.9 53.4 11.6 52.5 12.2 52.8 C 12.7 53.1 12.8 53.6 13 54.2 L 13 54.2 L 13 54.2 Z" fill="url(#gradient86)"/>
		<path id="st94" d="M 13 54.2 C 13.2 54.9 13.6 56.5 13.8 57.3 C 14 58.1 14.4 59.5 14 59.9 C 13.6 60.2 12.6 60.2 11.4 60.2 C 10.2 60.2 8.4 60.1 7.8 58.7 C 7.1 57.1 9.2 55 10 54.2 C 10.9 53.4 11.6 52.5 12.2 52.8 C 12.7 53.1 12.8 53.6 13 54.2 L 13 54.2 L 13 54.2 Z" fill="url(#gradient87)"/>
		<path id="st95" d="M 13 54.2 C 13.2 54.9 13.6 56.5 13.8 57.3 C 14 58.1 14.4 59.5 14 59.9 C 13.6 60.2 12.6 60.2 11.4 60.2 C 10.2 60.2 8.4 60.1 7.8 58.7 C 7.1 57.1 9.2 55 10 54.2 C 10.9 53.4 11.6 52.5 12.2 52.8 C 12.7 53.1 12.8 53.6 13 54.2 L 13 54.2 L 13 54.2 Z" fill="url(#gradient88)"/>
		<path id="st96" d="M 13 54.2 C 13.2 54.9 13.6 56.5 13.8 57.3 C 14 58.1 14.4 59.5 14 59.9 C 13.6 60.2 12.6 60.2 11.4 60.2 C 10.2 60.2 8.4 60.1 7.8 58.7 C 7.1 57.1 9.2 55 10 54.2 C 10.9 53.4 11.6 52.5 12.2 52.8 C 12.7 53.1 12.8 53.6 13 54.2 L 13 54.2 L 13 54.2 Z" fill="url(#gradient89)"/>
		<path id="st97" d="M 13 54.2 C 13.2 54.9 13.6 56.5 13.8 57.3 C 14 58.1 14.4 59.5 14 59.9 C 13.6 60.2 12.6 60.2 11.4 60.2 C 10.2 60.2 8.4 60.1 7.8 58.7 C 7.1 57.1 9.2 55 10 54.2 C 10.9 53.4 11.6 52.5 12.2 52.8 C 12.7 53.1 12.8 53.6 13 54.2 L 13 54.2 L 13 54.2 Z" fill="url(#gradient90)"/>
		<path id="st98" d="M 13 54.2 C 13.2 54.9 13.6 56.5 13.8 57.3 C 14 58.1 14.4 59.5 14 59.9 C 13.6 60.2 12.6 60.2 11.4 60.2 C 10.2 60.2 8.4 60.1 7.8 58.7 C 7.1 57.1 9.2 55 10 54.2 C 10.9 53.4 11.6 52.5 12.2 52.8 C 12.7 53.1 12.8 53.6 13 54.2 L 13 54.2 L 13 54.2 Z" fill="url(#gradient91)"/>
		<path id="st912" d="M 11.8 59.9 L 11.4 59.9 C 10.3 59.9 8.6 59.9 8 58.5 C 7.7 57.9 7.9 56.6 10.2 54.3 L 10.6 53.9 C 11.2 53.3 11.8 52.7 12.1 52.8 C 12.5 53 12.5 53.3 12.7 53.9 L 12.8 54.1 L 13.2 55.5 L 13.6 57.2 C 14.1 58.9 14 59.4 14 59.5 C 13.7 59.8 12.8 59.8 11.8 59.9 L 11.8 59.9 L 11.8 59.9 ZM 10.2 53.6 L 9.8 54 C 7.8 55.9 7.1 57.5 7.6 58.8 C 8.3 60.4 10.3 60.4 11.4 60.5 L 11.8 60.5 C 12.9 60.5 13.7 60.5 14.2 60.2 C 14.6 59.8 14.5 58.8 14.1 57.4 L 13.3 54.3 L 13.2 54.1 C 13.1 53.5 12.9 53 12.3 52.7 C 11.7 52.4 11 53.1 10.2 53.9 L 10.2 53.6 L 10.2 53.6 Z" fill="#676767"/>
		<path id="st99" d="M 7.7 92 C 7.7 92.8 8.3 93.4 9.1 93.4 L 13.1 93.4 C 13.9 93.4 14.5 92.8 14.5 92 L 14.5 91.1 C 14.5 90.3 13.9 89.7 13.1 89.7 L 9.1 89.7 C 8.3 89.7 7.7 90.3 7.7 91.1 L 7.7 92 L 7.7 92 Z" fill="url(#gradient92)"/>
		<path id="st100" d="M 7.7 92 C 7.7 92.8 8.3 93.4 9.1 93.4 L 13.1 93.4 C 13.9 93.4 14.5 92.8 14.5 92 L 14.5 91.1 C 14.5 90.3 13.9 89.7 13.1 89.7 L 9.1 89.7 C 8.3 89.7 7.7 90.3 7.7 91.1 L 7.7 92 L 7.7 92 Z" fill="url(#gradient93)"/>
		<path id="st101" d="M 7.7 92 C 7.7 92.8 8.3 93.4 9.1 93.4 L 13.1 93.4 C 13.9 93.4 14.5 92.8 14.5 92 L 14.5 91.1 C 14.5 90.3 13.9 89.7 13.1 89.7 L 9.1 89.7 C 8.3 89.7 7.7 90.3 7.7 91.1 L 7.7 92 L 7.7 92 Z" fill="url(#gradient94)"/>
		<path id="st102" d="M 7.7 92 C 7.7 92.8 8.3 93.4 9.1 93.4 L 13.1 93.4 C 13.9 93.4 14.5 92.8 14.5 92 L 14.5 91.1 C 14.5 90.3 13.9 89.7 13.1 89.7 L 9.1 89.7 C 8.3 89.7 7.7 90.3 7.7 91.1 L 7.7 92 L 7.7 92 Z" fill="url(#gradient95)"/>
		<path id="st757" d="M 13.2 93.2 L 9.2 93.2 C 8.6 93.2 8 92.7 8 92 L 8 91.1 C 8 90.5 8.5 89.9 9.2 89.9 L 13.2 89.9 C 13.8 89.9 14.4 90.4 14.4 91.1 L 14.4 92 C 14.3 92.7 13.8 93.2 13.2 93.2 L 13.2 93.2 ZM 9.2 89.4 C 8.3 89.4 7.5 90.1 7.5 91.1 L 7.5 92 C 7.5 92.9 8.2 93.7 9.2 93.7 L 13.2 93.7 C 14.1 93.7 14.9 93 14.9 92 L 14.9 91.1 C 14.9 90.2 14.2 89.4 13.2 89.4 L 9.2 89.4 L 9.2 89.4 Z" fill="#c67629"/>
	</g>
</svg>