<?xml version="1.0" standalone="no"?>
<!-- Generator: Adobe Fireworks 10, Export SVG Extension by Aaron Beall (http://fireworks.abeall.com) . Version: 0.6.1  -->
<!DOCTYPE svg PUBLIC "-//W3C//DTD SVG 1.1//EN" "http://www.w3.org/Graphics/SVG/1.1/DTD/svg11.dtd">
<svg id="cardbox.fw-Page%201" viewBox="0 0 247 199" style="background-color:#ffffff00" version="1.1"
	xmlns="http://www.w3.org/2000/svg" xmlns:xlink="http://www.w3.org/1999/xlink" xml:space="preserve"
	x="0px" y="0px" width="247px" height="199px"
>
	<g id="Layer%201">
		<g>
			<path id="path2422" d="M 185 179 L 245 161 L 245 99 L 185 81 L 124 99 L 124 161 L 185 179 Z" stroke="#b7946e" stroke-width="1" fill="#c7a172"/>
			<path id="path4367" d="M 217.1743 124.4052 C 217.8299 124.3861 218.9213 124.2266 218.8897 125.3598 L 218.4282 141.9025 C 218.207 142.9275 217.5667 143.4815 217.2156 143.5083 L 191.4392 152.343 C 190.2001 152.5982 190.0919 152.0565 189.9646 151.5282 L 190.4833 134.2264 C 190.516 133.1368 191.3933 132.6662 191.7671 132.5464 L 217.1743 124.4052 L 217.1743 124.4052 Z" stroke="#69533c" stroke-width="1" fill="none"/>
			<path id="path5904" d="M 203.4785 132.5968 C 203.2343 132.4409 202.9693 131.7554 203.1112 131.6465 C 203.256 131.5354 203.9641 131.882 204.1207 132.1405 C 204.3383 132.5 203.8597 132.8401 203.4785 132.5968 L 203.4785 132.5968 Z" fill="#5c4a3a"/>
			<path id="g5757" d="M 192.9904 137.4382 L 192.7184 139.0306 L 192.432 135.6898 C 193.9013 135.9459 195.5605 135.7124 197.0125 135.5205 L 196.9892 136.4483 L 196.5893 137.6673 L 196.2213 135.9704 L 195.2548 137.952 L 194.5907 136.519 L 193.7834 138.2553 L 192.9904 137.4382 L 192.9904 137.4382 ZM 197.1148 144.699 C 197.3519 144.6441 197.5431 144.5663 197.5397 144.5261 C 197.5361 144.484 197.4477 144.4806 197.3307 144.5181 C 196.5336 144.7739 195.1187 144.8814 194.0889 144.7646 C 193.3157 144.6768 193.3632 144.6773 193.4352 144.7581 C 193.4852 144.8142 193.9717 144.8663 195.0286 144.9289 C 195.4073 144.9513 196.5863 144.8214 197.1148 144.699 L 197.1148 144.699 ZM 194.4001 145.1562 C 193.2106 145.0753 192.6477 144.8084 192.9694 144.4777 C 193.187 144.254 193.4565 144.1634 194.3487 144.014 L 195.1244 143.8842 L 195.0237 142.7054 L 194.9229 141.5267 L 194.5039 141.4394 C 194.0148 141.3376 193.2609 140.8408 192.9381 140.4076 L 192.8227 139.3025 L 193.0831 137.7451 L 193.9188 138.8363 L 194.6375 136.8702 L 195.1898 138.7239 L 196.062 136.9137 L 196.5351 138.666 L 197.0379 136.7122 L 197.3637 140.0699 C 197.3391 140.1689 197.2974 140.2548 197.2365 140.3708 C 197.005 140.8113 196.5368 141.1952 196.0234 141.3654 L 195.66 141.4858 L 195.7607 142.6644 L 195.8614 143.8429 L 196.281 143.8781 C 197.3292 143.9662 197.6872 144.0264 197.9188 144.1533 C 198.4238 144.4303 198.1917 144.7161 197.2957 144.9204 C 196.6083 145.0771 195.0743 145.2021 194.4001 145.1562 L 194.4001 145.1562 ZM 195.3738 146.2601 L 195.3738 146.2601 L 195.3738 146.2601 Z" fill="#5a4838"/>
			<path id="path5767" d="M 211.4059 139.7702 L 211.3997 138.7793 L 216.8451 136.8677 L 216.9373 137.8338 L 211.4059 139.7702 L 211.4059 139.7702 Z" fill="#564734"/>
			<path id="path5765" d="M 214.5349 136.7042 L 214.5957 131.4516 L 214.0706 131.5643 L 215.2805 129.9972 L 216.8569 130.8505 L 216.077 131.0359 L 216.0156 136.2722 L 214.5349 136.7042 L 214.5349 136.7042 Z" fill="#564734"/>
			<path id="path5769" d="M 211.3771 137.8955 L 211.3182 132.3537 L 210.7931 132.4664 L 212.1228 130.7788 L 213.6991 131.7526 L 213.1885 131.9139 L 213.2169 137.1985 L 211.3771 137.8955 L 211.3771 137.8955 Z" fill="#564734"/>
			<path id="path5906" d="M 205.6961 130.4761 C 204.9214 129.6432 205.5223 129.1339 206.3873 130.0332 C 206.6059 130.3138 206.0205 130.6889 205.6961 130.4761 L 205.6961 130.4761 ZM 203.8408 130.9581 C 203.0661 130.1252 203.667 129.6159 204.532 130.5152 C 204.7505 130.7958 204.1651 131.1709 203.8408 130.9581 L 203.8408 130.9581 ZM 199.7971 132.2707 C 199.5191 131.9671 199.4379 131.5526 199.6362 131.4492 C 199.8852 131.3195 200.5821 131.7597 200.6179 132.0693 C 200.6404 132.2651 200.5834 132.3266 200.3163 132.3944 C 200.05 132.462 199.9506 132.4383 199.7971 132.2707 L 199.7971 132.2707 ZM 199.2074 136.3459 C 198.8487 136.2381 198.542 135.3399 198.8462 135.2882 C 199.0006 135.262 199.4558 135.511 199.7063 135.7588 C 199.9282 135.9782 199.9293 135.9857 199.7671 136.1861 C 199.6156 136.3732 199.4529 136.4197 199.2074 136.3459 L 199.2074 136.3459 ZM 201.6962 131.3653 C 200.9215 130.5324 201.5224 130.0231 202.3874 130.9224 C 202.6059 131.203 202.0205 131.5781 201.6962 131.3653 L 201.6962 131.3653 ZM 207.3683 133.7106 C 207.1911 133.5974 206.9366 132.8523 207.034 132.7319 C 207.0984 132.6523 207.8209 132.9861 208.0465 133.1997 C 208.3871 133.5222 207.7844 133.9762 207.3683 133.7106 L 207.3683 133.7106 ZM 205.5881 132.4758 C 205.2492 132.2496 205.0448 131.4841 205.3112 131.4389 C 205.5386 131.4002 206.2009 131.8645 206.2644 132.1071 C 206.3502 132.4344 205.8965 132.6816 205.5881 132.4758 L 205.5881 132.4758 ZM 200.4994 135.2312 C 200.402 135.169 200.2526 134.9486 200.1673 134.7415 C 199.9488 134.2107 200.1355 134.1086 200.7144 134.4423 C 201.2831 134.77 201.3929 135.1507 200.9531 135.2695 C 200.7991 135.3111 200.598 135.2941 200.4994 135.2312 L 200.4994 135.2312 ZM 198.3781 133.8017 C 198.0924 133.5866 197.8963 132.8894 198.1112 132.8529 C 198.3266 132.8163 199.0995 133.3008 199.1533 133.5061 C 199.1954 133.6669 198.9544 133.9089 198.7109 133.9502 C 198.65 133.9606 198.5003 133.8937 198.3781 133.8017 L 198.3781 133.8017 ZM 202.0919 134.3432 C 201.8575 134.0873 201.7156 133.5658 201.8518 133.4612 C 201.9865 133.3578 202.701 133.7174 202.8503 133.9637 C 203.1052 134.3848 202.4364 134.7195 202.0919 134.3432 L 202.0919 134.3432 ZM 205.1045 133.8771 C 204.8967 133.6781 204.7251 133.013 204.875 132.9875 C 205.2918 132.9167 205.963 133.3976 205.921 133.7369 C 205.89 133.9872 205.3214 134.0848 205.1045 133.8771 L 205.1045 133.8771 ZM 204.9025 141.625 C 204.3996 141.6139 203.7745 141.2145 203.6769 140.842 C 203.6197 140.6234 203.8886 140.7025 204.0591 140.9545 C 204.304 141.3164 204.6639 141.4435 205.1906 141.3541 C 205.5352 141.2956 205.6575 141.2348 205.8458 141.0285 L 206.0774 140.7749 L 205.5857 138.7947 L 205.094 136.8147 L 204.8939 136.8503 C 204.7839 136.8698 204.5349 136.9799 204.3405 137.0949 L 203.9872 137.304 L 203.463 137.1915 C 202.8404 137.0578 202.2898 137.1285 201.7432 137.4124 L 201.3702 137.606 L 201.079 137.4227 C 200.6717 137.1664 200.4137 137.1481 200.0023 137.3466 C 199.8159 137.4365 199.6399 137.4977 199.611 137.4825 C 199.5038 137.4263 199.7687 136.8971 200.0879 136.5301 C 200.7457 135.7736 201.9043 135.1985 203.494 134.8393 C 204.0953 134.7034 204.4193 134.5965 204.504 134.5058 C 204.6158 134.3864 204.6476 134.381 204.8098 134.4538 C 204.9122 134.4998 205.2614 134.5103 205.6145 134.4781 C 207.4924 134.3064 209.1886 134.6676 210.1216 135.4377 C 210.3007 135.5856 210.4346 135.7347 210.4192 135.7692 C 210.4037 135.8036 210.2598 135.837 210.0993 135.8433 C 209.8869 135.8516 209.6909 135.9326 209.3796 136.1408 C 208.9733 136.4126 208.9354 136.4243 208.6201 136.3761 C 208.1318 136.3014 207.3866 136.446 207.0199 136.6865 L 206.7133 136.8876 L 206.2275 136.7968 C 205.3663 136.6359 205.3888 136.5033 205.9141 138.641 C 206.3364 140.3598 206.3686 140.5554 206.2761 140.837 C 206.1194 141.3141 205.5526 141.6393 204.9025 141.625 L 204.9025 141.625 Z" fill="#5c4a3a"/>
			<path id="text5936" d="M 216.36 142.2402 L 216.0396 141.6109 L 214.9131 140.9977 L 215.2015 140.8962 L 215.7827 141.2198 C 215.8906 141.2807 215.9939 141.3431 216.0928 141.407 C 216.107 141.3104 216.1277 141.2 216.1547 141.0758 L 216.2793 140.517 L 216.5555 140.4198 L 216.2766 141.5275 L 216.5971 142.1567 L 216.36 142.2402 L 216.36 142.2402 ZM 213.8648 142.1396 L 214.3744 141.9603 C 214.4828 141.9222 214.5628 141.8831 214.6144 141.843 C 214.666 141.8029 214.6974 141.7568 214.7083 141.7048 C 214.7192 141.6528 214.7126 141.6028 214.6881 141.5548 C 214.6523 141.4846 214.5922 141.4376 214.5076 141.414 C 214.4231 141.3904 214.3144 141.4019 214.1816 141.4487 L 213.6146 141.6482 L 213.8648 142.1396 L 213.8648 142.1396 ZM 214.0504 143.0529 L 213.2939 141.5675 L 214.0882 141.288 C 214.2479 141.2318 214.3761 141.2024 214.4728 141.1998 C 214.5695 141.1973 214.6599 141.221 214.744 141.2711 C 214.8281 141.3212 214.8909 141.3871 214.9325 141.4688 C 214.9862 141.5742 214.9903 141.6775 214.9448 141.7787 C 214.8993 141.8799 214.7956 141.9706 214.6337 142.0507 C 214.7092 142.0536 214.7694 142.0615 214.8143 142.0743 C 214.9104 142.1026 215.0096 142.1454 215.1117 142.2027 L 215.6292 142.4973 L 215.3311 142.6022 L 214.9366 142.3766 C 214.8219 142.3118 214.7301 142.2637 214.6613 142.2321 C 214.5924 142.2006 214.5354 142.1816 214.4903 142.1752 C 214.4453 142.1687 214.4025 142.1683 214.3621 142.1737 C 214.3328 142.1784 214.2876 142.1916 214.2265 142.2131 L 213.9515 142.3098 L 214.2874 142.9695 L 214.0504 143.0529 L 214.0504 143.0529 ZM 212.3859 143.4318 L 212.7684 143.2972 C 212.8865 143.2557 212.9745 143.2139 213.0324 143.1721 C 213.0904 143.1302 213.1309 143.0856 213.1539 143.0385 C 213.1864 142.9721 213.1983 142.8941 213.1896 142.8043 C 213.1808 142.7146 213.1479 142.6137 213.0908 142.5015 C 213.0117 142.3462 212.9202 142.2376 212.8162 142.1758 C 212.7122 142.1141 212.609 142.0844 212.5066 142.0871 C 212.4327 142.0892 212.3253 142.115 212.1843 142.1646 L 211.808 142.297 L 212.3859 143.4318 L 212.3859 143.4318 ZM 212.2381 143.6906 L 211.4816 142.2051 L 212.0987 141.988 C 212.2381 141.939 212.348 141.9087 212.4285 141.897 C 212.5411 141.8805 212.6468 141.8852 212.7454 141.911 C 212.8737 141.9439 212.9874 142.0037 213.0867 142.0902 C 213.186 142.1767 213.2694 142.2862 213.3368 142.4186 C 213.3943 142.5314 213.4293 142.637 213.4419 142.7353 C 213.4545 142.8336 213.4505 142.92 213.4299 142.9946 C 213.4092 143.0692 213.3777 143.1332 213.3353 143.1868 C 213.293 143.2403 213.2343 143.2902 213.1594 143.3365 C 213.0845 143.3828 212.9929 143.425 212.8845 143.4631 L 212.2381 143.6906 L 212.2381 143.6906 ZM 209.7125 143.6604 L 210.1756 143.4975 C 210.3288 143.4435 210.4255 143.3816 210.4658 143.3117 C 210.5061 143.2418 210.5044 143.1639 210.4606 143.0781 C 210.429 143.016 210.383 142.9695 210.3226 142.9385 C 210.2622 142.9077 210.1974 142.896 210.1282 142.9036 C 210.0839 142.9088 210.0079 142.9304 209.9003 142.9682 L 209.4421 143.1295 L 209.7125 143.6604 L 209.7125 143.6604 ZM 209.8722 144.523 L 209.1157 143.0376 L 209.7915 142.7998 C 209.9105 142.758 210.0037 142.7307 210.0713 142.7181 C 210.1654 142.6993 210.251 142.6965 210.3278 142.7097 C 210.4046 142.7229 210.4768 142.7538 210.5444 142.8026 C 210.612 142.8512 210.6645 142.9124 210.702 142.986 C 210.7663 143.1124 210.7723 143.2363 210.7198 143.3579 C 210.6675 143.4795 210.5146 143.5849 210.2612 143.674 L 209.8017 143.8357 L 210.1093 144.4396 L 209.8722 144.523 L 209.8722 144.523 ZM 208.2053 145.1095 L 207.4489 143.6241 L 208.7442 143.1683 L 208.8335 143.3436 L 207.7752 143.716 L 208.0069 144.1709 L 208.998 143.8222 L 209.0867 143.9965 L 208.0956 144.3452 L 208.3531 144.8508 L 209.4529 144.4638 L 209.5422 144.6391 L 208.2053 145.1095 L 208.2053 145.1095 ZM 206.5336 145.6978 L 205.7771 144.2123 L 207.0725 143.7565 L 207.1617 143.9319 L 206.1035 144.3042 L 206.3351 144.7592 L 207.3262 144.4104 L 207.415 144.5847 L 206.4239 144.9334 L 206.6814 145.439 L 207.7812 145.052 L 207.8705 145.2273 L 206.5336 145.6978 L 206.5336 145.6978 ZM 204.8472 146.2911 L 204.0907 144.8057 L 204.3277 144.7223 L 204.7029 145.459 L 205.2174 144.4093 L 205.5388 144.2962 L 205.0938 145.1625 L 206.3282 145.77 L 206.0154 145.8801 L 204.9946 145.3527 L 204.8221 145.693 L 205.0842 146.2077 L 204.8472 146.2911 L 204.8472 146.2911 ZM 202.9862 146.4202 L 202.8928 146.2368 L 203.5686 145.999 L 203.662 146.1824 L 202.9862 146.4202 L 202.9862 146.4202 ZM 200.9659 147.6568 L 200.2095 146.1714 L 201.5049 145.7156 L 201.5941 145.8909 L 200.5358 146.2633 L 200.7675 146.7182 L 201.7586 146.3695 L 201.8473 146.5438 L 200.8562 146.8925 L 201.1137 147.3981 L 202.2135 147.0111 L 202.3028 147.1864 L 200.9659 147.6568 L 200.9659 147.6568 ZM 199.5581 148.1521 L 198.8017 146.6667 L 199.0388 146.5833 L 199.7059 147.8934 L 200.5883 147.583 L 200.6775 147.7583 L 199.5581 148.1521 L 199.5581 148.1521 ZM 198.9141 148.3788 L 198.1576 146.8933 L 198.3947 146.8099 L 199.1512 148.2953 L 198.9141 148.3788 L 198.9141 148.3788 ZM 197.4699 148.1999 L 197.3812 148.0256 L 198.1395 147.7576 L 198.4202 148.3088 C 198.343 148.4268 198.2523 148.527 198.1483 148.6094 C 198.0442 148.6918 197.927 148.756 197.7966 148.8018 C 197.6206 148.8638 197.4448 148.8888 197.2693 148.8769 C 197.0936 148.865 196.939 148.8128 196.8055 148.7204 C 196.672 148.628 196.5681 148.5088 196.4938 148.3629 C 196.4202 148.2184 196.3879 148.0706 196.397 147.9197 C 196.4062 147.7687 196.4636 147.6387 196.5695 147.5298 C 196.6755 147.4209 196.8176 147.335 196.996 147.2722 C 197.1256 147.2267 197.2515 147.2028 197.3739 147.2008 C 197.4964 147.1987 197.6031 147.2183 197.6942 147.2595 C 197.7854 147.3007 197.8718 147.3659 197.9538 147.4549 L 197.7646 147.5789 C 197.6992 147.5127 197.6356 147.465 197.5736 147.4358 C 197.5117 147.4066 197.437 147.392 197.3496 147.3921 C 197.2623 147.3922 197.1733 147.4082 197.0829 147.44 C 196.9746 147.4781 196.8878 147.5247 196.8227 147.5799 C 196.7577 147.6351 196.7122 147.6935 196.6865 147.7551 C 196.6607 147.8167 196.6479 147.879 196.6482 147.9418 C 196.6494 148.0497 196.6773 148.1574 196.732 148.2648 C 196.7994 148.3972 196.8833 148.4983 196.9837 148.5681 C 197.0841 148.6379 197.1979 148.676 197.325 148.6822 C 197.4521 148.6884 197.5747 148.6708 197.6929 148.6292 C 197.7955 148.5931 197.8874 148.5415 197.9685 148.4743 C 198.0495 148.4071 198.1059 148.3461 198.1375 148.2912 L 197.9966 148.0146 L 197.4699 148.1999 L 197.4699 148.1999 ZM 195.2661 148.9431 L 195.8734 148.7294 L 195.477 148.3838 C 195.3563 148.2789 195.2617 148.1911 195.193 148.1205 C 195.2187 148.2238 195.2347 148.3297 195.241 148.4381 L 195.2661 148.9431 L 195.2661 148.9431 ZM 195.0598 149.7349 L 194.9914 148.0075 L 195.2467 147.9176 L 196.7364 149.145 L 196.4664 149.24 L 196.0283 148.8637 L 195.2791 149.1273 L 195.3116 149.6463 L 195.0598 149.7349 L 195.0598 149.7349 ZM 193.2661 149.3875 L 193.7757 149.2083 C 193.884 149.1702 193.964 149.131 194.0156 149.091 C 194.0673 149.0509 194.0986 149.0048 194.1095 148.9528 C 194.1205 148.9007 194.1138 148.8507 194.0894 148.8028 C 194.0536 148.7325 193.9934 148.6855 193.9088 148.662 C 193.8243 148.6383 193.7156 148.6499 193.5828 148.6966 L 193.0158 148.8961 L 193.2661 149.3875 L 193.2661 149.3875 ZM 193.4516 150.3008 L 192.6951 148.8154 L 193.4894 148.5359 C 193.6492 148.4797 193.7773 148.4503 193.874 148.4478 C 193.9707 148.4453 194.0611 148.469 194.1452 148.5191 C 194.2293 148.5691 194.2921 148.635 194.3338 148.7167 C 194.3874 148.8221 194.3915 148.9254 194.346 149.0266 C 194.3006 149.1279 194.1969 149.2186 194.035 149.2986 C 194.1104 149.3015 194.1706 149.3094 194.2156 149.3223 C 194.3117 149.3506 194.4108 149.3934 194.5129 149.4507 L 195.0305 149.7453 L 194.7323 149.8502 L 194.3378 149.6246 C 194.2232 149.5598 194.1314 149.5116 194.0625 149.4801 C 193.9936 149.4485 193.9366 149.4296 193.8916 149.4232 C 193.8465 149.4167 193.8037 149.4162 193.7633 149.4217 C 193.734 149.4264 193.6888 149.4395 193.6277 149.461 L 193.3527 149.5578 L 193.6887 150.2174 L 193.4516 150.3008 L 193.4516 150.3008 ZM 191.9301 150.8362 L 191.1737 149.3508 L 192.3823 148.9255 L 192.4715 149.1008 L 191.5001 149.4426 L 191.7343 149.9026 L 192.5751 149.6068 L 192.6643 149.7821 L 191.8235 150.0779 L 192.1672 150.7527 L 191.9301 150.8362 L 191.9301 150.8362 Z" fill="#5c4a3a"/>
			<path id="path3396" d="M 214.7587 90.1873 L 184.4422 96.6611 L 160.0069 89.1639 L 149.4167 92.1488 L 174.6003 99.7125 L 149.1671 106.8741 L 148.7392 118.9351 L 159.0091 122.0366 L 159.8649 110.3201 L 185.9675 103.0835 L 212.498 110.6647 L 211.6422 122.3811 L 222.354 118.4944 L 222.7679 107.2187 L 196.6653 100.3267 L 226.1962 93.6839 L 214.7587 90.1873 Z" fill="#a28661"/>
			<path id="path7990" d="M 185 117 L 246 99.398 " stroke="#b7946e" stroke-width="1" fill="none"/>
			<path id="path3394" d="M 124 99.398 L 185 117 L 185 179 " stroke="#b7946e" stroke-width="1" fill="none"/>
			<path id="path7994" d="M 185 82 L 245 99 L 245 161 " stroke="#b7946e" stroke-width="1" fill="none"/>
		</g>
		<g>
			<path id="path24222" d="M 62 179 L 122 161 L 122 99 L 62 81 L 1 99 L 1 161 L 62 179 Z" stroke="#b7946e" stroke-width="1" fill="#c7a172"/>
			<path id="path43672" d="M 94.1743 124.4052 C 94.8299 124.3861 95.9213 124.2266 95.8897 125.3598 L 95.4282 141.9025 C 95.207 142.9275 94.5667 143.4815 94.2156 143.5083 L 68.4392 152.343 C 67.2001 152.5982 67.0919 152.0565 66.9646 151.5282 L 67.4833 134.2264 C 67.516 133.1368 68.3933 132.6662 68.7671 132.5464 L 94.1743 124.4052 L 94.1743 124.4052 Z" stroke="#69533c" stroke-width="1" fill="none"/>
			<path id="path59042" d="M 80.4785 132.5968 C 80.2343 132.4409 79.9693 131.7554 80.1112 131.6465 C 80.256 131.5354 80.9641 131.882 81.1207 132.1405 C 81.3383 132.5 80.8597 132.8401 80.4785 132.5968 L 80.4785 132.5968 Z" fill="#5c4a3a"/>
			<path id="g57572" d="M 69.9904 137.4382 L 69.7184 139.0306 L 69.432 135.6898 C 70.9013 135.9459 72.5605 135.7124 74.0125 135.5205 L 73.9892 136.4483 L 73.5893 137.6673 L 73.2213 135.9704 L 72.2548 137.952 L 71.5907 136.519 L 70.7834 138.2553 L 69.9904 137.4382 L 69.9904 137.4382 ZM 74.1148 144.699 C 74.3519 144.6441 74.5431 144.5663 74.5397 144.5261 C 74.5361 144.484 74.4477 144.4806 74.3307 144.5181 C 73.5336 144.7739 72.1187 144.8814 71.0889 144.7646 C 70.3157 144.6768 70.3632 144.6773 70.4352 144.7581 C 70.4852 144.8142 70.9717 144.8663 72.0286 144.9289 C 72.4073 144.9513 73.5863 144.8214 74.1148 144.699 L 74.1148 144.699 ZM 71.4001 145.1562 C 70.2106 145.0753 69.6477 144.8084 69.9694 144.4777 C 70.187 144.254 70.4565 144.1634 71.3487 144.014 L 72.1244 143.8842 L 72.0237 142.7054 L 71.9229 141.5267 L 71.5039 141.4394 C 71.0148 141.3376 70.2609 140.8408 69.9381 140.4076 L 69.8227 139.3025 L 70.0831 137.7451 L 70.9188 138.8363 L 71.6375 136.8702 L 72.1898 138.7239 L 73.062 136.9137 L 73.5351 138.666 L 74.0379 136.7122 L 74.3637 140.0699 C 74.3391 140.1689 74.2974 140.2548 74.2365 140.3708 C 74.005 140.8113 73.5368 141.1952 73.0234 141.3654 L 72.66 141.4858 L 72.7607 142.6644 L 72.8614 143.8429 L 73.281 143.8781 C 74.3292 143.9662 74.6872 144.0264 74.9188 144.1533 C 75.4238 144.4303 75.1917 144.7161 74.2957 144.9204 C 73.6083 145.0771 72.0743 145.2021 71.4001 145.1562 L 71.4001 145.1562 ZM 72.3738 146.2601 L 72.3738 146.2601 L 72.3738 146.2601 Z" fill="#5a4838"/>
			<path id="path57672" d="M 88.4059 139.7702 L 88.3997 138.7793 L 93.8451 136.8677 L 93.9373 137.8338 L 88.4059 139.7702 L 88.4059 139.7702 Z" fill="#564734"/>
			<path id="path57652" d="M 91.5349 136.7042 L 91.5957 131.4516 L 91.0706 131.5643 L 92.2805 129.9972 L 93.8569 130.8505 L 93.077 131.0359 L 93.0156 136.2722 L 91.5349 136.7042 L 91.5349 136.7042 Z" fill="#564734"/>
			<path id="path57692" d="M 88.3771 137.8955 L 88.3182 132.3537 L 87.7931 132.4664 L 89.1228 130.7788 L 90.6991 131.7526 L 90.1885 131.9139 L 90.2169 137.1985 L 88.3771 137.8955 L 88.3771 137.8955 Z" fill="#564734"/>
			<path id="path59062" d="M 82.6961 130.4761 C 81.9214 129.6432 82.5223 129.1339 83.3873 130.0332 C 83.6059 130.3138 83.0205 130.6889 82.6961 130.4761 L 82.6961 130.4761 ZM 80.8408 130.9581 C 80.0661 130.1252 80.667 129.6159 81.532 130.5152 C 81.7505 130.7958 81.1651 131.1709 80.8408 130.9581 L 80.8408 130.9581 ZM 76.7971 132.2707 C 76.5191 131.9671 76.4379 131.5526 76.6362 131.4492 C 76.8852 131.3195 77.5821 131.7597 77.6179 132.0693 C 77.6404 132.2651 77.5834 132.3266 77.3163 132.3944 C 77.05 132.462 76.9506 132.4383 76.7971 132.2707 L 76.7971 132.2707 ZM 76.2074 136.3459 C 75.8487 136.2381 75.542 135.3399 75.8462 135.2882 C 76.0006 135.262 76.4558 135.511 76.7063 135.7588 C 76.9282 135.9782 76.9293 135.9857 76.7671 136.1861 C 76.6156 136.3732 76.4529 136.4197 76.2074 136.3459 L 76.2074 136.3459 ZM 78.6962 131.3653 C 77.9215 130.5324 78.5224 130.0231 79.3874 130.9224 C 79.6059 131.203 79.0205 131.5781 78.6962 131.3653 L 78.6962 131.3653 ZM 84.3683 133.7106 C 84.1911 133.5974 83.9366 132.8523 84.034 132.7319 C 84.0984 132.6523 84.8209 132.9861 85.0465 133.1997 C 85.3871 133.5222 84.7844 133.9762 84.3683 133.7106 L 84.3683 133.7106 ZM 82.5881 132.4758 C 82.2492 132.2496 82.0448 131.4841 82.3112 131.4389 C 82.5387 131.4002 83.2009 131.8645 83.2644 132.1071 C 83.3502 132.4344 82.8965 132.6816 82.5881 132.4758 L 82.5881 132.4758 ZM 77.4994 135.2312 C 77.402 135.169 77.2526 134.9486 77.1673 134.7415 C 76.9488 134.2107 77.1355 134.1086 77.7144 134.4423 C 78.2831 134.77 78.3929 135.1507 77.9531 135.2695 C 77.7991 135.3111 77.598 135.2941 77.4994 135.2312 L 77.4994 135.2312 ZM 75.3781 133.8017 C 75.0924 133.5866 74.8963 132.8894 75.1112 132.8529 C 75.3266 132.8163 76.0995 133.3008 76.1533 133.5061 C 76.1954 133.6669 75.9544 133.9089 75.7109 133.9502 C 75.65 133.9606 75.5003 133.8937 75.3781 133.8017 L 75.3781 133.8017 ZM 79.0919 134.3432 C 78.8575 134.0873 78.7156 133.5658 78.8518 133.4612 C 78.9865 133.3578 79.701 133.7174 79.8503 133.9637 C 80.1052 134.3848 79.4364 134.7195 79.0919 134.3432 L 79.0919 134.3432 ZM 82.1045 133.8771 C 81.8967 133.6781 81.7251 133.013 81.875 132.9875 C 82.2918 132.9167 82.963 133.3976 82.921 133.7369 C 82.89 133.9872 82.3214 134.0848 82.1045 133.8771 L 82.1045 133.8771 ZM 81.9025 141.625 C 81.3996 141.6139 80.7745 141.2145 80.6769 140.842 C 80.6197 140.6234 80.8886 140.7025 81.0591 140.9545 C 81.304 141.3164 81.6639 141.4435 82.1906 141.3541 C 82.5352 141.2956 82.6575 141.2348 82.8458 141.0285 L 83.0774 140.7749 L 82.5857 138.7947 L 82.094 136.8147 L 81.8939 136.8503 C 81.7839 136.8698 81.5349 136.9799 81.3405 137.0949 L 80.9872 137.304 L 80.463 137.1915 C 79.8404 137.0578 79.2898 137.1285 78.7432 137.4124 L 78.3702 137.606 L 78.079 137.4227 C 77.6717 137.1664 77.4137 137.1481 77.0023 137.3466 C 76.8159 137.4365 76.6399 137.4977 76.611 137.4825 C 76.5038 137.4263 76.7687 136.8971 77.0879 136.5301 C 77.7457 135.7736 78.9043 135.1985 80.494 134.8393 C 81.0953 134.7034 81.4193 134.5965 81.504 134.5058 C 81.6158 134.3864 81.6476 134.381 81.8097 134.4538 C 81.9122 134.4998 82.2614 134.5103 82.6145 134.4781 C 84.4924 134.3064 86.1886 134.6676 87.1216 135.4377 C 87.3007 135.5856 87.4346 135.7347 87.4192 135.7692 C 87.4038 135.8036 87.2598 135.837 87.0993 135.8433 C 86.8869 135.8516 86.6909 135.9326 86.3796 136.1408 C 85.9733 136.4126 85.9353 136.4243 85.62 136.3761 C 85.1318 136.3014 84.3866 136.446 84.0199 136.6865 L 83.7133 136.8876 L 83.2275 136.7968 C 82.3663 136.6359 82.3888 136.5033 82.9141 138.641 C 83.3364 140.3598 83.3686 140.5554 83.2761 140.837 C 83.1194 141.3141 82.5525 141.6393 81.9025 141.625 L 81.9025 141.625 Z" fill="#5c4a3a"/>
			<path id="text59362" d="M 93.36 142.2402 L 93.0396 141.6109 L 91.9131 140.9977 L 92.2015 140.8962 L 92.7827 141.2198 C 92.8906 141.2807 92.9939 141.3431 93.0928 141.407 C 93.107 141.3104 93.1277 141.2 93.1547 141.0758 L 93.2793 140.517 L 93.5555 140.4198 L 93.2766 141.5275 L 93.5971 142.1567 L 93.36 142.2402 L 93.36 142.2402 ZM 90.8648 142.1396 L 91.3744 141.9603 C 91.4828 141.9222 91.5628 141.8831 91.6144 141.843 C 91.666 141.8029 91.6974 141.7568 91.7083 141.7048 C 91.7193 141.6528 91.7126 141.6028 91.6881 141.5548 C 91.6523 141.4846 91.5922 141.4376 91.5076 141.414 C 91.4231 141.3904 91.3144 141.4019 91.1816 141.4487 L 90.6146 141.6482 L 90.8648 142.1396 L 90.8648 142.1396 ZM 91.0504 143.0529 L 90.2939 141.5675 L 91.0882 141.288 C 91.2479 141.2318 91.3761 141.2024 91.4728 141.1998 C 91.5695 141.1973 91.6598 141.221 91.7439 141.2711 C 91.828 141.3212 91.8909 141.3871 91.9325 141.4688 C 91.9862 141.5742 91.9903 141.6775 91.9448 141.7787 C 91.8993 141.8799 91.7956 141.9706 91.6337 142.0507 C 91.7092 142.0536 91.7694 142.0615 91.8143 142.0743 C 91.9104 142.1026 92.0096 142.1454 92.1117 142.2027 L 92.6292 142.4973 L 92.3311 142.6022 L 91.9366 142.3766 C 91.8219 142.3118 91.7301 142.2637 91.6613 142.2321 C 91.5924 142.2006 91.5354 142.1816 91.4903 142.1752 C 91.4452 142.1687 91.4025 142.1683 91.3621 142.1737 C 91.3328 142.1784 91.2876 142.1916 91.2265 142.2131 L 90.9515 142.3098 L 91.2874 142.9695 L 91.0504 143.0529 L 91.0504 143.0529 ZM 89.3859 143.4318 L 89.7684 143.2972 C 89.8865 143.2557 89.9745 143.2139 90.0324 143.1721 C 90.0904 143.1302 90.1309 143.0856 90.1539 143.0385 C 90.1864 142.9721 90.1983 142.8941 90.1896 142.8043 C 90.1808 142.7146 90.1479 142.6137 90.0908 142.5015 C 90.0117 142.3462 89.9202 142.2376 89.8162 142.1758 C 89.7122 142.1141 89.609 142.0844 89.5066 142.0871 C 89.4327 142.0892 89.3253 142.115 89.1843 142.1646 L 88.808 142.297 L 89.3859 143.4318 L 89.3859 143.4318 ZM 89.2381 143.6906 L 88.4816 142.2051 L 89.0987 141.988 C 89.2381 141.939 89.348 141.9087 89.4285 141.897 C 89.5411 141.8805 89.6468 141.8852 89.7454 141.911 C 89.8737 141.9439 89.9874 142.0037 90.0867 142.0902 C 90.186 142.1767 90.2694 142.2862 90.3368 142.4186 C 90.3943 142.5314 90.4293 142.637 90.4419 142.7353 C 90.4545 142.8336 90.4505 142.92 90.4299 142.9946 C 90.4092 143.0692 90.3777 143.1332 90.3353 143.1868 C 90.293 143.2403 90.2343 143.2902 90.1594 143.3365 C 90.0845 143.3828 89.9929 143.425 89.8845 143.4631 L 89.2381 143.6906 L 89.2381 143.6906 ZM 86.7124 143.6604 L 87.1756 143.4975 C 87.3288 143.4435 87.4255 143.3816 87.4658 143.3117 C 87.5061 143.2418 87.5044 143.1639 87.4606 143.0781 C 87.429 143.016 87.383 142.9695 87.3226 142.9385 C 87.2622 142.9077 87.1974 142.896 87.1282 142.9036 C 87.0839 142.9088 87.0079 142.9304 86.9003 142.9682 L 86.4421 143.1295 L 86.7124 143.6604 L 86.7124 143.6604 ZM 86.8722 144.523 L 86.1157 143.0376 L 86.7915 142.7998 C 86.9104 142.758 87.0037 142.7307 87.0713 142.7181 C 87.1654 142.6993 87.251 142.6965 87.3278 142.7097 C 87.4046 142.7229 87.4768 142.7538 87.5444 142.8026 C 87.612 142.8512 87.6645 142.9124 87.702 142.986 C 87.7663 143.1124 87.7723 143.2363 87.7198 143.3579 C 87.6675 143.4795 87.5146 143.5849 87.2612 143.674 L 86.8017 143.8357 L 87.1093 144.4396 L 86.8722 144.523 L 86.8722 144.523 ZM 85.2053 145.1095 L 84.4489 143.6241 L 85.7442 143.1683 L 85.8335 143.3436 L 84.7752 143.716 L 85.0069 144.1709 L 85.998 143.8222 L 86.0867 143.9965 L 85.0956 144.3452 L 85.3531 144.8508 L 86.4529 144.4638 L 86.5422 144.6391 L 85.2053 145.1095 L 85.2053 145.1095 ZM 83.5336 145.6978 L 82.7771 144.2123 L 84.0725 143.7565 L 84.1617 143.9319 L 83.1035 144.3042 L 83.3351 144.7592 L 84.3262 144.4104 L 84.415 144.5847 L 83.4239 144.9334 L 83.6814 145.439 L 84.7812 145.052 L 84.8705 145.2273 L 83.5336 145.6978 L 83.5336 145.6978 ZM 81.8472 146.2911 L 81.0907 144.8057 L 81.3277 144.7223 L 81.7029 145.459 L 82.2174 144.4093 L 82.5388 144.2962 L 82.0937 145.1625 L 83.3282 145.77 L 83.0154 145.8801 L 81.9946 145.3527 L 81.8221 145.693 L 82.0842 146.2077 L 81.8472 146.2911 L 81.8472 146.2911 ZM 79.9862 146.4202 L 79.8928 146.2368 L 80.5686 145.999 L 80.662 146.1824 L 79.9862 146.4202 L 79.9862 146.4202 ZM 77.9659 147.6568 L 77.2095 146.1714 L 78.5049 145.7156 L 78.5941 145.8909 L 77.5358 146.2633 L 77.7675 146.7182 L 78.7586 146.3695 L 78.8473 146.5438 L 77.8562 146.8925 L 78.1137 147.3981 L 79.2135 147.0111 L 79.3028 147.1864 L 77.9659 147.6568 L 77.9659 147.6568 ZM 76.5581 148.1521 L 75.8017 146.6667 L 76.0388 146.5833 L 76.7059 147.8934 L 77.5883 147.583 L 77.6775 147.7583 L 76.5581 148.1521 L 76.5581 148.1521 ZM 75.9141 148.3788 L 75.1576 146.8933 L 75.3947 146.8099 L 76.1512 148.2953 L 75.9141 148.3788 L 75.9141 148.3788 ZM 74.4699 148.1999 L 74.3812 148.0256 L 75.1395 147.7576 L 75.4202 148.3088 C 75.343 148.4268 75.2523 148.527 75.1483 148.6094 C 75.0442 148.6918 74.927 148.756 74.7966 148.8018 C 74.6206 148.8638 74.4448 148.8888 74.2693 148.8769 C 74.0936 148.865 73.939 148.8128 73.8055 148.7204 C 73.672 148.628 73.5681 148.5088 73.4938 148.3629 C 73.4202 148.2184 73.3879 148.0706 73.397 147.9197 C 73.4062 147.7687 73.4636 147.6387 73.5695 147.5298 C 73.6755 147.4209 73.8176 147.335 73.996 147.2722 C 74.1256 147.2267 74.2515 147.2028 74.3739 147.2008 C 74.4964 147.1987 74.6031 147.2183 74.6942 147.2595 C 74.7854 147.3007 74.8718 147.3659 74.9538 147.4549 L 74.7646 147.5789 C 74.6992 147.5127 74.6356 147.465 74.5736 147.4358 C 74.5117 147.4066 74.437 147.392 74.3496 147.3921 C 74.2623 147.3922 74.1733 147.4082 74.0829 147.44 C 73.9746 147.4781 73.8878 147.5247 73.8227 147.5799 C 73.7577 147.6351 73.7122 147.6935 73.6865 147.7551 C 73.6607 147.8167 73.6479 147.879 73.6482 147.9418 C 73.6494 148.0497 73.6773 148.1574 73.732 148.2648 C 73.7994 148.3972 73.8833 148.4983 73.9837 148.5681 C 74.0841 148.6379 74.1979 148.676 74.325 148.6822 C 74.4521 148.6884 74.5747 148.6708 74.6929 148.6292 C 74.7955 148.5931 74.8874 148.5415 74.9685 148.4743 C 75.0495 148.4071 75.1059 148.3461 75.1375 148.2912 L 74.9966 148.0146 L 74.4699 148.1999 L 74.4699 148.1999 ZM 72.2661 148.9431 L 72.8734 148.7294 L 72.477 148.3838 C 72.3563 148.2789 72.2617 148.1911 72.193 148.1205 C 72.2187 148.2238 72.2347 148.3297 72.241 148.4381 L 72.2661 148.9431 L 72.2661 148.9431 ZM 72.0598 149.7349 L 71.9914 148.0075 L 72.2467 147.9176 L 73.7364 149.145 L 73.4664 149.24 L 73.0283 148.8637 L 72.2791 149.1273 L 72.3116 149.6463 L 72.0598 149.7349 L 72.0598 149.7349 ZM 70.2661 149.3875 L 70.7757 149.2083 C 70.884 149.1702 70.964 149.131 71.0156 149.091 C 71.0673 149.0509 71.0986 149.0048 71.1095 148.9528 C 71.1205 148.9007 71.1138 148.8507 71.0894 148.8028 C 71.0536 148.7325 70.9934 148.6855 70.9088 148.662 C 70.8243 148.6383 70.7156 148.6499 70.5828 148.6966 L 70.0158 148.8961 L 70.2661 149.3875 L 70.2661 149.3875 ZM 70.4516 150.3008 L 69.6951 148.8154 L 70.4894 148.5359 C 70.6492 148.4797 70.7773 148.4503 70.874 148.4478 C 70.9707 148.4453 71.0611 148.469 71.1452 148.5191 C 71.2293 148.5691 71.2921 148.635 71.3338 148.7167 C 71.3874 148.8221 71.3915 148.9254 71.346 149.0266 C 71.3006 149.1279 71.1969 149.2186 71.035 149.2986 C 71.1104 149.3015 71.1706 149.3094 71.2156 149.3223 C 71.3117 149.3506 71.4108 149.3934 71.5129 149.4507 L 72.0305 149.7453 L 71.7323 149.8502 L 71.3378 149.6246 C 71.2232 149.5598 71.1314 149.5116 71.0625 149.4801 C 70.9936 149.4485 70.9366 149.4296 70.8916 149.4232 C 70.8465 149.4167 70.8037 149.4162 70.7633 149.4217 C 70.734 149.4264 70.6888 149.4395 70.6277 149.461 L 70.3527 149.5578 L 70.6887 150.2174 L 70.4516 150.3008 L 70.4516 150.3008 ZM 68.9301 150.8362 L 68.1737 149.3508 L 69.3823 148.9255 L 69.4715 149.1008 L 68.5001 149.4426 L 68.7343 149.9026 L 69.5751 149.6068 L 69.6643 149.7821 L 68.8235 150.0779 L 69.1672 150.7527 L 68.9301 150.8362 L 68.9301 150.8362 Z" fill="#5c4a3a"/>
			<path id="path33962" d="M 91.7587 90.1873 L 61.4422 96.6611 L 37.0069 89.1639 L 26.4167 92.1488 L 51.6003 99.7125 L 26.1671 106.8741 L 25.7392 118.9351 L 36.0091 122.0366 L 36.8649 110.3201 L 62.9675 103.0835 L 89.4981 110.6647 L 88.6422 122.3811 L 99.354 118.4944 L 99.7679 107.2187 L 73.6653 100.3267 L 103.1962 93.6839 L 91.7587 90.1873 Z" fill="#a28661"/>
			<path id="path79902" d="M 62 117 L 123 99.398 " stroke="#b7946e" stroke-width="1" fill="none"/>
			<path id="path33942" d="M 1 99.398 L 62 117 L 62 179 " stroke="#b7946e" stroke-width="1" fill="none"/>
			<path id="path79942" d="M 62 82 L 122 99 L 122 161 " stroke="#b7946e" stroke-width="1" fill="none"/>
		</g>
		<g>
			<path id="path24223" d="M 124 198 L 184 180 L 184 118 L 124 100 L 63 118 L 63 180 L 124 198 Z" stroke="#b7946e" stroke-width="1" fill="#c7a172"/>
			<path id="path43673" d="M 156.1743 143.4052 C 156.8299 143.3861 157.9213 143.2266 157.8897 144.3598 L 157.4282 160.9025 C 157.207 161.9275 156.5667 162.4815 156.2156 162.5083 L 130.4392 171.343 C 129.2001 171.5982 129.0919 171.0565 128.9646 170.5282 L 129.4833 153.2264 C 129.516 152.1368 130.3933 151.6662 130.7671 151.5464 L 156.1743 143.4052 L 156.1743 143.4052 Z" stroke="#69533c" stroke-width="1" fill="none"/>
			<path id="path59043" d="M 142.4785 151.5968 C 142.2343 151.4409 141.9693 150.7554 142.1112 150.6465 C 142.256 150.5354 142.9641 150.882 143.1207 151.1405 C 143.3383 151.5 142.8597 151.8401 142.4785 151.5968 L 142.4785 151.5968 Z" fill="#5c4a3a"/>
			<path id="g57573" d="M 131.9904 156.4382 L 131.7184 158.0306 L 131.432 154.6898 C 132.9013 154.9459 134.5605 154.7124 136.0125 154.5205 L 135.9892 155.4483 L 135.5893 156.6673 L 135.2213 154.9704 L 134.2548 156.952 L 133.5907 155.519 L 132.7834 157.2553 L 131.9904 156.4382 L 131.9904 156.4382 ZM 136.1148 163.699 C 136.3519 163.6441 136.5431 163.5663 136.5397 163.5261 C 136.5361 163.484 136.4477 163.4806 136.3307 163.5181 C 135.5336 163.7739 134.1187 163.8814 133.0889 163.7646 C 132.3157 163.6768 132.3632 163.6773 132.4352 163.7581 C 132.4852 163.8142 132.9717 163.8663 134.0286 163.9289 C 134.4073 163.9513 135.5863 163.8214 136.1148 163.699 L 136.1148 163.699 ZM 133.4001 164.1562 C 132.2106 164.0753 131.6477 163.8084 131.9694 163.4777 C 132.187 163.254 132.4565 163.1634 133.3487 163.014 L 134.1244 162.8842 L 134.0237 161.7054 L 133.9229 160.5267 L 133.5039 160.4394 C 133.0148 160.3376 132.2609 159.8408 131.9381 159.4076 L 131.8227 158.3025 L 132.0831 156.7451 L 132.9188 157.8363 L 133.6375 155.8702 L 134.1898 157.7239 L 135.062 155.9137 L 135.5351 157.666 L 136.0379 155.7122 L 136.3637 159.0699 C 136.3391 159.1689 136.2974 159.2548 136.2365 159.3708 C 136.005 159.8113 135.5368 160.1952 135.0234 160.3654 L 134.66 160.4858 L 134.7607 161.6644 L 134.8614 162.8429 L 135.281 162.8781 C 136.3292 162.9662 136.6872 163.0264 136.9188 163.1533 C 137.4238 163.4303 137.1917 163.7161 136.2957 163.9204 C 135.6083 164.0771 134.0743 164.2021 133.4001 164.1562 L 133.4001 164.1562 ZM 134.3738 165.2601 L 134.3738 165.2601 L 134.3738 165.2601 Z" fill="#5a4838"/>
			<path id="path57673" d="M 150.4059 158.7702 L 150.3997 157.7793 L 155.8451 155.8677 L 155.9373 156.8338 L 150.4059 158.7702 L 150.4059 158.7702 Z" fill="#564734"/>
			<path id="path57653" d="M 153.5349 155.7042 L 153.5957 150.4516 L 153.0706 150.5643 L 154.2805 148.9972 L 155.8569 149.8505 L 155.077 150.0359 L 155.0156 155.2722 L 153.5349 155.7042 L 153.5349 155.7042 Z" fill="#564734"/>
			<path id="path57693" d="M 150.3771 156.8955 L 150.3182 151.3537 L 149.7931 151.4664 L 151.1228 149.7788 L 152.6991 150.7526 L 152.1885 150.9139 L 152.2169 156.1985 L 150.3771 156.8955 L 150.3771 156.8955 Z" fill="#564734"/>
			<path id="path59063" d="M 144.6961 149.4761 C 143.9214 148.6432 144.5223 148.1339 145.3873 149.0332 C 145.6059 149.3138 145.0205 149.6889 144.6961 149.4761 L 144.6961 149.4761 ZM 142.8408 149.9581 C 142.0661 149.1252 142.667 148.6159 143.532 149.5152 C 143.7505 149.7958 143.1651 150.1709 142.8408 149.9581 L 142.8408 149.9581 ZM 138.7971 151.2707 C 138.5191 150.9671 138.4379 150.5526 138.6362 150.4492 C 138.8852 150.3195 139.5821 150.7597 139.6179 151.0693 C 139.6404 151.2651 139.5834 151.3266 139.3163 151.3944 C 139.05 151.462 138.9506 151.4383 138.7971 151.2707 L 138.7971 151.2707 ZM 138.2074 155.3459 C 137.8487 155.2381 137.542 154.3399 137.8462 154.2882 C 138.0006 154.262 138.4558 154.511 138.7063 154.7588 C 138.9282 154.9782 138.9293 154.9857 138.7671 155.1861 C 138.6156 155.3732 138.4529 155.4197 138.2074 155.3459 L 138.2074 155.3459 ZM 140.6962 150.3653 C 139.9215 149.5324 140.5224 149.0231 141.3874 149.9224 C 141.6059 150.203 141.0205 150.5781 140.6962 150.3653 L 140.6962 150.3653 ZM 146.3683 152.7106 C 146.1911 152.5974 145.9366 151.8523 146.034 151.7319 C 146.0984 151.6523 146.8209 151.9861 147.0465 152.1997 C 147.3871 152.5222 146.7844 152.9762 146.3683 152.7106 L 146.3683 152.7106 ZM 144.5881 151.4758 C 144.2492 151.2496 144.0448 150.4841 144.3112 150.4389 C 144.5387 150.4002 145.2009 150.8645 145.2644 151.1071 C 145.3502 151.4344 144.8965 151.6816 144.5881 151.4758 L 144.5881 151.4758 ZM 139.4994 154.2312 C 139.402 154.169 139.2526 153.9486 139.1673 153.7415 C 138.9488 153.2107 139.1355 153.1086 139.7144 153.4423 C 140.2831 153.77 140.3929 154.1507 139.9531 154.2695 C 139.7991 154.3111 139.598 154.2941 139.4994 154.2312 L 139.4994 154.2312 ZM 137.3781 152.8017 C 137.0924 152.5866 136.8963 151.8894 137.1112 151.8529 C 137.3266 151.8163 138.0995 152.3008 138.1533 152.5061 C 138.1954 152.6669 137.9544 152.9089 137.7109 152.9502 C 137.65 152.9606 137.5003 152.8937 137.3781 152.8017 L 137.3781 152.8017 ZM 141.0919 153.3432 C 140.8575 153.0873 140.7156 152.5658 140.8518 152.4612 C 140.9865 152.3578 141.701 152.7174 141.8503 152.9637 C 142.1052 153.3848 141.4364 153.7195 141.0919 153.3432 L 141.0919 153.3432 ZM 144.1045 152.8771 C 143.8967 152.6781 143.7251 152.013 143.875 151.9875 C 144.2918 151.9167 144.963 152.3976 144.921 152.7369 C 144.89 152.9872 144.3214 153.0848 144.1045 152.8771 L 144.1045 152.8771 ZM 143.9025 160.625 C 143.3996 160.6139 142.7745 160.2145 142.6769 159.842 C 142.6197 159.6234 142.8886 159.7025 143.0591 159.9545 C 143.304 160.3164 143.6639 160.4435 144.1906 160.3541 C 144.5352 160.2956 144.6575 160.2348 144.8458 160.0285 L 145.0774 159.7749 L 144.5857 157.7947 L 144.094 155.8147 L 143.8939 155.8503 C 143.7839 155.8698 143.5349 155.9799 143.3405 156.0949 L 142.9872 156.304 L 142.463 156.1915 C 141.8404 156.0578 141.2898 156.1285 140.7432 156.4124 L 140.3702 156.606 L 140.079 156.4227 C 139.6717 156.1664 139.4137 156.1481 139.0023 156.3466 C 138.8159 156.4365 138.6399 156.4977 138.611 156.4825 C 138.5038 156.4263 138.7687 155.8971 139.0879 155.5301 C 139.7457 154.7736 140.9043 154.1985 142.494 153.8393 C 143.0953 153.7034 143.4193 153.5965 143.504 153.5058 C 143.6158 153.3864 143.6476 153.381 143.8097 153.4538 C 143.9122 153.4998 144.2614 153.5103 144.6145 153.4781 C 146.4924 153.3064 148.1886 153.6676 149.1216 154.4377 C 149.3007 154.5856 149.4346 154.7347 149.4192 154.7692 C 149.4038 154.8036 149.2598 154.837 149.0993 154.8433 C 148.8869 154.8516 148.6909 154.9326 148.3796 155.1408 C 147.9733 155.4126 147.9353 155.4243 147.62 155.3761 C 147.1318 155.3014 146.3866 155.446 146.0199 155.6865 L 145.7133 155.8876 L 145.2275 155.7968 C 144.3663 155.6359 144.3888 155.5033 144.9141 157.641 C 145.3364 159.3598 145.3686 159.5554 145.2761 159.837 C 145.1194 160.3141 144.5525 160.6393 143.9025 160.625 L 143.9025 160.625 Z" fill="#5c4a3a"/>
			<path id="text59363" d="M 155.36 161.2402 L 155.0396 160.6109 L 153.9131 159.9977 L 154.2015 159.8962 L 154.7827 160.2198 C 154.8906 160.2807 154.9939 160.3431 155.0928 160.407 C 155.107 160.3104 155.1277 160.2 155.1547 160.0758 L 155.2793 159.517 L 155.5555 159.4198 L 155.2766 160.5275 L 155.5971 161.1567 L 155.36 161.2402 L 155.36 161.2402 ZM 152.8648 161.1396 L 153.3744 160.9603 C 153.4828 160.9222 153.5628 160.8831 153.6144 160.843 C 153.666 160.8029 153.6974 160.7568 153.7083 160.7048 C 153.7193 160.6528 153.7126 160.6028 153.6881 160.5548 C 153.6523 160.4846 153.5922 160.4376 153.5076 160.414 C 153.4231 160.3904 153.3144 160.4019 153.1816 160.4487 L 152.6146 160.6482 L 152.8648 161.1396 L 152.8648 161.1396 ZM 153.0504 162.0529 L 152.2939 160.5675 L 153.0882 160.288 C 153.2479 160.2318 153.3761 160.2024 153.4728 160.1998 C 153.5695 160.1973 153.6598 160.221 153.7439 160.2711 C 153.828 160.3212 153.8909 160.3871 153.9325 160.4688 C 153.9862 160.5742 153.9903 160.6775 153.9448 160.7787 C 153.8993 160.8799 153.7956 160.9706 153.6337 161.0507 C 153.7092 161.0536 153.7694 161.0615 153.8143 161.0743 C 153.9104 161.1026 154.0096 161.1454 154.1117 161.2027 L 154.6292 161.4973 L 154.3311 161.6022 L 153.9366 161.3766 C 153.8219 161.3118 153.7301 161.2637 153.6613 161.2321 C 153.5924 161.2006 153.5354 161.1816 153.4903 161.1752 C 153.4452 161.1687 153.4025 161.1683 153.3621 161.1737 C 153.3328 161.1784 153.2876 161.1916 153.2265 161.2131 L 152.9515 161.3098 L 153.2874 161.9695 L 153.0504 162.0529 L 153.0504 162.0529 ZM 151.3859 162.4318 L 151.7684 162.2972 C 151.8865 162.2557 151.9745 162.2139 152.0324 162.1721 C 152.0904 162.1302 152.1309 162.0856 152.1539 162.0385 C 152.1864 161.9721 152.1983 161.8941 152.1896 161.8043 C 152.1808 161.7146 152.1479 161.6137 152.0908 161.5015 C 152.0117 161.3462 151.9202 161.2376 151.8162 161.1758 C 151.7122 161.1141 151.609 161.0844 151.5066 161.0871 C 151.4327 161.0892 151.3253 161.115 151.1843 161.1646 L 150.808 161.297 L 151.3859 162.4318 L 151.3859 162.4318 ZM 151.2381 162.6906 L 150.4816 161.2051 L 151.0987 160.988 C 151.2381 160.939 151.348 160.9087 151.4285 160.897 C 151.5411 160.8805 151.6468 160.8852 151.7454 160.911 C 151.8737 160.9439 151.9874 161.0037 152.0867 161.0902 C 152.186 161.1767 152.2694 161.2862 152.3368 161.4186 C 152.3943 161.5314 152.4293 161.637 152.4419 161.7353 C 152.4545 161.8336 152.4505 161.92 152.4299 161.9946 C 152.4092 162.0692 152.3777 162.1332 152.3353 162.1868 C 152.293 162.2403 152.2343 162.2902 152.1594 162.3365 C 152.0845 162.3828 151.9929 162.425 151.8845 162.4631 L 151.2381 162.6906 L 151.2381 162.6906 ZM 148.7124 162.6604 L 149.1756 162.4975 C 149.3288 162.4435 149.4255 162.3816 149.4658 162.3117 C 149.5061 162.2418 149.5044 162.1639 149.4606 162.0781 C 149.429 162.016 149.383 161.9695 149.3226 161.9385 C 149.2622 161.9077 149.1974 161.896 149.1282 161.9036 C 149.0839 161.9088 149.0079 161.9304 148.9003 161.9682 L 148.4421 162.1295 L 148.7124 162.6604 L 148.7124 162.6604 ZM 148.8722 163.523 L 148.1157 162.0376 L 148.7915 161.7998 C 148.9104 161.758 149.0037 161.7307 149.0713 161.7181 C 149.1654 161.6993 149.251 161.6965 149.3278 161.7097 C 149.4046 161.7229 149.4768 161.7538 149.5444 161.8026 C 149.612 161.8512 149.6645 161.9124 149.702 161.986 C 149.7663 162.1124 149.7723 162.2363 149.7198 162.3579 C 149.6675 162.4795 149.5146 162.5849 149.2612 162.674 L 148.8017 162.8357 L 149.1093 163.4396 L 148.8722 163.523 L 148.8722 163.523 ZM 147.2053 164.1095 L 146.4489 162.6241 L 147.7442 162.1683 L 147.8335 162.3436 L 146.7752 162.716 L 147.0069 163.1709 L 147.998 162.8222 L 148.0867 162.9965 L 147.0956 163.3452 L 147.3531 163.8508 L 148.4529 163.4638 L 148.5422 163.6391 L 147.2053 164.1095 L 147.2053 164.1095 ZM 145.5336 164.6978 L 144.7771 163.2123 L 146.0725 162.7565 L 146.1617 162.9319 L 145.1035 163.3042 L 145.3351 163.7592 L 146.3262 163.4104 L 146.415 163.5847 L 145.4239 163.9334 L 145.6814 164.439 L 146.7812 164.052 L 146.8705 164.2273 L 145.5336 164.6978 L 145.5336 164.6978 ZM 143.8472 165.2911 L 143.0907 163.8057 L 143.3277 163.7223 L 143.7029 164.459 L 144.2174 163.4093 L 144.5388 163.2962 L 144.0937 164.1625 L 145.3282 164.77 L 145.0154 164.8801 L 143.9946 164.3527 L 143.8221 164.693 L 144.0842 165.2077 L 143.8472 165.2911 L 143.8472 165.2911 ZM 141.9862 165.4202 L 141.8928 165.2368 L 142.5686 164.999 L 142.662 165.1824 L 141.9862 165.4202 L 141.9862 165.4202 ZM 139.9659 166.6568 L 139.2095 165.1714 L 140.5049 164.7156 L 140.5941 164.8909 L 139.5358 165.2633 L 139.7675 165.7182 L 140.7586 165.3695 L 140.8473 165.5438 L 139.8562 165.8925 L 140.1137 166.3981 L 141.2135 166.0111 L 141.3028 166.1864 L 139.9659 166.6568 L 139.9659 166.6568 ZM 138.5581 167.1521 L 137.8017 165.6667 L 138.0388 165.5833 L 138.7059 166.8934 L 139.5883 166.583 L 139.6775 166.7583 L 138.5581 167.1521 L 138.5581 167.1521 ZM 137.9141 167.3788 L 137.1576 165.8933 L 137.3947 165.8099 L 138.1512 167.2953 L 137.9141 167.3788 L 137.9141 167.3788 ZM 136.4699 167.1999 L 136.3812 167.0256 L 137.1395 166.7576 L 137.4202 167.3088 C 137.343 167.4268 137.2523 167.527 137.1483 167.6094 C 137.0442 167.6918 136.927 167.756 136.7966 167.8018 C 136.6206 167.8638 136.4448 167.8888 136.2693 167.8769 C 136.0936 167.865 135.939 167.8128 135.8055 167.7204 C 135.672 167.628 135.5681 167.5088 135.4938 167.3629 C 135.4202 167.2184 135.3879 167.0706 135.397 166.9197 C 135.4062 166.7687 135.4636 166.6387 135.5695 166.5298 C 135.6755 166.4209 135.8176 166.335 135.996 166.2722 C 136.1256 166.2267 136.2515 166.2028 136.3739 166.2008 C 136.4964 166.1987 136.6031 166.2183 136.6942 166.2595 C 136.7854 166.3007 136.8718 166.3659 136.9538 166.4549 L 136.7646 166.5789 C 136.6992 166.5127 136.6356 166.465 136.5736 166.4358 C 136.5117 166.4066 136.437 166.392 136.3496 166.3921 C 136.2623 166.3922 136.1733 166.4082 136.0829 166.44 C 135.9746 166.4781 135.8878 166.5247 135.8227 166.5799 C 135.7577 166.6351 135.7122 166.6935 135.6865 166.7551 C 135.6607 166.8167 135.6479 166.879 135.6482 166.9418 C 135.6494 167.0497 135.6773 167.1574 135.732 167.2648 C 135.7994 167.3972 135.8833 167.4983 135.9837 167.5681 C 136.0841 167.6379 136.1979 167.676 136.325 167.6822 C 136.4521 167.6884 136.5747 167.6708 136.6929 167.6292 C 136.7955 167.5931 136.8874 167.5415 136.9685 167.4743 C 137.0495 167.4071 137.1059 167.3461 137.1375 167.2912 L 136.9966 167.0146 L 136.4699 167.1999 L 136.4699 167.1999 ZM 134.2661 167.9431 L 134.8734 167.7294 L 134.477 167.3838 C 134.3563 167.2789 134.2617 167.1911 134.193 167.1205 C 134.2187 167.2238 134.2347 167.3297 134.241 167.4381 L 134.2661 167.9431 L 134.2661 167.9431 ZM 134.0598 168.7349 L 133.9914 167.0075 L 134.2467 166.9176 L 135.7364 168.145 L 135.4664 168.24 L 135.0283 167.8637 L 134.2791 168.1273 L 134.3116 168.6463 L 134.0598 168.7349 L 134.0598 168.7349 ZM 132.2661 168.3875 L 132.7757 168.2083 C 132.884 168.1702 132.964 168.131 133.0156 168.091 C 133.0673 168.0509 133.0986 168.0048 133.1095 167.9528 C 133.1205 167.9007 133.1138 167.8507 133.0894 167.8028 C 133.0536 167.7325 132.9934 167.6855 132.9088 167.662 C 132.8243 167.6383 132.7156 167.6499 132.5828 167.6966 L 132.0158 167.8961 L 132.2661 168.3875 L 132.2661 168.3875 ZM 132.4516 169.3008 L 131.6951 167.8154 L 132.4894 167.5359 C 132.6492 167.4797 132.7773 167.4503 132.874 167.4478 C 132.9707 167.4453 133.0611 167.469 133.1452 167.5191 C 133.2293 167.5691 133.2921 167.635 133.3338 167.7167 C 133.3874 167.8221 133.3915 167.9254 133.346 168.0266 C 133.3006 168.1279 133.1969 168.2186 133.035 168.2986 C 133.1104 168.3015 133.1706 168.3094 133.2156 168.3223 C 133.3117 168.3506 133.4108 168.3934 133.5129 168.4507 L 134.0305 168.7453 L 133.7323 168.8502 L 133.3378 168.6246 C 133.2232 168.5598 133.1314 168.5116 133.0625 168.4801 C 132.9936 168.4485 132.9366 168.4296 132.8916 168.4232 C 132.8465 168.4167 132.8037 168.4162 132.7633 168.4217 C 132.734 168.4264 132.6888 168.4395 132.6277 168.461 L 132.3527 168.5578 L 132.6887 169.2174 L 132.4516 169.3008 L 132.4516 169.3008 ZM 130.9301 169.8362 L 130.1737 168.3508 L 131.3823 167.9255 L 131.4715 168.1008 L 130.5001 168.4426 L 130.7343 168.9026 L 131.5751 168.6068 L 131.6643 168.7821 L 130.8235 169.0779 L 131.1672 169.7527 L 130.9301 169.8362 L 130.9301 169.8362 Z" fill="#5c4a3a"/>
			<path id="path33963" d="M 153.7587 109.1873 L 123.4422 115.6611 L 99.0069 108.1639 L 88.4167 111.1488 L 113.6003 118.7125 L 88.1671 125.8741 L 87.7392 137.9351 L 98.0091 141.0366 L 98.8649 129.3201 L 124.9675 122.0835 L 151.4981 129.6647 L 150.6422 141.3811 L 161.354 137.4944 L 161.7679 126.2187 L 135.6653 119.3267 L 165.1962 112.6839 L 153.7587 109.1873 Z" fill="#a28661"/>
			<path id="path79903" d="M 124 136 L 185 118.398 " stroke="#b7946e" stroke-width="1" fill="none"/>
			<path id="path33943" d="M 63 118.398 L 124 136 L 124 198 " stroke="#b7946e" stroke-width="1" fill="none"/>
			<path id="path79943" d="M 124 101 L 184 118 L 184 180 " stroke="#b7946e" stroke-width="1" fill="none"/>
		</g>
		<g>
			<path id="path24224" d="M 124 99 L 184 81 L 184 19 L 124 1 L 63 19 L 63 81 L 124 99 Z" stroke="#b7946e" stroke-width="1" fill="#c7a172"/>
			<path id="path43674" d="M 156.1743 44.4052 C 156.8299 44.3861 157.9213 44.2266 157.8897 45.3598 L 157.4282 61.9025 C 157.207 62.9275 156.5667 63.4815 156.2156 63.5083 L 130.4392 72.343 C 129.2001 72.5982 129.0919 72.0565 128.9646 71.5282 L 129.4833 54.2264 C 129.516 53.1368 130.3933 52.6662 130.7671 52.5464 L 156.1743 44.4052 L 156.1743 44.4052 Z" stroke="#69533c" stroke-width="1" fill="none"/>
			<path id="path59044" d="M 142.4785 52.5968 C 142.2343 52.4409 141.9693 51.7554 142.1112 51.6465 C 142.256 51.5354 142.9641 51.882 143.1207 52.1405 C 143.3383 52.5 142.8597 52.8401 142.4785 52.5968 L 142.4785 52.5968 Z" fill="#5c4a3a"/>
			<path id="g57574" d="M 131.9904 57.4382 L 131.7184 59.0306 L 131.432 55.6898 C 132.9013 55.9459 134.5605 55.7124 136.0125 55.5205 L 135.9892 56.4483 L 135.5893 57.6673 L 135.2213 55.9704 L 134.2548 57.952 L 133.5907 56.519 L 132.7834 58.2553 L 131.9904 57.4382 L 131.9904 57.4382 ZM 136.1148 64.699 C 136.3519 64.6441 136.5431 64.5663 136.5397 64.5261 C 136.5361 64.484 136.4477 64.4806 136.3307 64.5181 C 135.5336 64.7739 134.1187 64.8814 133.0889 64.7646 C 132.3157 64.6768 132.3632 64.6773 132.4352 64.7581 C 132.4852 64.8142 132.9717 64.8663 134.0286 64.9289 C 134.4073 64.9513 135.5863 64.8214 136.1148 64.699 L 136.1148 64.699 ZM 133.4001 65.1562 C 132.2106 65.0753 131.6477 64.8084 131.9694 64.4777 C 132.187 64.254 132.4565 64.1634 133.3487 64.014 L 134.1244 63.8842 L 134.0237 62.7054 L 133.9229 61.5267 L 133.5039 61.4394 C 133.0148 61.3376 132.2609 60.8408 131.9381 60.4076 L 131.8227 59.3025 L 132.0831 57.7451 L 132.9188 58.8363 L 133.6375 56.8702 L 134.1898 58.7239 L 135.062 56.9137 L 135.5351 58.666 L 136.0379 56.7122 L 136.3637 60.0699 C 136.3391 60.1689 136.2974 60.2548 136.2365 60.3708 C 136.005 60.8113 135.5368 61.1952 135.0234 61.3654 L 134.66 61.4858 L 134.7607 62.6644 L 134.8614 63.8429 L 135.281 63.8781 C 136.3292 63.9662 136.6872 64.0264 136.9188 64.1533 C 137.4238 64.4303 137.1917 64.7161 136.2957 64.9204 C 135.6083 65.0771 134.0743 65.2021 133.4001 65.1562 L 133.4001 65.1562 ZM 134.3738 66.2601 L 134.3738 66.2601 L 134.3738 66.2601 Z" fill="#5a4838"/>
			<path id="path57674" d="M 150.4059 59.7702 L 150.3997 58.7793 L 155.8451 56.8677 L 155.9373 57.8338 L 150.4059 59.7702 L 150.4059 59.7702 Z" fill="#564734"/>
			<path id="path57654" d="M 153.5349 56.7042 L 153.5957 51.4516 L 153.0706 51.5643 L 154.2805 49.9972 L 155.8569 50.8505 L 155.077 51.0359 L 155.0156 56.2722 L 153.5349 56.7042 L 153.5349 56.7042 Z" fill="#564734"/>
			<path id="path57694" d="M 150.3771 57.8955 L 150.3182 52.3537 L 149.7931 52.4664 L 151.1228 50.7788 L 152.6991 51.7526 L 152.1885 51.9139 L 152.2169 57.1985 L 150.3771 57.8955 L 150.3771 57.8955 Z" fill="#564734"/>
			<path id="path59064" d="M 144.6961 50.4761 C 143.9214 49.6432 144.5223 49.1339 145.3873 50.0332 C 145.6059 50.3138 145.0205 50.6889 144.6961 50.4761 L 144.6961 50.4761 ZM 142.8408 50.9581 C 142.0661 50.1252 142.667 49.6159 143.532 50.5152 C 143.7505 50.7958 143.1651 51.1709 142.8408 50.9581 L 142.8408 50.9581 ZM 138.7971 52.2707 C 138.5191 51.9671 138.4379 51.5526 138.6362 51.4492 C 138.8852 51.3195 139.5821 51.7597 139.6179 52.0693 C 139.6404 52.2651 139.5834 52.3266 139.3163 52.3944 C 139.05 52.462 138.9506 52.4383 138.7971 52.2707 L 138.7971 52.2707 ZM 138.2074 56.3459 C 137.8487 56.2381 137.542 55.3399 137.8462 55.2882 C 138.0006 55.262 138.4558 55.511 138.7063 55.7588 C 138.9282 55.9782 138.9293 55.9857 138.7671 56.1861 C 138.6156 56.3732 138.4529 56.4197 138.2074 56.3459 L 138.2074 56.3459 ZM 140.6962 51.3653 C 139.9215 50.5324 140.5224 50.0231 141.3874 50.9224 C 141.6059 51.203 141.0205 51.5781 140.6962 51.3653 L 140.6962 51.3653 ZM 146.3683 53.7106 C 146.1911 53.5974 145.9366 52.8523 146.034 52.7319 C 146.0984 52.6523 146.8209 52.9861 147.0465 53.1997 C 147.3871 53.5222 146.7844 53.9762 146.3683 53.7106 L 146.3683 53.7106 ZM 144.5881 52.4758 C 144.2492 52.2496 144.0448 51.4841 144.3112 51.4389 C 144.5386 51.4002 145.2009 51.8645 145.2644 52.1071 C 145.3502 52.4344 144.8965 52.6816 144.5881 52.4758 L 144.5881 52.4758 ZM 139.4994 55.2312 C 139.402 55.169 139.2526 54.9486 139.1673 54.7415 C 138.9488 54.2107 139.1355 54.1086 139.7144 54.4423 C 140.2831 54.77 140.3929 55.1507 139.9531 55.2695 C 139.7991 55.3111 139.598 55.2941 139.4994 55.2312 L 139.4994 55.2312 ZM 137.3781 53.8017 C 137.0924 53.5866 136.8963 52.8894 137.1112 52.8529 C 137.3266 52.8163 138.0995 53.3008 138.1533 53.5061 C 138.1954 53.6669 137.9544 53.9089 137.7109 53.9502 C 137.65 53.9606 137.5003 53.8937 137.3781 53.8017 L 137.3781 53.8017 ZM 141.0919 54.3432 C 140.8575 54.0873 140.7156 53.5658 140.8518 53.4612 C 140.9865 53.3578 141.701 53.7174 141.8503 53.9637 C 142.1052 54.3848 141.4364 54.7195 141.0919 54.3432 L 141.0919 54.3432 ZM 144.1045 53.8771 C 143.8967 53.6781 143.7251 53.013 143.875 52.9875 C 144.2918 52.9167 144.963 53.3976 144.921 53.7369 C 144.89 53.9872 144.3214 54.0848 144.1045 53.8771 L 144.1045 53.8771 ZM 143.9025 61.625 C 143.3996 61.6139 142.7745 61.2145 142.6769 60.842 C 142.6197 60.6234 142.8886 60.7025 143.0591 60.9545 C 143.304 61.3164 143.6639 61.4435 144.1906 61.3541 C 144.5352 61.2956 144.6575 61.2348 144.8458 61.0285 L 145.0774 60.7749 L 144.5857 58.7947 L 144.094 56.8147 L 143.8939 56.8503 C 143.7839 56.8698 143.5349 56.9799 143.3405 57.0949 L 142.9872 57.304 L 142.463 57.1915 C 141.8404 57.0578 141.2898 57.1285 140.7432 57.4124 L 140.3702 57.606 L 140.079 57.4227 C 139.6717 57.1664 139.4137 57.1481 139.0023 57.3466 C 138.8159 57.4365 138.6399 57.4977 138.611 57.4825 C 138.5038 57.4263 138.7687 56.8971 139.0879 56.5301 C 139.7457 55.7736 140.9043 55.1985 142.494 54.8393 C 143.0953 54.7034 143.4193 54.5965 143.504 54.5058 C 143.6158 54.3864 143.6476 54.381 143.8098 54.4538 C 143.9122 54.4998 144.2614 54.5103 144.6145 54.4781 C 146.4924 54.3064 148.1886 54.6676 149.1216 55.4377 C 149.3007 55.5856 149.4346 55.7347 149.4192 55.7692 C 149.4037 55.8036 149.2598 55.837 149.0993 55.8433 C 148.8869 55.8516 148.6909 55.9326 148.3796 56.1408 C 147.9733 56.4126 147.9354 56.4243 147.6201 56.3761 C 147.1318 56.3014 146.3866 56.446 146.0199 56.6865 L 145.7133 56.8876 L 145.2275 56.7968 C 144.3663 56.6359 144.3888 56.5033 144.9141 58.641 C 145.3364 60.3598 145.3686 60.5554 145.2761 60.837 C 145.1194 61.3141 144.5526 61.6393 143.9025 61.625 L 143.9025 61.625 Z" fill="#5c4a3a"/>
			<path id="text59364" d="M 155.36 62.2402 L 155.0396 61.6109 L 153.9131 60.9977 L 154.2015 60.8962 L 154.7827 61.2198 C 154.8906 61.2807 154.9939 61.3431 155.0928 61.407 C 155.107 61.3104 155.1277 61.2 155.1547 61.0758 L 155.2793 60.517 L 155.5555 60.4198 L 155.2766 61.5275 L 155.5971 62.1567 L 155.36 62.2402 L 155.36 62.2402 ZM 152.8648 62.1396 L 153.3744 61.9603 C 153.4828 61.9222 153.5628 61.8831 153.6144 61.843 C 153.666 61.8029 153.6974 61.7568 153.7083 61.7048 C 153.7192 61.6528 153.7126 61.6028 153.6881 61.5548 C 153.6523 61.4846 153.5922 61.4376 153.5076 61.414 C 153.4231 61.3904 153.3144 61.4019 153.1816 61.4487 L 152.6146 61.6482 L 152.8648 62.1396 L 152.8648 62.1396 ZM 153.0504 63.0529 L 152.2939 61.5675 L 153.0882 61.288 C 153.2479 61.2318 153.3761 61.2024 153.4728 61.1998 C 153.5695 61.1973 153.6599 61.221 153.744 61.2711 C 153.8281 61.3212 153.8909 61.3871 153.9325 61.4688 C 153.9862 61.5742 153.9903 61.6775 153.9448 61.7787 C 153.8993 61.8799 153.7956 61.9706 153.6337 62.0507 C 153.7092 62.0536 153.7694 62.0615 153.8143 62.0743 C 153.9104 62.1026 154.0096 62.1454 154.1117 62.2027 L 154.6292 62.4973 L 154.3311 62.6022 L 153.9366 62.3766 C 153.8219 62.3118 153.7301 62.2637 153.6613 62.2321 C 153.5924 62.2006 153.5354 62.1816 153.4903 62.1752 C 153.4453 62.1687 153.4025 62.1683 153.3621 62.1737 C 153.3328 62.1784 153.2876 62.1916 153.2265 62.2131 L 152.9515 62.3098 L 153.2874 62.9695 L 153.0504 63.0529 L 153.0504 63.0529 ZM 151.3859 63.4318 L 151.7684 63.2972 C 151.8865 63.2557 151.9745 63.2139 152.0324 63.1721 C 152.0904 63.1302 152.1309 63.0856 152.1539 63.0385 C 152.1864 62.9721 152.1983 62.8941 152.1896 62.8043 C 152.1808 62.7146 152.1479 62.6137 152.0908 62.5015 C 152.0117 62.3462 151.9202 62.2376 151.8162 62.1758 C 151.7122 62.1141 151.609 62.0844 151.5066 62.0871 C 151.4327 62.0892 151.3253 62.115 151.1843 62.1646 L 150.808 62.297 L 151.3859 63.4318 L 151.3859 63.4318 ZM 151.2381 63.6906 L 150.4816 62.2051 L 151.0987 61.988 C 151.2381 61.939 151.348 61.9087 151.4285 61.897 C 151.5411 61.8805 151.6468 61.8852 151.7454 61.911 C 151.8737 61.9439 151.9874 62.0037 152.0867 62.0902 C 152.186 62.1767 152.2694 62.2862 152.3368 62.4186 C 152.3943 62.5314 152.4293 62.637 152.4419 62.7353 C 152.4545 62.8336 152.4505 62.92 152.4299 62.9946 C 152.4092 63.0692 152.3777 63.1332 152.3353 63.1868 C 152.293 63.2403 152.2343 63.2902 152.1594 63.3365 C 152.0845 63.3828 151.9929 63.425 151.8845 63.4631 L 151.2381 63.6906 L 151.2381 63.6906 ZM 148.7125 63.6604 L 149.1756 63.4975 C 149.3288 63.4435 149.4255 63.3816 149.4658 63.3117 C 149.5061 63.2418 149.5044 63.1639 149.4606 63.0781 C 149.429 63.016 149.383 62.9695 149.3226 62.9385 C 149.2622 62.9077 149.1974 62.896 149.1282 62.9036 C 149.0839 62.9088 149.0079 62.9304 148.9003 62.9682 L 148.4421 63.1295 L 148.7125 63.6604 L 148.7125 63.6604 ZM 148.8722 64.523 L 148.1157 63.0376 L 148.7915 62.7998 C 148.9105 62.758 149.0037 62.7307 149.0713 62.7181 C 149.1654 62.6993 149.251 62.6965 149.3278 62.7097 C 149.4046 62.7229 149.4768 62.7538 149.5444 62.8026 C 149.612 62.8512 149.6645 62.9124 149.702 62.986 C 149.7663 63.1124 149.7723 63.2363 149.7198 63.3579 C 149.6675 63.4795 149.5146 63.5849 149.2612 63.674 L 148.8017 63.8357 L 149.1093 64.4396 L 148.8722 64.523 L 148.8722 64.523 ZM 147.2053 65.1095 L 146.4489 63.6241 L 147.7442 63.1683 L 147.8335 63.3436 L 146.7752 63.716 L 147.0069 64.1709 L 147.998 63.8222 L 148.0867 63.9965 L 147.0956 64.3452 L 147.3531 64.8508 L 148.4529 64.4638 L 148.5422 64.6391 L 147.2053 65.1095 L 147.2053 65.1095 ZM 145.5336 65.6978 L 144.7771 64.2123 L 146.0725 63.7565 L 146.1617 63.9319 L 145.1035 64.3042 L 145.3351 64.7592 L 146.3262 64.4104 L 146.415 64.5847 L 145.4239 64.9334 L 145.6814 65.439 L 146.7812 65.052 L 146.8705 65.2273 L 145.5336 65.6978 L 145.5336 65.6978 ZM 143.8472 66.2911 L 143.0907 64.8057 L 143.3277 64.7223 L 143.7029 65.459 L 144.2174 64.4093 L 144.5388 64.2962 L 144.0938 65.1625 L 145.3282 65.77 L 145.0154 65.8801 L 143.9946 65.3527 L 143.8221 65.693 L 144.0842 66.2077 L 143.8472 66.2911 L 143.8472 66.2911 ZM 141.9862 66.4202 L 141.8928 66.2368 L 142.5686 65.999 L 142.662 66.1824 L 141.9862 66.4202 L 141.9862 66.4202 ZM 139.9659 67.6568 L 139.2095 66.1714 L 140.5049 65.7156 L 140.5941 65.8909 L 139.5358 66.2633 L 139.7675 66.7182 L 140.7586 66.3695 L 140.8473 66.5438 L 139.8562 66.8925 L 140.1137 67.3981 L 141.2135 67.0111 L 141.3028 67.1864 L 139.9659 67.6568 L 139.9659 67.6568 ZM 138.5581 68.1521 L 137.8017 66.6667 L 138.0388 66.5833 L 138.7059 67.8934 L 139.5883 67.583 L 139.6775 67.7583 L 138.5581 68.1521 L 138.5581 68.1521 ZM 137.9141 68.3788 L 137.1576 66.8933 L 137.3947 66.8099 L 138.1512 68.2953 L 137.9141 68.3788 L 137.9141 68.3788 ZM 136.4699 68.1999 L 136.3812 68.0256 L 137.1395 67.7576 L 137.4202 68.3088 C 137.343 68.4268 137.2523 68.527 137.1483 68.6094 C 137.0442 68.6918 136.927 68.756 136.7966 68.8018 C 136.6206 68.8638 136.4448 68.8888 136.2693 68.8769 C 136.0936 68.865 135.939 68.8128 135.8055 68.7204 C 135.672 68.628 135.5681 68.5088 135.4938 68.3629 C 135.4202 68.2184 135.3879 68.0706 135.397 67.9197 C 135.4062 67.7687 135.4636 67.6387 135.5695 67.5298 C 135.6755 67.4209 135.8176 67.335 135.996 67.2722 C 136.1256 67.2267 136.2515 67.2028 136.3739 67.2008 C 136.4964 67.1987 136.6031 67.2183 136.6942 67.2595 C 136.7854 67.3007 136.8718 67.3659 136.9538 67.4549 L 136.7646 67.5789 C 136.6992 67.5127 136.6356 67.465 136.5736 67.4358 C 136.5117 67.4066 136.437 67.392 136.3496 67.3921 C 136.2623 67.3922 136.1733 67.4082 136.0829 67.44 C 135.9746 67.4781 135.8878 67.5247 135.8227 67.5799 C 135.7577 67.6351 135.7122 67.6935 135.6865 67.7551 C 135.6607 67.8167 135.6479 67.879 135.6482 67.9418 C 135.6494 68.0497 135.6773 68.1574 135.732 68.2648 C 135.7994 68.3972 135.8833 68.4983 135.9837 68.5681 C 136.0841 68.6379 136.1979 68.676 136.325 68.6822 C 136.4521 68.6884 136.5747 68.6708 136.6929 68.6292 C 136.7955 68.5931 136.8874 68.5415 136.9685 68.4743 C 137.0495 68.4071 137.1059 68.3461 137.1375 68.2912 L 136.9966 68.0146 L 136.4699 68.1999 L 136.4699 68.1999 ZM 134.2661 68.9431 L 134.8734 68.7294 L 134.477 68.3838 C 134.3563 68.2789 134.2617 68.1911 134.193 68.1205 C 134.2187 68.2238 134.2347 68.3297 134.241 68.4381 L 134.2661 68.9431 L 134.2661 68.9431 ZM 134.0598 69.7349 L 133.9914 68.0075 L 134.2467 67.9176 L 135.7364 69.145 L 135.4664 69.24 L 135.0283 68.8637 L 134.2791 69.1273 L 134.3116 69.6463 L 134.0598 69.7349 L 134.0598 69.7349 ZM 132.2661 69.3875 L 132.7757 69.2083 C 132.884 69.1702 132.964 69.131 133.0156 69.091 C 133.0673 69.0509 133.0986 69.0048 133.1095 68.9528 C 133.1205 68.9007 133.1138 68.8507 133.0894 68.8028 C 133.0536 68.7325 132.9934 68.6855 132.9088 68.662 C 132.8243 68.6383 132.7156 68.6499 132.5828 68.6966 L 132.0158 68.8961 L 132.2661 69.3875 L 132.2661 69.3875 ZM 132.4516 70.3008 L 131.6951 68.8154 L 132.4894 68.5359 C 132.6492 68.4797 132.7773 68.4503 132.874 68.4478 C 132.9707 68.4453 133.0611 68.469 133.1452 68.5191 C 133.2293 68.5691 133.2921 68.635 133.3338 68.7167 C 133.3874 68.8221 133.3915 68.9254 133.346 69.0266 C 133.3006 69.1279 133.1969 69.2186 133.035 69.2986 C 133.1104 69.3015 133.1706 69.3094 133.2156 69.3223 C 133.3117 69.3506 133.4108 69.3934 133.5129 69.4507 L 134.0305 69.7453 L 133.7323 69.8502 L 133.3378 69.6246 C 133.2232 69.5598 133.1314 69.5116 133.0625 69.4801 C 132.9936 69.4485 132.9366 69.4296 132.8916 69.4232 C 132.8465 69.4167 132.8037 69.4162 132.7633 69.4217 C 132.734 69.4264 132.6888 69.4395 132.6277 69.461 L 132.3527 69.5578 L 132.6887 70.2174 L 132.4516 70.3008 L 132.4516 70.3008 ZM 130.9301 70.8362 L 130.1737 69.3508 L 131.3823 68.9255 L 131.4715 69.1008 L 130.5001 69.4426 L 130.7343 69.9026 L 131.5751 69.6068 L 131.6643 69.7821 L 130.8235 70.0779 L 131.1672 70.7527 L 130.9301 70.8362 L 130.9301 70.8362 Z" fill="#5c4a3a"/>
			<path id="path33964" d="M 153.7587 10.1873 L 123.4422 16.6611 L 99.0069 9.1639 L 88.4167 12.1488 L 113.6003 19.7125 L 88.1671 26.8741 L 87.7392 38.9351 L 98.0091 42.0366 L 98.8649 30.3201 L 124.9675 23.0835 L 151.498 30.6647 L 150.6422 42.3811 L 161.354 38.4944 L 161.7679 27.2187 L 135.6653 20.3267 L 165.1962 13.6839 L 153.7587 10.1873 Z" fill="#a28661"/>
			<path id="path79904" d="M 124 37 L 185 19.398 " stroke="#b7946e" stroke-width="1" fill="none"/>
			<path id="path33944" d="M 63 19.398 L 124 37 L 124 99 " stroke="#b7946e" stroke-width="1" fill="none"/>
			<path id="path79944" d="M 124 2 L 184 19 L 184 81 " stroke="#b7946e" stroke-width="1" fill="none"/>
		</g>
	</g>
</svg>